<svg width="375" height="855" viewBox="0 0 375 855" fill="none" xmlns="http://www.w3.org/2000/svg">
<g clip-path="url(#clip0_34_3)">
<rect width="375" height="855" fill="white"/>
<g opacity="0.5">
<path d="M337.249 297.53L275.899 315.225C260.107 319.78 243.606 310.673 239.053 294.89L231.836 269.865C227.283 254.083 236.4 237.587 252.193 233.032L313.543 215.337C329.335 210.782 345.836 219.889 350.389 235.671L357.607 260.696C362.159 276.479 353.042 292.975 337.249 297.53Z" fill="#FBAE0D"/>
<path d="M288.456 243.552C260.671 251.566 231.655 235.553 223.646 207.786C215.637 180.018 231.668 151.012 259.453 142.998C287.238 134.984 316.254 150.997 324.263 178.765C332.272 206.532 316.24 235.539 288.456 243.552Z" fill="#CCCCCC"/>
<path d="M364.122 348.512L377.121 337.654C380.483 334.847 380.926 329.852 378.126 326.499L353.858 297.444C351.052 294.084 346.057 293.643 342.703 296.445L329.703 307.303C326.342 310.11 325.898 315.105 328.698 318.458L352.966 347.514C355.766 350.866 360.767 351.314 364.122 348.512Z" fill="#E6E6E6"/>
<path d="M343.719 336.953L369.383 315.518C369.627 315.314 369.999 315.347 370.203 315.592L371.306 316.912C371.51 317.156 371.476 317.528 371.232 317.732L345.569 339.167C345.324 339.371 344.952 339.338 344.748 339.094L343.645 337.773C343.435 337.522 343.475 337.157 343.719 336.953Z" fill="#B3B3B3"/>
<path d="M346.094 339.796L371.758 318.362C372.002 318.157 372.374 318.191 372.578 318.435L373.681 319.755C373.885 320 373.851 320.371 373.607 320.576L347.944 342.01C347.699 342.215 347.327 342.181 347.123 341.937L346.02 340.617C345.816 340.372 345.85 340 346.094 339.796Z" fill="#B3B3B3"/>
<path d="M348.585 342.779L374.248 321.344C374.492 321.14 374.864 321.173 375.068 321.417L375.943 322.465C376.148 322.71 376.114 323.081 375.87 323.286L350.206 344.72C349.962 344.925 349.59 344.891 349.386 344.647L348.511 343.599C348.301 343.348 348.34 342.983 348.585 342.779Z" fill="#B3B3B3"/>
<path d="M279.663 377.365L262.878 375.098C258.537 374.512 255.502 370.521 256.086 366.192L261.153 328.675C261.739 324.337 265.732 321.304 270.064 321.889L286.848 324.156C291.189 324.742 294.224 328.733 293.64 333.062L288.573 370.579C287.988 374.908 283.994 377.95 279.663 377.365Z" fill="#E6E6E6"/>
<path d="M290.776 356.715L257.64 352.24C257.324 352.198 257.027 352.424 256.984 352.74L256.754 354.444C256.712 354.76 256.938 355.057 257.254 355.099L290.39 359.574C290.706 359.617 291.003 359.391 291.046 359.075L291.276 357.371C291.32 357.046 291.092 356.758 290.776 356.715Z" fill="#B3B3B3"/>
<path d="M290.28 360.386L257.144 355.911C256.828 355.869 256.531 356.095 256.488 356.41L256.258 358.115C256.216 358.431 256.442 358.727 256.758 358.77L289.894 363.245C290.21 363.288 290.507 363.062 290.55 362.746L290.78 361.042C290.822 360.726 290.596 360.429 290.28 360.386Z" fill="#B3B3B3"/>
<path d="M289.761 364.237L256.624 359.762C256.308 359.719 256.011 359.945 255.969 360.261L255.786 361.614C255.743 361.929 255.97 362.226 256.286 362.269L289.422 366.744C289.738 366.787 290.035 366.561 290.077 366.245L290.26 364.892C290.304 364.567 290.076 364.28 289.761 364.237Z" fill="#B3B3B3"/>
<path d="M340.253 316.354L285.474 332.154C274.747 335.247 263.552 329.062 260.463 318.351L247.273 272.62C239.989 247.368 254.568 220.991 279.836 213.703C306.267 206.079 333.879 221.31 341.501 247.734L354.08 291.349C357.161 302.063 350.98 313.26 340.253 316.354Z" fill="#CCCCCC"/>
<path d="M285.111 231.958C263.734 238.124 241.409 225.803 235.247 204.439C229.085 183.075 241.419 160.758 262.797 154.592C284.174 148.426 306.499 160.747 312.661 182.111C318.823 203.475 306.488 225.792 285.111 231.958Z" fill="#2B2A70"/>
<path d="M320.697 247.619C314.863 233.096 316.207 218.884 323.697 215.876C331.187 212.869 341.989 222.204 347.822 236.727C353.656 251.251 352.312 265.462 344.822 268.47C337.332 271.477 326.53 262.142 320.697 247.619Z" fill="#FBAE0D"/>
<path d="M254.452 294.53C246.511 295.973 237.805 284.66 235.008 269.261C232.211 253.862 236.382 240.208 244.323 238.765C252.265 237.321 260.97 248.635 263.767 264.034C266.564 279.433 262.394 293.086 254.452 294.53Z" fill="#FBAE0D"/>
<path d="M210.372 249.275L210.043 249.298C208.133 249.453 206.453 248.024 206.299 246.114L206.053 243.062C205.899 241.152 207.329 239.47 209.24 239.315L209.569 239.292C211.479 239.137 213.159 240.566 213.313 242.476L213.559 245.528C213.713 247.438 212.283 249.119 210.372 249.275Z" fill="#CCCCCC"/>
<path d="M205.1 256.354L205.057 256.681C204.823 258.583 203.085 259.94 201.183 259.706L198.144 259.331C196.242 259.096 194.884 257.356 195.117 255.454L195.16 255.127C195.393 253.225 197.132 251.867 199.034 252.102L202.073 252.477C203.975 252.711 205.333 254.451 205.1 256.354Z" fill="#CCCCCC"/>
<path d="M206.496 252.29L206.239 252.496C204.757 253.712 202.567 253.506 201.345 252.031L199.4 249.674C198.185 248.193 198.392 246.002 199.868 244.78L200.125 244.574C201.607 243.358 203.797 243.564 205.019 245.039L206.964 247.396C208.192 248.877 207.971 251.067 206.496 252.29Z" fill="#CCCCCC"/>
<path d="M207.134 261.94L207.264 262.242C208.045 263.993 207.267 266.051 205.521 266.839L202.733 268.091C200.983 268.871 198.926 268.091 198.137 266.344L198.007 266.042C197.226 264.291 198.005 262.234 199.75 261.446L202.538 260.194C204.292 259.401 206.345 260.193 207.134 261.94Z" fill="#CCCCCC"/>
<path d="M257.403 256.515L255.139 272.256C254.607 275.999 251.129 278.593 247.393 278.061L244.556 277.657C240.811 277.127 238.217 273.651 238.751 269.917L241.418 251.332C241.949 247.589 245.428 244.995 249.164 245.527C254.481 246.286 258.166 251.209 257.403 256.515Z" fill="#CCCCCC"/>
<path d="M323.683 239.819L333.982 251.936C336.425 254.821 340.751 255.164 343.63 252.724L345.815 250.872C348.703 248.429 349.048 244.105 346.607 241.229L334.453 226.919C332.009 224.034 327.684 223.691 324.805 226.131C320.708 229.605 320.211 235.734 323.683 239.819Z" fill="#CCCCCC"/>
<path d="M239.728 271.775L210.703 268.093C204.253 267.275 199.677 261.383 200.496 254.928L200.626 253.907C201.443 247.462 207.338 242.889 213.797 243.708L242.822 247.391C249.272 248.209 253.848 254.101 253.029 260.556L252.9 261.576C252.082 268.022 246.187 272.595 239.728 271.775Z" fill="#E6E6E6"/>
<path d="M232.929 245.347L229.639 271.275C229.599 271.591 229.304 271.82 228.988 271.78L228.084 271.665C227.768 271.625 227.539 271.33 227.579 271.014L230.869 245.085C230.909 244.77 231.204 244.541 231.52 244.581L232.424 244.696C232.739 244.745 232.969 245.031 232.929 245.347Z" fill="#B3B3B3"/>
<path d="M230.282 245.01L226.993 270.939C226.953 271.255 226.657 271.483 226.341 271.443L225.438 271.329C225.122 271.288 224.893 270.993 224.933 270.677L228.222 244.749C228.263 244.433 228.558 244.205 228.874 244.245L229.777 244.359C230.092 244.408 230.322 244.694 230.282 245.01Z" fill="#B3B3B3"/>
<path d="M227.508 244.659L224.219 270.587C224.179 270.903 223.884 271.132 223.568 271.092L222.917 271.009C222.601 270.969 222.372 270.674 222.412 270.358L225.702 244.43C225.742 244.114 226.037 243.885 226.353 243.925L227.004 244.008C227.319 244.057 227.549 244.343 227.508 244.659Z" fill="#B3B3B3"/>
<path d="M360.877 206.365L361.168 206.21C362.868 205.324 363.529 203.219 362.642 201.521L361.224 198.807C360.337 197.108 358.232 196.447 356.532 197.332L356.241 197.488C354.542 198.374 353.88 200.478 354.767 202.177L356.185 204.891C357.072 206.59 359.178 207.251 360.877 206.365Z" fill="#CCCCCC"/>
<path d="M369.11 209.549L369.321 209.803C370.532 211.288 372.726 211.512 374.211 210.3L376.584 208.364C378.068 207.153 378.291 204.957 377.081 203.471L376.87 203.217C375.66 201.732 373.465 201.508 371.98 202.72L369.608 204.656C368.123 205.867 367.9 208.063 369.11 209.549Z" fill="#CCCCCC"/>
<path d="M365.765 206.853L366.091 206.89C367.993 207.13 369.737 205.789 369.986 203.89L370.377 200.859C370.617 198.958 369.275 197.215 367.374 196.966L367.048 196.929C365.146 196.689 363.402 198.03 363.153 199.929L362.762 202.959C362.511 204.867 363.864 206.603 365.765 206.853Z" fill="#CCCCCC"/>
<path d="M370.363 215.361L370.413 215.686C370.685 217.584 372.439 218.91 374.337 218.648L377.363 218.223C379.259 217.951 380.585 216.196 380.323 214.297L380.272 213.972C380.001 212.075 378.246 210.748 376.349 211.01L373.323 211.435C371.416 211.698 370.1 213.462 370.363 215.361Z" fill="#CCCCCC"/>
<path d="M348.011 241.044L370.617 222.47C375.64 218.343 376.376 210.919 372.245 205.891L371.592 205.097C367.467 200.076 360.043 199.345 355.012 203.479L332.407 222.053C327.383 226.18 326.648 233.604 330.778 238.632L331.431 239.426C335.556 244.447 342.981 245.178 348.011 241.044Z" fill="#E6E6E6"/>
<path d="M339.692 215.054L356.284 235.247C356.486 235.493 356.858 235.53 357.104 235.327L357.808 234.749C358.054 234.547 358.091 234.175 357.888 233.929L341.296 213.736C341.094 213.489 340.722 213.453 340.476 213.656L339.772 214.234C339.532 214.443 339.49 214.807 339.692 215.054Z" fill="#B3B3B3"/>
<path d="M341.752 213.36L358.345 233.554C358.547 233.8 358.919 233.836 359.165 233.634L359.868 233.056C360.115 232.854 360.151 232.482 359.949 232.236L343.356 212.042C343.154 211.796 342.783 211.76 342.536 211.962L341.833 212.54C341.592 212.75 341.55 213.114 341.752 213.36Z" fill="#B3B3B3"/>
<path d="M343.912 211.586L360.505 231.78C360.707 232.026 361.079 232.062 361.325 231.86L361.831 231.443C362.078 231.241 362.114 230.87 361.912 230.623L345.32 210.43C345.117 210.184 344.746 210.147 344.5 210.35L343.993 210.766C343.753 210.975 343.71 211.34 343.912 211.586Z" fill="#B3B3B3"/>
<path d="M284.613 165.057C267.462 157.583 267.413 161.045 269.249 159.201C270.962 158.346 279.407 155.574 292.243 163.567C301.404 169.271 303.978 175.285 304.988 180.522C305.152 182.615 304.62 185.039 304.24 186.544C303.422 189.776 301.764 172.531 284.613 165.057Z" fill="#EEEEEE" fill-opacity="0.96"/>
<path d="M306.299 190.095C306.299 190.292 308.785 197.552 309.699 197.552C310.612 197.552 309.931 191.851 309.882 190.922C309.824 189.819 307.953 180.449 306.575 185.961C305.742 188.97 306.299 189.898 306.299 190.095Z" fill="#EEEEEE" fill-opacity="0.95"/>
<circle r="12.9538" transform="matrix(-1 0 0 1 291.431 257.85)" stroke="#E6E6E6" stroke-width="0.551226"/>
<path d="M287.243 251.822L283.659 252.708L291.82 267.42L291.803 261.327L287.243 251.822ZM292.349 250.56L292.554 267.239L295.512 266.508L295.922 249.677L292.349 250.56Z" fill="#DF9E15"/>
</g>
</g>
<defs>
<clipPath id="clip0_34_3">
<rect width="375" height="855" fill="white"/>
</clipPath>
</defs>
</svg>
