<svg width="754" height="718" viewBox="0 0 754 718" fill="none" xmlns="http://www.w3.org/2000/svg">
<g clip-path="url(#clip0_34_89)">
<rect width="754" height="718" fill="white"/>
<g opacity="0.5">
<path d="M694.743 411.717L556.274 451.655C520.63 461.936 483.387 441.382 473.112 405.76L456.821 349.278C446.547 313.656 467.124 276.425 502.768 266.144L641.237 226.206C676.881 215.925 714.125 236.479 724.399 272.101L740.69 328.583C750.964 364.205 730.387 401.436 694.743 411.717Z" fill="#FBAE0D"/>
<path d="M584.616 289.889C521.905 307.976 456.414 271.833 438.338 209.162C420.262 146.49 456.445 81.0216 519.156 62.9341C581.866 44.8465 647.357 80.9892 665.434 143.661C683.51 206.333 647.326 271.801 584.616 289.889Z" fill="#CCCCCC"/>
<path d="M755.39 526.784L784.73 502.279C792.317 495.941 793.318 484.668 786.998 477.101L732.225 411.522C725.892 403.939 714.618 402.945 707.046 409.269L677.706 433.774C670.119 440.111 669.118 451.385 675.438 458.951L730.211 524.531C736.531 532.098 747.818 533.108 755.39 526.784Z" fill="#E6E6E6"/>
<path d="M709.341 500.696L767.264 452.317C767.816 451.856 768.655 451.931 769.116 452.483L771.605 455.463C772.066 456.014 771.99 456.854 771.438 457.315L713.515 505.693C712.963 506.154 712.124 506.079 711.663 505.527L709.174 502.548C708.7 501.98 708.789 501.157 709.341 500.696Z" fill="#B3B3B3"/>
<path d="M714.702 507.113L772.624 458.735C773.176 458.273 774.016 458.348 774.477 458.9L776.965 461.88C777.426 462.431 777.35 463.271 776.798 463.732L718.876 512.11C718.323 512.571 717.484 512.496 717.023 511.944L714.535 508.965C714.074 508.413 714.15 507.574 714.702 507.113Z" fill="#B3B3B3"/>
<path d="M720.322 513.844L778.244 465.465C778.797 465.004 779.636 465.079 780.097 465.631L782.072 467.996C782.533 468.548 782.457 469.387 781.905 469.848L723.982 518.226C723.43 518.687 722.591 518.612 722.13 518.06L720.155 515.696C719.681 515.128 719.77 514.305 720.322 513.844Z" fill="#B3B3B3"/>
<path d="M564.768 591.906L526.885 586.79C517.088 585.467 510.237 576.459 511.556 566.688L522.992 482.012C524.314 472.221 533.327 465.376 543.103 466.696L580.987 471.813C590.784 473.136 597.635 482.144 596.315 491.914L584.88 576.591C583.56 586.361 574.545 593.227 564.768 591.906Z" fill="#E6E6E6"/>
<path d="M589.852 545.301L515.062 535.2C514.349 535.104 513.679 535.615 513.583 536.327L513.063 540.174C512.967 540.887 513.478 541.557 514.191 541.653L588.981 551.753C589.693 551.85 590.364 551.339 590.46 550.627L590.98 546.78C591.079 546.047 590.565 545.397 589.852 545.301Z" fill="#B3B3B3"/>
<path d="M588.734 553.586L513.944 543.486C513.231 543.39 512.561 543.9 512.465 544.613L511.945 548.46C511.849 549.172 512.36 549.842 513.073 549.938L587.862 560.039C588.575 560.135 589.246 559.625 589.342 558.912L589.861 555.065C589.958 554.353 589.447 553.683 588.734 553.586Z" fill="#B3B3B3"/>
<path d="M587.561 562.277L512.771 552.177C512.058 552.081 511.388 552.591 511.292 553.304L510.879 556.357C510.783 557.069 511.294 557.739 512.007 557.836L586.797 567.936C587.509 568.032 588.18 567.522 588.276 566.809L588.688 563.756C588.787 563.023 588.274 562.374 587.561 562.277Z" fill="#B3B3B3"/>
<path d="M701.522 454.203L577.884 489.864C553.673 496.847 528.406 482.886 521.433 458.711L491.663 355.496C475.224 298.501 508.128 238.967 565.158 222.518C624.815 205.311 687.136 239.688 704.338 299.328L732.731 397.767C739.684 421.948 725.733 447.22 701.522 454.203Z" fill="#CCCCCC"/>
<path d="M577.066 263.72C528.817 277.636 478.429 249.829 464.521 201.609C450.614 153.39 478.453 103.02 526.702 89.1032C574.951 75.1868 625.339 102.995 639.247 151.214C653.154 199.433 625.315 249.804 577.066 263.72Z" fill="#2B2A70"/>
<path d="M657.384 299.067C644.218 266.288 647.25 234.212 664.156 227.424C681.062 220.635 705.44 241.706 718.607 274.485C731.773 307.264 728.741 339.34 711.835 346.128C694.929 352.916 670.551 331.846 657.384 299.067Z" fill="#FBAE0D"/>
<path d="M507.865 404.946C489.941 408.204 470.293 382.67 463.98 347.914C457.667 313.158 467.08 282.341 485.004 279.083C502.929 275.825 522.577 301.36 528.89 336.116C535.202 370.872 525.789 401.688 507.865 404.946Z" fill="#FBAE0D"/>
<path d="M408.38 302.803L407.637 302.856C403.326 303.207 399.533 299.981 399.185 295.67L398.631 288.781C398.284 284.47 401.512 280.675 405.823 280.325L406.566 280.272C410.877 279.922 414.67 283.147 415.018 287.458L415.571 294.347C415.919 298.658 412.691 302.453 408.38 302.803Z" fill="#CCCCCC"/>
<path d="M396.477 318.781L396.379 319.519C395.853 323.813 391.928 326.877 387.636 326.348L380.777 325.501C376.484 324.972 373.418 321.045 373.945 316.751L374.043 316.013C374.569 311.72 378.494 308.655 382.786 309.184L389.645 310.032C393.938 310.561 397.003 314.488 396.477 318.781Z" fill="#CCCCCC"/>
<path d="M399.627 309.609L399.048 310.074C395.703 312.819 390.759 312.353 388.001 309.024L383.612 303.704C380.869 300.361 381.338 295.418 384.668 292.658L385.248 292.194C388.593 289.449 393.536 289.915 396.294 293.243L400.683 298.563C403.456 301.907 402.958 306.85 399.627 309.609Z" fill="#CCCCCC"/>
<path d="M401.071 331.39L401.365 332.072C403.127 336.024 401.37 340.668 397.43 342.446L391.139 345.272C387.189 347.033 382.546 345.273 380.765 341.331L380.471 340.649C378.709 336.697 380.466 332.053 384.406 330.274L390.697 327.449C394.655 325.66 399.29 327.448 401.071 331.39Z" fill="#CCCCCC"/>
<path d="M514.526 319.145L509.415 354.673C508.215 363.121 500.364 368.977 491.932 367.775L485.53 366.863C477.078 365.667 471.222 357.822 472.427 349.394L478.446 307.448C479.646 299 487.497 293.144 495.929 294.346C507.931 296.058 516.248 307.169 514.526 319.145Z" fill="#CCCCCC"/>
<path d="M664.122 281.462L687.368 308.811C692.883 315.322 702.646 316.097 709.143 310.589L714.076 306.409C720.593 300.895 721.372 291.136 715.863 284.645L688.43 252.347C682.916 245.836 673.152 245.061 666.655 250.569C657.409 258.409 656.286 272.243 664.122 281.462Z" fill="#CCCCCC"/>
<path d="M474.638 353.587L409.128 345.276C394.571 343.429 384.242 330.131 386.09 315.562L386.382 313.259C388.228 298.711 401.533 288.39 416.111 290.24L481.621 298.551C496.178 300.398 506.507 313.696 504.659 328.265L504.367 330.568C502.521 345.116 489.216 355.437 474.638 353.587Z" fill="#E6E6E6"/>
<path d="M459.291 293.938L451.867 352.459C451.776 353.172 451.11 353.688 450.397 353.597L448.358 353.339C447.644 353.248 447.128 352.582 447.218 351.869L454.643 293.348C454.733 292.635 455.4 292.119 456.113 292.21L458.152 292.468C458.863 292.579 459.382 293.225 459.291 293.938Z" fill="#B3B3B3"/>
<path d="M453.317 293.179L445.892 351.7C445.802 352.413 445.136 352.929 444.422 352.839L442.383 352.58C441.67 352.489 441.153 351.823 441.244 351.11L448.668 292.589C448.759 291.876 449.425 291.36 450.139 291.451L452.177 291.71C452.889 291.82 453.407 292.466 453.317 293.179Z" fill="#B3B3B3"/>
<path d="M447.058 292.386L439.634 350.907C439.543 351.62 438.877 352.136 438.163 352.045L436.695 351.859C435.982 351.768 435.465 351.102 435.556 350.389L442.98 291.868C443.071 291.155 443.737 290.639 444.451 290.73L445.919 290.916C446.63 291.027 447.149 291.673 447.058 292.386Z" fill="#B3B3B3"/>
<path d="M748.069 205.956L748.726 205.605C752.562 203.606 754.054 198.856 752.052 195.022L748.852 188.896C746.85 185.062 742.097 183.569 738.262 185.569L737.605 185.919C733.769 187.919 732.277 192.669 734.278 196.503L737.478 202.629C739.48 206.463 744.233 207.955 748.069 205.956Z" fill="#CCCCCC"/>
<path d="M759.1 207.055L759.838 207.139C764.131 207.681 768.067 204.655 768.628 200.368L769.511 193.528C770.052 189.238 767.022 185.303 762.734 184.741L761.996 184.657C757.703 184.115 753.767 187.142 753.206 191.428L752.323 198.268C751.758 202.575 754.811 206.493 759.1 207.055Z" fill="#CCCCCC"/>
<path d="M719.032 284.227L770.053 242.305C781.391 232.989 783.051 216.233 773.728 204.886L772.255 203.093C762.944 191.762 746.187 190.112 734.833 199.441L683.812 241.363C672.474 250.679 670.814 267.435 680.137 278.782L681.611 280.575C690.921 291.906 707.678 293.556 719.032 284.227Z" fill="#E6E6E6"/>
<path d="M700.254 225.566L737.704 271.144C738.16 271.7 738.999 271.782 739.555 271.325L741.143 270.02C741.698 269.563 741.781 268.725 741.324 268.169L703.875 222.592C703.418 222.036 702.58 221.954 702.024 222.411L700.436 223.716C699.893 224.188 699.798 225.011 700.254 225.566Z" fill="#B3B3B3"/>
<path d="M704.906 221.744L742.355 267.322C742.812 267.877 743.65 267.959 744.206 267.502L745.794 266.198C746.35 265.741 746.432 264.902 745.976 264.347L708.526 218.769C708.07 218.213 707.231 218.132 706.676 218.588L705.088 219.893C704.545 220.366 704.449 221.188 704.906 221.744Z" fill="#B3B3B3"/>
<path d="M709.784 217.739L747.233 263.317C747.69 263.872 748.528 263.954 749.084 263.497L750.227 262.558C750.783 262.101 750.866 261.262 750.409 260.707L712.96 215.129C712.503 214.574 711.665 214.492 711.109 214.948L709.965 215.888C709.423 216.36 709.327 217.183 709.784 217.739Z" fill="#B3B3B3"/>
<path d="M575.94 112.722C537.23 95.8538 537.12 103.667 541.263 99.5049C545.131 97.575 564.19 91.3193 593.163 109.36C613.838 122.234 619.649 135.807 621.927 147.628C622.299 152.352 621.098 157.822 620.239 161.219C618.394 168.514 614.65 129.591 575.94 112.722Z" fill="#EEEEEE" fill-opacity="0.96"/>
<path d="M624.889 169.235C624.889 169.679 630.501 186.064 632.562 186.064C634.624 186.064 633.086 173.198 632.976 171.101C632.845 168.612 628.621 147.462 625.511 159.904C623.633 166.696 624.889 168.791 624.889 169.235Z" fill="#EEEEEE" fill-opacity="0.95"/>
<circle r="29.2371" transform="matrix(-1 0 0 1 591.329 322.159)" stroke="#E6E6E6" stroke-width="1.24413"/>
<path d="M581.876 308.553L573.787 310.553L592.207 343.759L592.169 330.007L581.876 308.553ZM593.4 305.705L593.864 343.35L600.54 341.7L601.465 303.711L593.4 305.705Z" fill="#DF9E15"/>
</g>
</g>
<defs>
<clipPath id="clip0_34_89">
<rect width="754" height="718" fill="white"/>
</clipPath>
</defs>
</svg>
