<svg width="1000" height="652" viewBox="0 0 1000 652" fill="none" xmlns="http://www.w3.org/2000/svg">
<g clip-path="url(#clip0_30_24)">
<rect width="1000" height="652" fill="white"/>
<g opacity="0.5">
<path d="M866.481 479.588L644.241 543.688C587.033 560.189 527.257 527.2 510.767 470.028L484.62 379.375C468.13 322.202 501.156 262.448 558.364 245.947L780.604 181.847C837.812 165.346 897.588 198.335 914.078 255.507L940.225 346.16C956.715 403.333 923.689 463.088 866.481 479.588Z" fill="#FBAE0D"/>
<path d="M689.728 284.056C589.078 313.086 483.967 255.078 454.954 154.491C425.942 53.9037 484.016 -51.1717 584.665 -80.2019C685.315 -109.232 790.427 -51.2237 819.439 49.3633C848.451 149.95 790.377 255.026 689.728 284.056Z" fill="#CCCCCC"/>
<path d="M963.82 664.269L1010.91 624.938C1023.09 614.767 1024.69 596.674 1014.55 584.529L926.64 479.275C916.475 467.105 898.381 465.51 886.228 475.659L839.138 514.99C826.961 525.161 825.354 543.254 835.498 555.399L923.408 660.653C933.552 672.798 951.667 674.419 963.82 664.269Z" fill="#E6E6E6"/>
<path d="M889.912 622.398L982.876 544.752C983.763 544.011 985.11 544.132 985.849 545.017L989.843 549.799C990.583 550.685 990.462 552.032 989.575 552.772L896.611 630.418C895.724 631.158 894.377 631.038 893.638 630.152L889.644 625.37C888.883 624.46 889.026 623.138 889.912 622.398Z" fill="#B3B3B3"/>
<path d="M898.515 632.697L991.48 555.051C992.366 554.311 993.713 554.431 994.453 555.317L998.447 560.099C999.187 560.985 999.065 562.331 998.179 563.072L905.214 640.718C904.328 641.458 902.981 641.338 902.242 640.452L898.248 635.67C897.508 634.784 897.629 633.438 898.515 632.697Z" fill="#B3B3B3"/>
<path d="M907.535 643.5L1000.5 565.854C1001.39 565.114 1002.73 565.234 1003.47 566.12L1006.64 569.915C1007.38 570.801 1007.26 572.148 1006.37 572.888L913.41 650.534C912.524 651.274 911.177 651.154 910.437 650.268L907.267 646.473C906.507 645.562 906.649 644.24 907.535 643.5Z" fill="#B3B3B3"/>
<path d="M657.873 768.789L597.071 760.578C581.347 758.454 570.352 743.996 572.47 728.315L590.823 592.411C592.946 576.697 607.411 565.71 623.102 567.829L683.904 576.041C699.628 578.164 710.623 592.623 708.506 608.304L690.152 744.208C688.034 759.889 673.564 770.908 657.873 768.789Z" fill="#E6E6E6"/>
<path d="M877.362 547.779L678.924 605.014C640.067 616.221 599.513 593.814 588.322 555.013L540.541 389.355C514.157 297.878 566.966 202.328 658.499 175.927C754.248 148.311 854.272 203.485 881.881 299.206L927.451 457.198C938.61 496.009 916.219 536.571 877.362 547.779Z" fill="#CCCCCC"/>
<path d="M677.611 242.056C600.172 264.391 519.3 219.76 496.978 142.37C474.657 64.9787 519.338 -15.8655 596.777 -38.201C674.216 -60.5365 755.088 -15.9054 777.409 61.4854C799.731 138.876 755.05 219.72 677.611 242.056Z" fill="#2B2A70"/>
<path d="M806.52 298.787C785.388 246.177 790.254 194.696 817.388 183.801C844.522 172.906 883.649 206.723 904.78 259.333C925.912 311.944 921.046 363.425 893.912 374.32C866.778 385.214 827.651 351.397 806.52 298.787Z" fill="#FBAE0D"/>
<path d="M566.545 468.722C537.777 473.951 506.242 432.969 496.11 377.186C485.978 321.403 501.086 271.943 529.854 266.714C558.622 261.485 590.157 302.467 600.289 358.25C610.421 414.033 595.313 463.493 566.545 468.722Z" fill="#FBAE0D"/>
<path d="M406.873 304.784L405.681 304.869C398.761 305.431 392.674 300.254 392.116 293.335L391.227 282.278C390.669 275.359 395.85 269.269 402.77 268.706L403.962 268.622C410.882 268.059 416.969 273.236 417.527 280.156L418.415 291.212C418.973 298.132 413.793 304.222 406.873 304.784Z" fill="#CCCCCC"/>
<path d="M387.769 330.428L387.612 331.613C386.767 338.504 380.468 343.422 373.579 342.573L362.57 341.213C355.68 340.364 350.76 334.061 351.605 327.17L351.762 325.985C352.607 319.094 358.906 314.176 365.795 315.026L376.804 316.385C383.694 317.234 388.614 323.537 387.769 330.428Z" fill="#CCCCCC"/>
<path d="M392.825 315.708L391.895 316.453C386.526 320.858 378.592 320.111 374.166 314.768L367.121 306.23C362.718 300.865 363.471 292.931 368.816 288.501L369.746 287.756C375.115 283.35 383.048 284.098 387.475 289.44L394.52 297.979C398.969 303.345 398.17 311.278 392.825 315.708Z" fill="#CCCCCC"/>
<path d="M395.141 350.665L395.613 351.759C398.442 358.102 395.622 365.555 389.298 368.411L379.2 372.946C372.861 375.772 365.409 372.947 362.552 366.62L362.079 365.526C359.251 359.183 362.071 351.73 368.394 348.875L378.492 344.339C384.845 341.469 392.284 344.338 395.141 350.665Z" fill="#CCCCCC"/>
<path d="M577.235 331.013L569.032 388.034C567.107 401.593 554.506 410.991 540.972 409.062L530.698 407.599C517.132 405.679 507.733 393.088 509.668 379.561L519.328 312.238C521.254 298.68 533.855 289.281 547.388 291.21C566.651 293.958 580 311.791 577.235 331.013Z" fill="#CCCCCC"/>
<path d="M817.334 270.532L854.644 314.426C863.495 324.876 879.165 326.121 889.593 317.28L897.51 310.571C907.969 301.721 909.219 286.059 900.378 275.64L856.349 223.803C847.498 213.352 831.828 212.108 821.4 220.948C806.56 233.532 804.758 255.735 817.334 270.532Z" fill="#CCCCCC"/>
<path d="M513.215 386.291L408.073 372.952C384.708 369.988 368.131 348.644 371.097 325.261L371.566 321.566C374.528 298.215 395.882 281.651 419.28 284.619L524.422 297.959C547.787 300.923 564.364 322.266 561.398 345.65L560.929 349.345C557.966 372.695 536.613 389.26 513.215 386.291Z" fill="#E6E6E6"/>
<path d="M488.584 290.555L476.668 384.48C476.523 385.625 475.454 386.453 474.308 386.307L471.036 385.892C469.891 385.747 469.062 384.678 469.207 383.533L481.123 289.608C481.269 288.464 482.338 287.636 483.483 287.781L486.756 288.196C487.897 288.374 488.73 289.41 488.584 290.555Z" fill="#B3B3B3"/>
<path d="M478.995 289.337L467.079 383.262C466.934 384.407 465.864 385.235 464.719 385.09L461.447 384.674C460.301 384.529 459.473 383.46 459.618 382.316L471.534 288.391C471.679 287.246 472.749 286.418 473.894 286.563L477.166 286.979C478.308 287.157 479.14 288.193 478.995 289.337Z" fill="#B3B3B3"/>
<path d="M468.95 288.064L457.033 381.989C456.888 383.134 455.819 383.962 454.673 383.816L452.317 383.517C451.172 383.372 450.343 382.303 450.489 381.159L462.405 287.234C462.55 286.089 463.619 285.261 464.765 285.406L467.121 285.705C468.262 285.883 469.095 286.919 468.95 288.064Z" fill="#B3B3B3"/>
<path d="M952.068 149.345L953.122 148.783C959.278 145.573 961.673 137.95 958.461 131.796L953.325 121.965C950.112 115.811 942.484 113.415 936.327 116.624L935.273 117.187C929.117 120.397 926.722 128.02 929.934 134.174L935.07 144.005C938.283 150.159 945.911 152.555 952.068 149.345Z" fill="#CCCCCC"/>
<path d="M981.89 160.878L982.654 161.797C987.039 167.18 994.989 167.988 1000.37 163.6L1008.96 156.587C1014.34 152.199 1015.15 144.244 1010.76 138.862L1010 137.943C1005.61 132.56 997.665 131.752 992.286 136.14L983.692 143.153C978.313 147.541 977.505 155.496 981.89 160.878Z" fill="#CCCCCC"/>
<path d="M969.773 151.11L970.957 151.245C977.847 152.115 984.164 147.257 985.065 140.378L986.481 129.399C987.35 122.513 982.488 116.199 975.605 115.296L974.421 115.161C967.531 114.291 961.213 119.149 960.312 126.028L958.896 137.007C957.988 143.919 962.889 150.207 969.773 151.11Z" fill="#CCCCCC"/>
<path d="M986.43 181.931L986.613 183.108C987.597 189.983 993.953 194.789 1000.83 193.838L1011.79 192.299C1018.66 191.316 1023.46 184.956 1022.51 178.079L1022.33 176.901C1021.34 170.027 1014.99 165.22 1008.11 166.171L997.153 167.71C990.247 168.663 985.479 175.054 986.43 181.931Z" fill="#CCCCCC"/>
<path d="M905.465 274.969L987.353 207.685C1005.55 192.733 1008.21 165.84 993.251 147.628L990.886 144.75C975.943 126.564 949.048 123.916 930.825 138.889L848.937 206.173C830.74 221.125 828.075 248.019 843.039 266.23L845.404 269.108C860.347 287.294 887.242 289.942 905.465 274.969Z" fill="#E6E6E6"/>
<path d="M875.327 180.82L935.433 253.972C936.166 254.863 937.512 254.995 938.404 254.262L940.952 252.168C941.845 251.435 941.977 250.089 941.244 249.197L881.138 176.045C880.406 175.154 879.06 175.023 878.168 175.756L875.619 177.85C874.748 178.608 874.595 179.929 875.327 180.82Z" fill="#B3B3B3"/>
<path d="M882.792 174.685L942.898 247.837C943.631 248.728 944.977 248.86 945.869 248.127L948.417 246.032C949.309 245.299 949.442 243.954 948.709 243.062L888.603 169.91C887.871 169.019 886.525 168.887 885.633 169.62L883.084 171.715C882.213 172.473 882.06 173.793 882.792 174.685Z" fill="#B3B3B3"/>
<path d="M890.62 168.257L950.726 241.408C951.458 242.3 952.804 242.431 953.696 241.698L955.531 240.19C956.423 239.457 956.556 238.112 955.823 237.22L895.717 164.068C894.985 163.177 893.639 163.045 892.747 163.778L890.912 165.286C890.04 166.045 889.887 167.365 890.62 168.257Z" fill="#B3B3B3"/>
<path d="M675.805 -0.292282C613.676 -27.3662 613.499 -14.8258 620.149 -21.5062C626.357 -24.6036 656.946 -34.6439 703.447 -5.68967C736.631 14.9729 745.956 36.7587 749.613 55.731C750.21 63.3123 748.283 72.0919 746.904 77.5436C743.943 89.2515 737.933 26.7816 675.805 -0.292282Z" fill="#EEEEEE" fill-opacity="0.96"/>
<path d="M754.366 90.4086C754.366 91.1212 763.373 117.42 766.682 117.42C769.99 117.42 767.521 96.7699 767.345 93.4038C767.136 89.41 760.356 55.4643 755.364 75.4326C752.35 86.3337 754.366 89.6959 754.366 90.4086Z" fill="#EEEEEE" fill-opacity="0.95"/>
<circle r="46.9251" transform="matrix(-1 0 0 1 700.505 335.849)" stroke="#E6E6E6" stroke-width="1.99681"/>
<path d="M685.331 314.013L672.349 317.222L701.912 370.518L701.851 348.446L685.331 314.013ZM703.827 309.441L704.571 369.86L715.286 367.212L716.771 306.241L703.827 309.441Z" fill="#DF9E15"/>
</g>
</g>
<defs>
<clipPath id="clip0_30_24">
<rect width="1000" height="652" fill="white"/>
</clipPath>
</defs>
</svg>
