<svg width="1600" height="1047" viewBox="0 0 1600 1047" fill="none" xmlns="http://www.w3.org/2000/svg">
<g clip-path="url(#clip0_16_221)">
<path d="M144.769 64.1391C-5.23295 56.9526 -52.6568 29.0037 -60.6932 11.3092V975.776C27.1242 1001.44 258.349 1051.54 480.708 1046.67C758.658 1040.58 857.14 979.099 1070.6 975.776C1284.06 972.453 1316.56 984.638 1442.03 1014.55C1542.42 1038.47 1605.84 1024.51 1625 1014.55V1.00018C1543.18 30.5388 1343.85 90.5023 1201.08 94.047C1022.61 98.4778 705.667 1.00018 546.196 1.00018C386.725 1.00018 329.736 73.0007 144.769 64.1391Z" fill="url(#paint0_linear_16_221)"/>
<g filter="url(#filter0_d_16_221)">
<path d="M147.769 113.741C-2.23295 107.283 -49.6568 82.1659 -57.6932 66.2646V932.994C30.1242 956.055 261.349 1001.08 483.708 996.702C761.658 991.228 860.14 935.98 1073.6 932.994C1287.06 930.008 1319.56 940.957 1445.03 967.835C1545.42 989.336 1608.84 976.794 1628 967.835V57.0002C1546.18 83.5455 1346.85 137.432 1204.08 140.618C1025.61 144.6 708.667 57.0002 549.196 57.0002C389.725 57.0002 332.736 121.704 147.769 113.741Z" fill="url(#paint1_linear_16_221)"/>
</g>
<ellipse rx="1.46095" ry="1.35031" transform="matrix(0.87193 0.489631 -0.695885 0.718153 383.506 321.874)" fill="white" fill-opacity="0.3"/>
<ellipse rx="1.46095" ry="1.35031" transform="matrix(0.87193 0.489631 -0.695885 0.718153 335.787 676.106)" fill="white" fill-opacity="0.3"/>
<ellipse rx="1.85347" ry="1.7131" transform="matrix(0.87193 0.489631 -0.695885 0.718153 532.309 154.666)" fill="white" fill-opacity="0.3"/>
<ellipse rx="1.601" ry="1.95111" transform="matrix(-0.457979 0.888963 -0.958206 -0.28608 190.923 511.73)" fill="white" fill-opacity="0.3"/>
<ellipse cx="336.128" cy="496.624" rx="1.58292" ry="0.803345" fill="white" fill-opacity="0.3"/>
<ellipse rx="1.46095" ry="0.900207" transform="matrix(0.87193 0.489631 -0.695885 0.718153 457.583 403.916)" fill="white" fill-opacity="0.3"/>
<ellipse rx="1.85347" ry="1.14207" transform="matrix(0.87193 0.489631 -0.695885 0.718153 30.9503 511.864)" fill="white" fill-opacity="0.3"/>
<ellipse rx="1.85347" ry="1.14207" transform="matrix(0.87193 0.489631 -0.695885 0.718153 203.181 151.701)" fill="white" fill-opacity="0.3"/>
<ellipse cx="567.028" cy="453.296" rx="1.05528" ry="1.20502" fill="white" fill-opacity="0.3"/>
<ellipse rx="0.973967" ry="1.35031" transform="matrix(0.87193 0.489631 -0.695885 0.718153 438.072 470.124)" fill="white" fill-opacity="0.3"/>
<ellipse rx="1.46095" ry="1.35031" transform="matrix(0.87193 0.489631 -0.695885 0.718153 385.889 378.212)" fill="white" fill-opacity="0.3"/>
<ellipse rx="1.46095" ry="1.35031" transform="matrix(0.87193 0.489631 -0.695885 0.718153 603.463 495.637)" fill="white" fill-opacity="0.3"/>
<ellipse rx="1.85347" ry="1.7131" transform="matrix(0.87193 0.489631 -0.695885 0.718153 43.797 755.542)" fill="white" fill-opacity="0.3"/>
<ellipse rx="1.85347" ry="1.7131" transform="matrix(0.87193 0.489631 -0.695885 0.718153 245.078 132.365)" fill="white" fill-opacity="0.3"/>
<ellipse rx="1.85347" ry="1.7131" transform="matrix(0.87193 0.489631 -0.695885 0.718153 205.652 707.363)" fill="white" fill-opacity="0.3"/>
<ellipse rx="1.85347" ry="1.7131" transform="matrix(0.87193 0.489631 -0.695885 0.718153 347.787 932.465)" fill="white" fill-opacity="0.3"/>
<ellipse rx="1.85347" ry="1.7131" transform="matrix(0.87193 0.489631 -0.695885 0.718153 99.8244 936.415)" fill="white" fill-opacity="0.3"/>
<ellipse rx="1.85347" ry="1.7131" transform="matrix(0.87193 0.489631 -0.695885 0.718153 1075.1 945.103)" fill="white" fill-opacity="0.3"/>
<ellipse rx="1.85347" ry="1.7131" transform="matrix(0.87193 0.489631 -0.695885 0.718153 684.985 950.632)" fill="white" fill-opacity="0.3"/>
<ellipse rx="2.47129" ry="2.28413" transform="matrix(0.87193 0.489631 -0.695885 0.718153 409.938 146.505)" fill="white" fill-opacity="0.3"/>
<ellipse rx="1.46095" ry="1.35031" transform="matrix(0.87193 0.489631 -0.695885 0.718153 470.658 334.511)" fill="white" fill-opacity="0.3"/>
<ellipse rx="1.46095" ry="1.35031" transform="matrix(0.87193 0.489631 -0.695885 0.718153 334.75 614.112)" fill="white" fill-opacity="0.3"/>
<ellipse rx="1.85347" ry="1.7131" transform="matrix(0.87193 0.489631 -0.695885 0.718153 131.988 723.949)" fill="white" fill-opacity="0.3"/>
<ellipse rx="1.85347" ry="1.7131" transform="matrix(0.87193 0.489631 -0.695885 0.718153 253.379 909.56)" fill="white" fill-opacity="0.3"/>
<ellipse rx="1.85347" ry="1.7131" transform="matrix(0.87193 0.489631 -0.695885 0.718153 26.1603 953.001)" fill="white" fill-opacity="0.3"/>
<ellipse rx="1.85347" ry="1.7131" transform="matrix(0.87193 0.489631 -0.695885 0.718153 979.645 986.174)" fill="white" fill-opacity="0.3"/>
<ellipse rx="1.85347" ry="1.7131" transform="matrix(0.87193 0.489631 -0.695885 0.718153 967.194 907.191)" fill="white" fill-opacity="0.3"/>
<ellipse rx="1.85347" ry="1.7131" transform="matrix(0.87193 0.489631 -0.695885 0.718153 1505.68 971.167)" fill="white" fill-opacity="0.3"/>
<ellipse rx="1.85347" ry="1.7131" transform="matrix(0.87193 0.489631 -0.695885 0.718153 611.32 967.218)" fill="white" fill-opacity="0.3"/>
<ellipse rx="1.85347" ry="1.7131" transform="matrix(0.87193 0.489631 -0.695885 0.718153 566.707 994.862)" fill="white" fill-opacity="0.3"/>
<ellipse rx="1.94793" ry="1.80041" transform="matrix(0.87193 0.489631 -0.695885 0.718153 137.319 560.965)" fill="white" fill-opacity="0.3"/>
<ellipse rx="2.47129" ry="2.28413" transform="matrix(0.87193 0.489631 -0.695885 0.718153 105.868 378.715)" fill="white" fill-opacity="0.3"/>
<ellipse rx="1.46095" ry="1.35031" transform="matrix(0.87193 0.489631 -0.695885 0.718153 1543.47 313.975)" fill="white" fill-opacity="0.3"/>
<ellipse rx="1.85347" ry="1.7131" transform="matrix(0.87193 0.489631 -0.695885 0.718153 1057.47 413.157)" fill="white" fill-opacity="0.3"/>
<ellipse rx="1.85347" ry="1.7131" transform="matrix(0.87193 0.489631 -0.695885 0.718153 1159.19 486.64)" fill="white" fill-opacity="0.3"/>
<ellipse cx="1359.2" cy="99.4376" rx="1.58292" ry="0.803345" fill="white" fill-opacity="0.3"/>
<ellipse rx="1.46095" ry="0.900207" transform="matrix(0.87193 0.489631 -0.695885 0.718153 1498.55 727.957)" fill="white" fill-opacity="0.3"/>
<ellipse rx="1.85347" ry="1.14207" transform="matrix(0.87193 0.489631 -0.695885 0.718153 1283.25 231.474)" fill="white" fill-opacity="0.3"/>
<ellipse rx="1.601" ry="1.30074" transform="matrix(-0.457979 0.888963 -0.958206 -0.28608 1378.27 28.555)" fill="white" fill-opacity="0.3"/>
<ellipse cx="1542.61" cy="467.23" rx="1.05528" ry="1.20502" fill="white" fill-opacity="0.3"/>
<ellipse rx="1.23564" ry="1.7131" transform="matrix(0.87193 0.489631 -0.695885 0.718153 1453.26 605.962)" fill="white" fill-opacity="0.3"/>
<ellipse rx="1.06733" ry="1.95111" transform="matrix(-0.457979 0.888963 -0.958206 -0.28608 1333 506.905)" fill="white" fill-opacity="0.3"/>
<ellipse cx="1418.57" cy="548.962" rx="1.58292" ry="1.20502" fill="white" fill-opacity="0.3"/>
<ellipse rx="1.46095" ry="1.35031" transform="matrix(0.87193 0.489631 -0.695885 0.718153 1465.97 107.428)" fill="white" fill-opacity="0.3"/>
<ellipse rx="1.46095" ry="1.35031" transform="matrix(0.87193 0.489631 -0.695885 0.718153 1447.5 774.046)" fill="white" fill-opacity="0.3"/>
<ellipse rx="1.85347" ry="1.7131" transform="matrix(0.87193 0.489631 -0.695885 0.718153 1209.84 419.159)" fill="white" fill-opacity="0.3"/>
<ellipse rx="1.85347" ry="1.7131" transform="matrix(0.87193 0.489631 -0.695885 0.718153 710.922 442.381)" fill="white" fill-opacity="0.3"/>
<ellipse rx="1.85347" ry="1.7131" transform="matrix(0.87193 0.489631 -0.695885 0.718153 803.262 484.242)" fill="white" fill-opacity="0.3"/>
<ellipse rx="2.47129" ry="2.28413" transform="matrix(0.87193 0.489631 -0.695885 0.718153 873.714 536.294)" fill="white" fill-opacity="0.3"/>
<ellipse rx="2.47129" ry="2.28413" transform="matrix(0.87193 0.489631 -0.695885 0.718153 1186.02 234.177)" fill="white" fill-opacity="0.3"/>
<ellipse rx="1.46095" ry="1.35031" transform="matrix(0.87193 0.489631 -0.695885 0.718153 1372.28 333.32)" fill="white" fill-opacity="0.3"/>
<ellipse rx="1.46095" ry="1.35031" transform="matrix(0.87193 0.489631 -0.695885 0.718153 1579.79 718.758)" fill="white" fill-opacity="0.3"/>
<ellipse rx="1.46095" ry="1.35031" transform="matrix(0.87193 0.489631 -0.695885 0.718153 1555.92 662.635)" fill="white" fill-opacity="0.3"/>
<ellipse rx="1.85347" ry="1.7131" transform="matrix(0.87193 0.489631 -0.695885 0.718153 808.451 579.812)" fill="white" fill-opacity="0.3"/>
<ellipse rx="1.37869" ry="1.68019" transform="matrix(-0.457979 0.888963 -0.958206 -0.28608 1435.6 466.778)" fill="white" fill-opacity="0.3"/>
<ellipse rx="1.94793" ry="1.80041" transform="matrix(0.87193 0.489631 -0.695885 0.718153 1254.74 633.183)" fill="white" fill-opacity="0.3"/>
<path d="M439.531 212.452L440.358 218.186L446.326 219.053L440.869 221.73L441.696 227.464L437.496 223.385L432.039 226.062L434.901 220.863L430.701 216.784L436.669 217.65L439.531 212.452Z" fill="url(#paint2_linear_16_221)" fill-opacity="0.8"/>
<path d="M88.7788 379.344L86.2017 386.663L92.6011 391.083L84.6089 391.186L82.0318 398.505L79.6694 391.25L71.6772 391.354L78.2094 386.767L75.8471 379.512L82.2466 383.931L88.7788 379.344Z" fill="url(#paint3_linear_16_221)" fill-opacity="0.8"/>
<path d="M317.491 1011.53L323.222 1012.38L325.759 1006.91L326.765 1012.9L332.496 1013.75L327.386 1016.6L328.392 1022.6L324.228 1018.37L319.119 1021.23L321.655 1015.76L317.491 1011.53Z" fill="url(#paint4_linear_16_221)" fill-opacity="0.8"/>
<path d="M1187.86 548.79L1193.59 549.636L1196.13 544.165L1197.14 550.159L1202.87 551.005L1197.76 553.864L1198.76 559.859L1194.6 555.631L1189.49 558.489L1192.03 553.018L1187.86 548.79Z" fill="url(#paint5_linear_16_221)" fill-opacity="0.8"/>
<path d="M839.095 690.029L839.602 684.257L833.991 682.048L839.916 680.691L840.423 674.919L843.578 679.852L849.503 678.495L845.527 682.9L848.682 687.833L843.07 685.623L839.095 690.029Z" fill="url(#paint6_linear_16_221)" fill-opacity="0.8"/>
<path d="M76.511 836.029L77.0184 830.257L71.407 828.048L77.332 826.691L77.8394 820.919L80.9938 825.852L86.9188 824.495L82.9433 828.9L86.0978 833.833L80.4864 831.623L76.511 836.029Z" fill="url(#paint7_linear_16_221)" fill-opacity="0.8"/>
<path d="M424.095 793.029L424.602 787.257L418.991 785.048L424.916 783.691L425.423 777.919L428.578 782.852L434.503 781.495L430.527 785.9L433.682 790.833L428.07 788.623L424.095 793.029Z" fill="url(#paint8_linear_16_221)" fill-opacity="0.8"/>
<path d="M1034.09 844.029L1034.6 838.257L1028.99 836.048L1034.92 834.691L1035.42 828.919L1038.58 833.852L1044.5 832.495L1040.53 836.9L1043.68 841.833L1038.07 839.623L1034.09 844.029Z" fill="url(#paint9_linear_16_221)" fill-opacity="0.8"/>
<path d="M1371.09 750.028L1371.6 744.257L1365.99 742.047L1371.92 740.69L1372.42 734.919L1375.58 739.851L1381.5 738.494L1377.53 742.9L1380.68 747.833L1375.07 745.623L1371.09 750.028Z" fill="url(#paint10_linear_16_221)" fill-opacity="0.8"/>
<path d="M1475.55 285.057L1478.21 290.202L1484.14 289.063L1479.86 293.382L1482.52 298.528L1477.22 296.052L1472.94 300.371L1473.94 294.522L1468.63 292.045L1474.55 290.906L1475.55 285.057Z" fill="url(#paint11_linear_16_221)" fill-opacity="0.6"/>
<path d="M1513 405.049L1518.76 410.251L1525.31 406.052L1522.32 413.465L1528.08 418.667L1520.47 418.047L1517.48 425.461L1515.77 417.664L1508.17 417.045L1514.71 412.846L1513 405.049Z" fill="url(#paint12_linear_16_221)" fill-opacity="0.6"/>
<path d="M1100.84 142.602L1102.21 147.283L1107.68 147.034L1103.05 150.176L1104.42 154.857L1100.19 152.118L1095.56 155.26L1097.58 150.425L1093.35 147.686L1098.82 147.437L1100.84 142.602Z" fill="url(#paint13_linear_16_221)" fill-opacity="0.8"/>
<path d="M490.473 29.3422L491.841 34.0236L497.312 33.7745L492.686 36.9168L494.053 41.5982L489.826 38.8589L485.2 42.0012L487.214 37.1659L482.987 34.4266L488.459 34.1775L490.473 29.3422Z" fill="url(#paint14_linear_16_221)" fill-opacity="0.8"/>
<path d="M1571.82 803.34L1571.77 814.423L1582.48 817.387L1571.74 821.272L1571.69 832.355L1565.11 823.673L1554.37 827.558L1561.04 818.307L1554.45 809.625L1565.15 812.59L1571.82 803.34Z" fill="url(#paint15_linear_16_221)"/>
<path d="M1219.78 332.948L1216.1 343.402L1225.24 349.715L1213.83 349.863L1210.15 360.317L1206.77 349.954L1195.36 350.102L1204.69 343.55L1201.31 333.188L1210.45 339.5L1219.78 332.948Z" fill="url(#paint16_linear_16_221)"/>
<path d="M813.93 160.089L824.613 156.086L823.972 145.207L831.216 153.612L841.899 149.608L835.693 158.806L842.937 167.21L831.857 164.49L825.651 173.688L825.01 162.809L813.93 160.089Z" fill="url(#paint17_linear_16_221)"/>
<path d="M546.254 878.089L556.937 874.086L556.296 863.207L563.54 871.612L574.224 867.608L568.017 876.806L575.262 885.21L564.182 882.49L557.975 891.688L557.334 880.809L546.254 878.089Z" fill="url(#paint18_linear_16_221)"/>
<path d="M1367.25 964.089L1377.94 960.086L1377.3 949.207L1384.54 957.612L1395.22 953.608L1389.02 962.806L1396.26 971.21L1385.18 968.49L1378.98 977.688L1378.33 966.809L1367.25 964.089Z" fill="url(#paint19_linear_16_221)"/>
<path d="M900.254 901.089L910.937 897.086L910.296 886.207L917.54 894.612L928.224 890.608L922.017 899.806L929.262 908.21L918.182 905.49L911.975 914.688L911.334 903.809L900.254 901.089Z" fill="url(#paint20_linear_16_221)"/>
<path d="M1499.25 53.0893L1509.94 49.0859L1509.3 38.2072L1516.54 46.6117L1527.22 42.6083L1521.02 51.8059L1528.26 60.2104L1517.18 57.4904L1510.98 66.688L1510.33 55.8093L1499.25 53.0893Z" fill="url(#paint21_linear_16_221)"/>
<path d="M201.069 652.264L201.021 663.347L211.727 666.312L200.992 670.196L200.944 681.279L194.357 672.597L183.622 676.482L190.286 667.232L183.699 658.549L194.405 661.514L201.069 652.264Z" fill="url(#paint22_linear_16_221)"/>
<circle r="1.52566" transform="matrix(-0.719248 0.694754 0.694754 0.719248 1154.16 298.664)" fill="#FBA10D" fill-opacity="0.2"/>
<circle r="1.52566" transform="matrix(-0.804743 0.593623 0.593623 0.804743 1045.77 155.394)" fill="#FBA10D" fill-opacity="0.2"/>
<ellipse rx="1.93556" ry="1.29038" transform="matrix(-0.804743 0.593623 0.593623 0.804743 1324.74 731.938)" fill="#FBA10D" fill-opacity="0.2"/>
<ellipse rx="1.01711" ry="1.52566" transform="matrix(-1 0 0 1 870.827 864.503)" fill="#FBA10D" fill-opacity="0.2"/>
<ellipse rx="1.01711" ry="1.52566" transform="matrix(-0.804743 0.593623 0.593623 0.804743 995.095 886.09)" fill="#FBA10D" fill-opacity="0.2"/>
<circle r="1.52566" transform="matrix(-0.804743 0.593623 0.593623 0.804743 889.928 505.394)" fill="#FBA10D" fill-opacity="0.2"/>
<circle r="2.58075" transform="matrix(-0.804743 0.593623 0.593623 0.804743 1394.98 398.868)" fill="#FBA10D" fill-opacity="0.2"/>
<circle r="1.52566" transform="matrix(-0.804743 0.593623 0.593623 0.804743 961.772 171.394)" fill="#FBA10D" fill-opacity="0.2"/>
<circle r="2.58075" transform="matrix(-0.36687 0.930272 0.930272 0.36687 1395.39 176.59)" fill="#FBA10D" fill-opacity="0.2"/>
<circle r="1.93556" transform="matrix(0.365113 0.930963 0.930963 -0.365113 178.546 512.205)" fill="#FBA10D" fill-opacity="0.2"/>
<circle r="1.93556" transform="matrix(0.365113 0.930963 0.930963 -0.365113 492.882 745.768)" fill="#FBA10D" fill-opacity="0.2"/>
<circle r="1.93556" transform="matrix(0.365113 0.930963 0.930963 -0.365113 214.874 910.768)" fill="#FBA10D" fill-opacity="0.2"/>
<circle r="1.93556" transform="matrix(0.365113 0.930963 0.930963 -0.365113 363.514 898.509)" fill="#FBA10D" fill-opacity="0.2"/>
<circle r="1.93556" transform="matrix(0.365113 0.930963 0.930963 -0.365113 440.882 850.768)" fill="#FBA10D" fill-opacity="0.2"/>
<circle r="1.93556" transform="matrix(0.365113 0.930963 0.930963 -0.365113 632.88 932.768)" fill="#FBA10D" fill-opacity="0.2"/>
<circle r="1.93556" transform="matrix(0.365113 0.930963 0.930963 -0.365113 1242.88 817.768)" fill="#FBA10D" fill-opacity="0.2"/>
<circle r="1.93556" transform="matrix(0.365113 0.930963 0.930963 -0.365113 1509.88 984.768)" fill="#FBA10D" fill-opacity="0.2"/>
<circle r="1.93556" transform="matrix(0.365113 0.930963 0.930963 -0.365113 669.88 803.768)" fill="#FBA10D" fill-opacity="0.2"/>
<circle r="1.93556" transform="matrix(0.365113 0.930963 0.930963 -0.365113 92.8739 962.768)" fill="#FBA10D" fill-opacity="0.2"/>
<circle r="1.93556" transform="matrix(0.365113 0.930963 0.930963 -0.365113 288.874 821.768)" fill="#FBA10D" fill-opacity="0.2"/>
<circle r="1.93556" transform="matrix(0.365113 0.930963 0.930963 -0.365113 824.88 801.768)" fill="#FBA10D" fill-opacity="0.2"/>
<circle r="1.93556" transform="matrix(0.365113 0.930963 0.930963 -0.365113 1120.88 915.768)" fill="#FBA10D" fill-opacity="0.2"/>
<ellipse rx="1.52566" ry="1.01711" transform="matrix(-1 0 0 1 114.373 269.277)" fill="#FBA10D" fill-opacity="0.2"/>
<circle r="2.03422" transform="matrix(-0.804743 0.593623 0.593623 0.804743 4.20921 351.105)" fill="#FBA10D" fill-opacity="0.2"/>
<circle r="1.52566" transform="matrix(-0.804743 0.593623 0.593623 0.804743 22.9201 740.829)" fill="#FBA10D" fill-opacity="0.2"/>
<mask id="mask0_16_221" style="mask-type:alpha" maskUnits="userSpaceOnUse" x="-28" y="219" width="469" height="397">
<path d="M-27.1348 361.76L-16.6348 615.26L280.365 559.26L439.865 316.76L379.865 220.26H235.365C211.199 221.093 159.465 227.26 145.865 245.26C128.865 267.76 27.3652 319.76 7.36523 323.76C-8.63477 326.96 -9.4681 349.926 -27.1348 361.76Z" fill="#C4C4C4" stroke="black"/>
</mask>
<g mask="url(#mask0_16_221)">
<path d="M131.326 374.763C190.888 360.046 215.826 381.151 189.634 420.16C163.441 459.17 94.6051 503.444 35.0426 518.161C-24.5198 532.878 -49.458 511.774 -23.2655 472.765C2.92702 433.755 71.7632 389.481 131.326 374.763Z" stroke="#493A54" stroke-opacity="0.1" stroke-width="7"/>
<ellipse rx="26.5522" ry="33.4337" transform="matrix(0.557441 -0.830217 0.970804 -0.239872 89.6241 437.323)" fill="#493A54" fill-opacity="0.1"/>
<path d="M162.876 325.009C259.771 301.068 301.173 335.248 257.956 399.613C214.738 463.978 101.837 536.285 4.94104 560.227C-91.9546 584.168 -133.356 549.987 -90.1389 485.623C-46.9218 421.258 65.9801 348.951 162.876 325.009Z" stroke="#493A54" stroke-opacity="0.1" stroke-width="7"/>
<path d="M202.033 259.449C343.189 224.571 404.109 274.256 340.708 368.681C277.307 463.106 112.163 568.648 -28.9939 603.525C-170.15 638.403 -231.07 588.719 -167.669 494.294C-104.268 399.869 60.8763 294.327 202.033 259.449Z" stroke="#493A54" stroke-opacity="0.1" stroke-width="7"/>
</g>
<mask id="mask1_16_221" style="mask-type:alpha" maskUnits="userSpaceOnUse" x="1340" y="776" width="244" height="160">
<path d="M1583.61 804.745L1365.11 776.745L1340.61 872.245L1583.61 935.245L1583.61 804.745Z" fill="#C4C4C4"/>
</mask>
<g mask="url(#mask1_16_221)">
<path d="M1519.43 853.308C1539.18 865.436 1539.42 877.258 1523.04 880.35C1506.66 883.442 1477.34 877.109 1457.59 864.981C1437.84 852.854 1437.6 841.031 1453.97 837.939C1470.35 834.847 1499.68 841.181 1519.43 853.308Z" stroke="#493A54" stroke-opacity="0.1" stroke-width="7"/>
<ellipse rx="10.331" ry="13.0085" transform="matrix(0.982644 -0.185502 0.852169 0.523266 1492.8 858.434)" fill="#493A54" fill-opacity="0.1"/>
<path d="M1541.83 848.468C1574.33 868.425 1575.45 888.382 1547.39 893.678C1519.34 898.974 1470.21 888.081 1437.71 868.124C1405.21 848.167 1404.1 828.211 1432.15 822.914C1460.21 817.618 1509.33 828.512 1541.83 848.468Z" stroke="#493A54" stroke-opacity="0.1" stroke-width="7"/>
<path d="M1570.7 841.421C1618.32 870.66 1620.46 900.26 1578.56 908.17C1536.67 916.079 1464.06 899.78 1416.45 870.541C1368.83 841.301 1366.68 811.702 1408.58 803.792C1450.48 795.882 1523.08 812.182 1570.7 841.421Z" stroke="#493A54" stroke-opacity="0.1" stroke-width="7"/>
</g>
<mask id="mask2_16_221" style="mask-type:alpha" maskUnits="userSpaceOnUse" x="-41" y="57" width="1687" height="941">
<path d="M165.769 113.742C15.7671 107.283 -31.6568 82.1669 -39.6932 66.2655V932.995C48.1242 956.056 279.349 1001.08 501.708 996.703C779.658 991.228 878.14 935.981 1091.6 932.995C1305.06 930.008 1337.56 940.958 1463.03 967.835C1563.42 989.337 1626.84 976.795 1646 967.835V57.0012C1564.18 83.5465 1364.85 137.433 1222.08 140.619C1043.61 144.601 726.667 57.0012 567.196 57.0012C407.725 57.0012 350.736 121.705 165.769 113.742Z" fill="url(#paint23_linear_16_221)"/>
</mask>
<g mask="url(#mask2_16_221)">
<circle cx="1025.75" cy="887.195" r="268.822" fill="#9E8EFF"/>
<mask id="mask3_16_221" style="mask-type:alpha" maskUnits="userSpaceOnUse" x="756" y="618" width="539" height="539">
<circle cx="1025.75" cy="887.195" r="264.322" fill="#FE9695" stroke="#6A72B4" stroke-width="9"/>
</mask>
<g mask="url(#mask3_16_221)">
<circle cx="1049.95" cy="753.421" r="25.4808" fill="#FFCE8E"/>
<rect x="1128.94" y="745.776" width="38.2212" height="20.3846" rx="6" fill="#FFCE8E"/>
<rect x="1185" y="753.421" width="86.6347" height="12.7404" rx="6" fill="#FFCE8E"/>
<path d="M721.25 815.931C721.25 810.96 725.279 806.931 730.25 806.931H908.607C910.79 806.931 912.899 807.724 914.54 809.163L960.312 849.29C961.954 850.729 964.062 851.522 966.245 851.522H1197.59C1200.95 851.522 1204.03 849.653 1205.57 846.673L1221.84 815.38C1223.33 812.518 1226.24 810.671 1229.46 810.539L1308.13 807.315C1313.24 807.105 1317.5 811.192 1317.5 816.307V864.181C1317.5 869.151 1313.47 873.181 1308.5 873.181H730.25C725.279 873.181 721.25 869.151 721.25 864.181V815.931Z" fill="#FFCE8E"/>
<rect x="756.924" y="885.921" width="267.548" height="33.125" rx="9" fill="#FFCE8E"/>
<rect x="1049.95" y="901.209" width="78.9904" height="15.2885" rx="6" fill="#FFCE8E"/>
<path d="M1145.18 1042.83C1157.92 1040.19 1169.75 1034.28 1179.5 1025.68L1183.8 1021.88C1185.41 1020.46 1186.57 1018.58 1187.13 1016.5V1016.5C1189.75 1006.68 1197.49 999.054 1207.35 996.589L1228.44 991.317C1250.59 985.779 1273.98 988.156 1294.57 998.037V998.037V1061.74H1097.39C1092.3 1061.74 1088.17 1057.61 1088.17 1052.52V1052.52C1088.17 1046.6 1093.38 1042.03 1099.25 1042.78L1122.91 1045.84C1126.06 1046.24 1129.26 1046.12 1132.37 1045.48L1145.18 1042.83Z" fill="#FFCE8E"/>
</g>
<path d="M862.931 1066.9C845.039 1049.86 866.677 1024.22 891.045 1028.34C904.637 1030.64 918.604 1031.84 932.851 1031.84C1070.16 1031.84 1181.48 920.593 1181.48 783.364C1181.48 770.892 1180.56 758.636 1178.78 746.657C1175.16 722.224 1201.27 701.127 1217.94 719.356C1258.38 763.545 1269.13 822.386 1269.13 886.984C1269.13 1024.21 1157.82 1135.46 1020.51 1135.46C954.022 1135.46 907.542 1109.38 862.931 1066.9Z" fill="#300B00" fill-opacity="0.4"/>
<path fill-rule="evenodd" clip-rule="evenodd" d="M760.525 928.393C758.151 916.741 756.924 903.111 756.924 887.196C756.924 884.611 756.961 882.035 757.034 879.468C683.891 930.644 644.537 984.51 657.417 1027.37C681.719 1108.23 882.782 1119.27 1106.5 1052.04C1330.22 984.802 1491.88 864.744 1467.58 783.881C1451.63 730.795 1359.49 707.799 1234.78 717.288C1243.29 727.584 1251.05 738.524 1257.97 750.025C1331.91 751.664 1383.78 770.628 1394.37 805.883C1414.22 871.921 1281.73 970.11 1098.44 1025.2C915.146 1080.28 750.472 1071.4 730.625 1005.36C723.758 982.516 735.127 955.821 760.525 928.393Z" fill="url(#paint24_radial_16_221)"/>
<ellipse cx="1012.56" cy="779.384" rx="108.006" ry="40.1723" transform="rotate(2.39758 1012.56 779.384)" fill="#725A99" fill-opacity="0.67"/>
</g>
<path d="M1397.83 436.8C1458.98 424.853 1498.87 365.572 1486.92 304.392C1474.97 243.212 1415.7 203.3 1354.55 215.247C1293.4 227.193 1253.51 286.475 1265.46 347.655C1277.41 408.835 1336.68 448.747 1397.83 436.8Z" fill="#2A3347"/>
<path d="M1483.95 289.322C1494.9 345.401 1462.3 399.897 1409.71 417.786C1404.94 419.396 1399.98 420.729 1394.89 421.725C1387.38 423.192 1379.9 423.871 1372.54 423.848C1319.89 423.543 1273 386.247 1262.52 332.58C1252.71 282.38 1277.83 233.443 1320.95 210.907C1330.37 205.989 1340.66 202.336 1351.61 200.197C1358.42 198.867 1365.22 198.19 1371.9 198.11C1425.35 197.425 1473.33 234.976 1483.95 289.322Z" fill="#70C4CB"/>
<path d="M1483.95 289.322C1494.9 345.401 1462.3 399.896 1409.71 417.786C1409 413.385 1408.17 408.958 1407.28 406.81C1405.18 401.795 1402.8 390.157 1401.82 385.679C1400.84 381.201 1401.32 362.693 1401.32 362.693C1401.32 362.693 1402.05 342.021 1400.12 333.869C1398.19 325.742 1389.67 312.123 1389.67 312.123C1389.67 312.123 1377.57 298.367 1373.68 293.936C1369.79 289.53 1364.52 284.586 1362.09 276.662C1359.66 268.764 1362.61 261.98 1362.71 257.005C1362.78 252.06 1369.22 238.699 1368.68 229.65C1368.26 222.951 1370.64 206.313 1371.9 198.11C1425.35 197.425 1473.33 234.976 1483.95 289.322Z" fill="#BED35A"/>
<path d="M1372.54 423.848C1319.89 423.543 1273 386.247 1262.52 332.58C1252.71 282.38 1277.83 233.444 1320.95 210.907C1317.28 223.467 1311.18 243.883 1308.71 249.816C1305.03 258.57 1287.99 270.401 1286.94 281.587C1285.92 292.768 1298.11 311.801 1303.3 315.249C1308.45 318.677 1321.52 321.392 1331.34 327.09C1341.16 332.763 1349.41 338.975 1352.36 346.068C1355.28 353.14 1355.25 372.032 1354.37 376.742C1353.46 381.458 1350.61 384.181 1351.73 390.587C1352.87 396.989 1363.75 405.819 1367.61 412.785C1369.14 415.538 1370.93 419.729 1372.54 423.848Z" fill="#BED35A"/>
<path opacity="0.4" d="M1320.32 223.556C1370.61 192.978 1435.28 206.415 1469.61 252.895L1470.02 252.643C1437.65 199.373 1368.25 182.432 1315.01 214.805C1261.76 247.178 1244.84 316.607 1277.21 369.877L1277.62 369.624C1252.16 317.76 1270.03 254.134 1320.32 223.556Z" fill="white"/>
<path d="M931.764 775.16L961.762 781.255C969.52 782.831 977.071 777.82 978.643 770.083L992.268 703.032C993.843 695.279 988.827 687.731 981.086 686.158L951.087 680.063C943.33 678.486 935.779 683.498 934.207 691.234L920.582 758.286C919.01 766.022 924.023 773.587 931.764 775.16Z" fill="#E6E6E6"/>
<path d="M1073.62 687.606L958.424 680.697C928.771 678.918 906.161 653.44 907.939 623.805L910.757 576.817C912.534 547.182 938.027 524.589 967.68 526.367L1082.87 533.276C1112.53 535.055 1135.14 560.533 1133.36 590.168L1130.54 637.156C1128.76 666.791 1103.27 689.384 1073.62 687.606Z" fill="#5A227C"/>
<path d="M1060.31 789.935L1090.82 787.352C1098.7 786.684 1104.54 779.752 1103.88 771.885L1098.1 703.707C1097.43 695.824 1090.5 689.991 1082.63 690.658L1052.12 693.241C1044.24 693.909 1038.4 700.841 1039.06 708.708L1044.84 776.886C1045.51 784.752 1052.44 790.602 1060.31 789.935Z" fill="#E6E6E6"/>
<path d="M1023.09 566.188C970.925 563.059 931.168 518.256 934.295 466.119C937.422 413.981 982.249 374.252 1034.42 377.381C1086.59 380.51 1126.35 425.312 1123.22 477.45C1120.09 529.587 1075.26 569.317 1023.09 566.188Z" fill="#CCCCCC"/>
<path d="M1067.36 721.486L964.507 715.317C944.366 714.109 929.031 696.811 930.238 676.699L935.388 590.833C938.231 543.417 978.995 507.29 1026.44 510.135C1076.07 513.112 1113.91 555.733 1110.93 605.349L1106.02 687.242C1104.8 707.353 1087.5 722.694 1067.36 721.486Z" fill="#CCCCCC"/>
<circle cx="1021.8" cy="611.73" r="20" transform="rotate(3.43226 1021.8 611.73)" stroke="#B3B3B3"/>
<path d="M1026.02 601.28L1031.73 601.623L1023.43 626.337L1021.74 617.047L1026.02 601.28ZM1017.88 600.792L1022.26 626.267L1017.55 625.984L1012.19 600.451L1017.88 600.792Z" fill="#DF9E15"/>
<path d="M1024.4 544.418C984.261 542.01 953.672 507.54 956.078 467.425C958.484 427.311 992.973 396.744 1033.11 399.151C1073.25 401.558 1103.84 436.029 1101.43 476.143C1099.03 516.258 1064.54 546.825 1024.4 544.418Z" fill="#2B2A70"/>
<path d="M1075.56 592.587C1074.4 564.324 1085.27 540.926 1099.84 540.327C1114.42 539.727 1127.18 562.153 1128.35 590.416C1129.51 618.679 1118.64 642.076 1104.07 642.676C1089.49 643.275 1076.73 620.85 1075.56 592.587Z" fill="#5A227C"/>
<path d="M934.383 632.49C919.983 630.152 911.986 605.623 916.522 577.702C921.057 549.781 936.408 529.042 950.808 531.379C965.207 533.716 973.204 558.245 968.668 586.166C964.133 614.087 948.783 634.827 934.383 632.49Z" fill="#5A227C"/>
<path d="M1144.5 573.452L1144.06 573.047C1141.5 570.718 1141.31 566.736 1143.64 564.174L1147.36 560.08C1149.69 557.517 1153.68 557.328 1156.24 559.657L1156.68 560.062C1159.25 562.391 1159.43 566.373 1157.1 568.936L1153.38 573.029C1151.05 575.592 1147.07 575.781 1144.5 573.452Z" fill="#CCCCCC"/>
<path d="M1134.63 570.636L1134.04 570.551C1130.61 570.098 1128.17 566.953 1128.61 563.519L1129.32 558.042C1129.77 554.609 1132.92 552.178 1136.35 552.615L1136.94 552.699C1140.38 553.152 1142.81 556.297 1142.37 559.731L1141.66 565.209C1141.23 568.659 1138.06 571.073 1134.63 570.636Z" fill="#CCCCCC"/>
<path d="M1141.27 606.921L1121.37 612.187C1110.62 615.035 1099.57 608.622 1096.74 597.874L1095.68 593.888C1092.83 583.139 1099.24 572.105 1110 569.274L1129.9 564.008C1140.66 561.16 1151.7 567.573 1154.53 578.321L1155.59 582.306C1158.44 593.056 1152.03 604.073 1141.27 606.921Z" fill="#E6E6E6"/>
<path d="M962.371 569.516L949.007 594.962C945.841 601.017 938.348 603.336 932.306 600.172L927.718 597.772C921.659 594.607 919.338 587.119 922.503 581.081L938.27 551.033C941.436 544.978 948.929 542.659 954.971 545.823C963.571 550.326 966.875 560.938 962.371 569.516Z" fill="#CCCCCC"/>
<path d="M991.961 615.778L939.177 612.612C927.448 611.909 918.489 601.831 919.193 590.092L919.305 588.237C920.008 576.514 930.091 567.563 941.837 568.267L994.621 571.433C1006.35 572.136 1015.31 582.214 1014.6 593.953L1014.49 595.808C1013.79 607.53 1003.71 616.482 991.961 615.778Z" fill="#E6E6E6"/>
<path d="M976.535 568.932L973.707 616.084C973.672 616.659 973.167 617.107 972.592 617.072L970.949 616.974C970.374 616.939 969.927 616.434 969.961 615.86L972.789 568.707C972.823 568.133 973.328 567.685 973.903 567.72L975.546 567.818C976.12 567.869 976.569 568.357 976.535 568.932Z" fill="#B3B3B3"/>
<path d="M971.722 568.642L968.894 615.795C968.86 616.369 968.355 616.817 967.78 616.783L966.137 616.684C965.562 616.65 965.114 616.145 965.148 615.57L967.976 568.418C968.011 567.843 968.516 567.395 969.091 567.43L970.734 567.528C971.308 567.579 971.757 568.068 971.722 568.642Z" fill="#B3B3B3"/>
<path d="M966.679 568.34L963.851 615.493C963.817 616.067 963.312 616.515 962.737 616.48L961.554 616.409C960.979 616.375 960.531 615.87 960.565 615.296L963.394 568.143C963.428 567.568 963.933 567.121 964.508 567.155L965.691 567.226C966.265 567.277 966.714 567.765 966.679 568.34Z" fill="#B3B3B3"/>
<path d="M925.05 733.313L984.272 745.346C984.837 745.461 985.21 746.024 985.095 746.588L984.476 749.634C984.361 750.198 983.799 750.571 983.234 750.456L924.012 738.422C923.447 738.307 923.075 737.745 923.189 737.181L923.808 734.134C923.926 733.554 924.485 733.198 925.05 733.313Z" fill="#B3B3B3"/>
<path d="M923.718 739.874L982.94 751.908C983.505 752.022 983.877 752.585 983.763 753.149L983.144 756.195C983.029 756.759 982.466 757.132 981.902 757.017L922.679 744.983C922.115 744.869 921.742 744.306 921.857 743.742L922.476 740.696C922.591 740.132 923.153 739.759 923.718 739.874Z" fill="#B3B3B3"/>
<path d="M922.318 746.756L981.54 758.79C982.105 758.905 982.477 759.467 982.363 760.032L981.871 762.449C981.757 763.013 981.194 763.386 980.63 763.271L921.407 751.237C920.843 751.123 920.47 750.56 920.584 749.996L921.076 747.578C921.194 746.998 921.753 746.642 922.318 746.756Z" fill="#B3B3B3"/>
<path d="M1042.11 751.665L1102.33 746.564C1102.9 746.515 1103.42 746.95 1103.46 747.524L1103.73 750.621C1103.77 751.195 1103.34 751.711 1102.77 751.759L1042.55 756.86C1041.97 756.908 1041.46 756.474 1041.41 755.9L1041.15 752.802C1041.1 752.212 1041.53 751.713 1042.11 751.665Z" fill="#B3B3B3"/>
<path d="M1042.67 758.335L1102.89 753.234C1103.46 753.185 1103.98 753.62 1104.03 754.194L1104.29 757.291C1104.34 757.865 1103.9 758.381 1103.33 758.429L1043.11 763.53C1042.54 763.578 1042.02 763.143 1041.97 762.57L1041.71 759.472C1041.66 758.899 1042.1 758.383 1042.67 758.335Z" fill="#B3B3B3"/>
<path d="M1043.27 765.332L1103.48 760.231C1104.06 760.183 1104.57 760.618 1104.62 761.191L1104.83 763.65C1104.88 764.223 1104.44 764.739 1103.87 764.788L1043.65 769.888C1043.08 769.937 1042.56 769.502 1042.51 768.928L1042.31 766.47C1042.26 765.88 1042.69 765.381 1043.27 765.332Z" fill="#B3B3B3"/>
<path d="M1011.55 419.935C1043.42 408.263 1043.13 414.537 1040.01 410.998C1037 409.264 1022.01 403.328 997.892 416.408C980.684 425.742 975.369 436.353 972.972 445.728C972.446 449.5 973.146 453.946 973.672 456.713C974.801 462.655 979.678 431.606 1011.55 419.935Z" fill="#EEEEEE" fill-opacity="0.96"/>
<path d="M971.043 464.555C971.022 464.912 965.73 477.788 964.077 477.689C962.423 477.59 964.276 467.341 964.465 465.664C964.689 463.673 969.096 446.907 970.993 457.039C972.173 462.579 971.064 464.199 971.043 464.555Z" fill="#EEEEEE" fill-opacity="0.95"/>
</g>
<defs>
<filter id="filter0_d_16_221" x="-84" y="36.0002" width="1737" height="990" filterUnits="userSpaceOnUse" color-interpolation-filters="sRGB">
<feFlood flood-opacity="0" result="BackgroundImageFix"/>
<feColorMatrix in="SourceAlpha" type="matrix" values="0 0 0 0 0 0 0 0 0 0 0 0 0 0 0 0 0 0 127 0" result="hardAlpha"/>
<feOffset dy="4"/>
<feGaussianBlur stdDeviation="12.5"/>
<feColorMatrix type="matrix" values="0 0 0 0 0.104466 0 0 0 0 0.0432952 0 0 0 0 0.154167 0 0 0 1 0"/>
<feBlend mode="normal" in2="BackgroundImageFix" result="effect1_dropShadow_16_221"/>
<feBlend mode="normal" in="SourceGraphic" in2="effect1_dropShadow_16_221" result="shape"/>
</filter>
<linearGradient id="paint0_linear_16_221" x1="-62" y1="-163.371" x2="793.501" y2="1551.47" gradientUnits="userSpaceOnUse">
<stop stop-color="#0C0720"/>
<stop offset="1" stop-color="#340452"/>
</linearGradient>
<linearGradient id="paint1_linear_16_221" x1="-59" y1="-90.714" x2="659.444" y2="1511.8" gradientUnits="userSpaceOnUse">
<stop stop-color="#0C0720"/>
<stop offset="1" stop-color="#340452"/>
</linearGradient>
<linearGradient id="paint2_linear_16_221" x1="433.03" y1="206.091" x2="453.233" y2="212.714" gradientUnits="userSpaceOnUse">
<stop stop-color="#FB7A0D"/>
<stop offset="1" stop-color="#FBAE0D"/>
</linearGradient>
<linearGradient id="paint3_linear_16_221" x1="85.15" y1="368.059" x2="104.631" y2="387.332" gradientUnits="userSpaceOnUse">
<stop stop-color="#FB7A0D"/>
<stop offset="1" stop-color="#FBAE0D"/>
</linearGradient>
<linearGradient id="paint4_linear_16_221" x1="309.538" y1="1015.94" x2="321.658" y2="998.475" gradientUnits="userSpaceOnUse">
<stop stop-color="#FB7A0D"/>
<stop offset="1" stop-color="#FBAE0D"/>
</linearGradient>
<linearGradient id="paint5_linear_16_221" x1="1179.91" y1="553.202" x2="1192.03" y2="535.734" gradientUnits="userSpaceOnUse">
<stop stop-color="#FB7A0D"/>
<stop offset="1" stop-color="#FBAE0D"/>
</linearGradient>
<linearGradient id="paint6_linear_16_221" x1="843.968" y1="697.709" x2="825.817" y2="686.637" gradientUnits="userSpaceOnUse">
<stop stop-color="#FB7A0D"/>
<stop offset="1" stop-color="#FBAE0D"/>
</linearGradient>
<linearGradient id="paint7_linear_16_221" x1="81.3836" y1="843.709" x2="63.2327" y2="832.637" gradientUnits="userSpaceOnUse">
<stop stop-color="#FB7A0D"/>
<stop offset="1" stop-color="#FBAE0D"/>
</linearGradient>
<linearGradient id="paint8_linear_16_221" x1="428.968" y1="800.709" x2="410.817" y2="789.637" gradientUnits="userSpaceOnUse">
<stop stop-color="#FB7A0D"/>
<stop offset="1" stop-color="#FBAE0D"/>
</linearGradient>
<linearGradient id="paint9_linear_16_221" x1="1038.97" y1="851.709" x2="1020.82" y2="840.637" gradientUnits="userSpaceOnUse">
<stop stop-color="#FB7A0D"/>
<stop offset="1" stop-color="#FBAE0D"/>
</linearGradient>
<linearGradient id="paint10_linear_16_221" x1="1375.97" y1="757.708" x2="1357.82" y2="746.637" gradientUnits="userSpaceOnUse">
<stop stop-color="#FB7A0D"/>
<stop offset="1" stop-color="#FBAE0D"/>
</linearGradient>
<linearGradient id="paint11_linear_16_221" x1="1467.32" y1="281.181" x2="1488.58" y2="280.809" gradientUnits="userSpaceOnUse">
<stop stop-color="#FB7A0D"/>
<stop offset="1" stop-color="#FBAE0D"/>
</linearGradient>
<linearGradient id="paint12_linear_16_221" x1="1501.19" y1="404.043" x2="1526.49" y2="393.506" gradientUnits="userSpaceOnUse">
<stop stop-color="#FB7A0D"/>
<stop offset="1" stop-color="#FBAE0D"/>
</linearGradient>
<linearGradient id="paint13_linear_16_221" x1="1094.29" y1="138.323" x2="1112.87" y2="142.208" gradientUnits="userSpaceOnUse">
<stop stop-color="#FB7A0D"/>
<stop offset="1" stop-color="#FBAE0D"/>
</linearGradient>
<linearGradient id="paint14_linear_16_221" x1="483.924" y1="25.0636" x2="502.507" y2="28.9487" gradientUnits="userSpaceOnUse">
<stop stop-color="#FB7A0D"/>
<stop offset="1" stop-color="#FBAE0D"/>
</linearGradient>
<linearGradient id="paint15_linear_16_221" x1="1561.63" y1="789.814" x2="1596.95" y2="806.69" gradientUnits="userSpaceOnUse">
<stop stop-color="#FB7A0D"/>
<stop offset="1" stop-color="#FBAE0D"/>
</linearGradient>
<linearGradient id="paint16_linear_16_221" x1="1214.6" y1="316.83" x2="1242.42" y2="344.358" gradientUnits="userSpaceOnUse">
<stop stop-color="#FB7A0D"/>
<stop offset="1" stop-color="#FBAE0D"/>
</linearGradient>
<linearGradient id="paint17_linear_16_221" x1="804.235" y1="174.347" x2="806.724" y2="135.726" gradientUnits="userSpaceOnUse">
<stop stop-color="#FB7A0D"/>
<stop offset="1" stop-color="#FBAE0D"/>
</linearGradient>
<linearGradient id="paint18_linear_16_221" x1="536.559" y1="892.347" x2="539.048" y2="853.726" gradientUnits="userSpaceOnUse">
<stop stop-color="#FB7A0D"/>
<stop offset="1" stop-color="#FBAE0D"/>
</linearGradient>
<linearGradient id="paint19_linear_16_221" x1="1357.56" y1="978.347" x2="1360.05" y2="939.726" gradientUnits="userSpaceOnUse">
<stop stop-color="#FB7A0D"/>
<stop offset="1" stop-color="#FBAE0D"/>
</linearGradient>
<linearGradient id="paint20_linear_16_221" x1="890.559" y1="915.347" x2="893.048" y2="876.726" gradientUnits="userSpaceOnUse">
<stop stop-color="#FB7A0D"/>
<stop offset="1" stop-color="#FBAE0D"/>
</linearGradient>
<linearGradient id="paint21_linear_16_221" x1="1489.56" y1="67.3473" x2="1492.05" y2="28.7258" gradientUnits="userSpaceOnUse">
<stop stop-color="#FB7A0D"/>
<stop offset="1" stop-color="#FBAE0D"/>
</linearGradient>
<linearGradient id="paint22_linear_16_221" x1="190.885" y1="638.738" x2="226.201" y2="655.614" gradientUnits="userSpaceOnUse">
<stop stop-color="#FB7A0D"/>
<stop offset="1" stop-color="#FBAE0D"/>
</linearGradient>
<linearGradient id="paint23_linear_16_221" x1="-41" y1="-90.7131" x2="677.444" y2="1511.8" gradientUnits="userSpaceOnUse">
<stop stop-color="#0C0720"/>
<stop offset="1" stop-color="#340452"/>
</linearGradient>
<radialGradient id="paint24_radial_16_221" cx="0" cy="0" r="1" gradientUnits="userSpaceOnUse" gradientTransform="translate(1062.69 906.307) rotate(94.1849) scale(157.126 419.768)">
<stop offset="0.635417" stop-color="#655BA4"/>
<stop offset="1" stop-color="#BBAFFF"/>
</radialGradient>
<clipPath id="clip0_16_221">
<rect width="1600" height="1047" fill="white"/>
</clipPath>
</defs>
</svg>
