<svg width="834" height="1619" viewBox="0 0 834 1619" fill="none" xmlns="http://www.w3.org/2000/svg">
<g clip-path="url(#clip0_22_2)">
<rect width="834" height="1619" fill="white"/>
<mask id="mask0_22_2" style="mask-type:alpha" maskUnits="userSpaceOnUse" x="0" y="-77" width="836" height="1730">
<rect x="0.134766" y="-77" width="835" height="1730" fill="#D9D9D9"/>
</mask>
<g mask="url(#mask0_22_2)">
<path d="M-94.0959 58.2617C-244.098 46.8498 -291.522 2.46825 -299.558 -25.6298V1505.9C-211.741 1546.65 19.4836 1626.21 241.843 1618.47C519.792 1608.8 618.275 1511.18 831.736 1505.9C1045.2 1500.62 1077.69 1519.97 1203.17 1567.46C1303.55 1605.46 1366.97 1583.29 1386.13 1567.46V-42C1304.32 4.90604 1104.99 100.125 962.212 105.754C783.744 112.79 473.606 0 314.135 0C154.664 0 90.8705 72.3335 -94.0959 58.2617Z" fill="url(#paint0_linear_22_2)"/>
</g>
<mask id="mask1_22_2" style="mask-type:alpha" maskUnits="userSpaceOnUse" x="0" y="0" width="836" height="1576">
<rect x="0.134766" y="0.390381" width="835" height="1575.22" fill="#D9D9D9"/>
</mask>
<g mask="url(#mask1_22_2)">
<g filter="url(#filter0_d_22_2)">
<path d="M-91.0959 114.446C-241.098 104.033 -288.522 63.5375 -296.558 37.8998V1435.33C-208.741 1472.51 22.4836 1545.11 244.843 1538.05C522.792 1529.22 621.275 1440.14 834.736 1435.33C1048.2 1430.51 1080.69 1448.17 1206.17 1491.5C1306.55 1526.17 1369.97 1505.95 1389.13 1491.5V22.9629C1307.32 65.7619 1107.99 152.644 965.212 157.78C786.744 164.2 473.106 40.4995 313.635 40.4995C154.164 40.4995 93.8705 127.285 -91.0959 114.446Z" fill="url(#paint1_linear_22_2)"/>
</g>
</g>
<circle cx="380.881" cy="1289.82" r="268.822" fill="#9E8EFF"/>
<mask id="mask2_22_2" style="mask-type:alpha" maskUnits="userSpaceOnUse" x="112" y="1021" width="538" height="538">
<circle cx="380.881" cy="1289.82" r="264.322" fill="#FE9695" stroke="#6A72B4" stroke-width="9"/>
</mask>
<g mask="url(#mask2_22_2)">
<circle cx="405.088" cy="1156.05" r="25.4808" fill="#FFCE8E"/>
<rect x="484.078" y="1148.4" width="38.2212" height="20.3846" rx="6" fill="#FFCE8E"/>
<rect x="540.135" y="1156.05" width="86.6347" height="12.7404" rx="6" fill="#FFCE8E"/>
<path d="M76.3848 1218.56C76.3848 1213.59 80.4142 1209.56 85.3848 1209.56H263.742C265.925 1209.56 268.033 1210.35 269.675 1211.79L315.447 1251.92C317.088 1253.36 319.197 1254.15 321.38 1254.15H552.724C556.082 1254.15 559.161 1252.28 560.709 1249.3L576.977 1218.01C578.465 1215.15 581.371 1213.3 584.594 1213.17L663.266 1209.94C668.377 1209.73 672.635 1213.82 672.635 1218.93V1266.81C672.635 1271.78 668.606 1275.81 663.635 1275.81H85.3848C80.4142 1275.81 76.3848 1271.78 76.3848 1266.81V1218.56Z" fill="#FFCE8E"/>
<rect x="112.059" y="1288.55" width="267.548" height="33.125" rx="9" fill="#FFCE8E"/>
<rect x="405.088" y="1303.84" width="78.9904" height="15.2885" rx="6" fill="#FFCE8E"/>
<path d="M500.319 1445.45C513.053 1442.82 524.88 1436.91 534.631 1428.3L538.933 1424.51C540.548 1423.08 541.706 1421.21 542.261 1419.13C544.88 1409.31 552.627 1401.68 562.49 1399.22L583.577 1393.94C605.728 1388.41 629.119 1390.78 649.703 1400.66V1464.37H452.525C447.435 1464.37 443.309 1460.24 443.309 1455.15C443.309 1449.23 448.512 1444.65 454.385 1445.41L478.042 1448.46C481.195 1448.87 484.393 1448.75 487.506 1448.1L500.319 1445.45Z" fill="#FFCE8E"/>
</g>
<path d="M218.066 1469.52C200.173 1452.48 221.812 1426.85 246.18 1430.97C259.772 1433.27 273.738 1434.47 287.986 1434.47C425.297 1434.47 536.611 1323.22 536.611 1185.99C536.611 1173.52 535.691 1161.26 533.917 1149.28C530.297 1124.85 556.401 1103.75 573.079 1121.98C613.511 1166.17 624.268 1225.01 624.268 1289.61C624.268 1426.84 512.954 1538.09 375.642 1538.09C309.157 1538.09 262.676 1512.01 218.066 1469.52Z" fill="#300B00" fill-opacity="0.4"/>
<path fill-rule="evenodd" clip-rule="evenodd" d="M115.66 1331.02C113.286 1319.37 112.059 1305.74 112.059 1289.82C112.059 1287.24 112.096 1284.66 112.169 1282.1C39.0261 1333.27 -0.327731 1387.14 12.5521 1429.99C36.8544 1510.86 237.917 1521.9 461.638 1454.67C685.358 1387.43 847.019 1267.37 822.717 1186.51C806.762 1133.42 714.627 1110.43 589.912 1119.92C598.422 1130.21 606.181 1141.15 613.103 1152.65C687.044 1154.29 738.914 1173.26 749.509 1208.51C769.356 1274.55 636.86 1372.74 453.57 1427.82C270.281 1482.91 105.607 1474.03 85.7597 1407.99C78.8932 1385.14 90.2618 1358.45 115.66 1331.02Z" fill="url(#paint2_radial_22_2)"/>
<ellipse cx="367.693" cy="1182.01" rx="108.006" ry="40.1723" transform="rotate(2.39758 367.693 1182.01)" fill="#725A99" fill-opacity="0.67"/>
<ellipse rx="1.46095" ry="1.35031" transform="matrix(0.87193 0.489631 -0.695885 0.718153 144.641 238.874)" fill="white" fill-opacity="0.3"/>
<ellipse rx="1.46095" ry="1.35031" transform="matrix(0.87193 0.489631 -0.695885 0.718153 96.9221 593.107)" fill="white" fill-opacity="0.3"/>
<ellipse rx="1.85347" ry="1.7131" transform="matrix(0.87193 0.489631 -0.695885 0.718153 293.444 71.6659)" fill="white" fill-opacity="0.3"/>
<ellipse cx="97.2626" cy="413.624" rx="1.58292" ry="0.803345" fill="white" fill-opacity="0.3"/>
<ellipse rx="1.46095" ry="0.900207" transform="matrix(0.87193 0.489631 -0.695885 0.718153 218.718 320.916)" fill="white" fill-opacity="0.3"/>
<ellipse rx="1.46095" ry="1.35031" transform="matrix(0.87193 0.489631 -0.695885 0.718153 147.024 295.213)" fill="white" fill-opacity="0.3"/>
<ellipse rx="1.46095" ry="1.35031" transform="matrix(0.87193 0.489631 -0.695885 0.718153 364.598 412.637)" fill="white" fill-opacity="0.3"/>
<ellipse rx="1.85347" ry="1.7131" transform="matrix(0.87193 0.489631 -0.695885 0.718153 6.21303 49.3656)" fill="white" fill-opacity="0.3"/>
<ellipse rx="1.85347" ry="1.7131" transform="matrix(0.87193 0.489631 -0.695885 0.718153 108.922 849.466)" fill="white" fill-opacity="0.3"/>
<ellipse rx="1.85347" ry="1.7131" transform="matrix(0.87193 0.489631 -0.695885 0.718153 646.942 1063.14)" fill="white" fill-opacity="0.3"/>
<ellipse rx="1.85347" ry="1.7131" transform="matrix(0.87193 0.489631 -0.695885 0.718153 672.942 1251.14)" fill="white" fill-opacity="0.3"/>
<ellipse rx="1.85347" ry="1.7131" transform="matrix(0.87193 0.489631 -0.695885 0.718153 768.942 1457.14)" fill="white" fill-opacity="0.3"/>
<ellipse rx="1.85347" ry="1.7131" transform="matrix(0.87193 0.489631 -0.695885 0.718153 102.942 1536.14)" fill="white" fill-opacity="0.3"/>
<ellipse rx="1.85347" ry="1.7131" transform="matrix(0.87193 0.489631 -0.695885 0.718153 836.238 862.103)" fill="white" fill-opacity="0.3"/>
<ellipse rx="1.85347" ry="1.7131" transform="matrix(0.87193 0.489631 -0.695885 0.718153 446.119 867.632)" fill="white" fill-opacity="0.3"/>
<ellipse rx="2.47129" ry="2.28413" transform="matrix(0.87193 0.489631 -0.695885 0.718153 171.073 63.5054)" fill="white" fill-opacity="0.3"/>
<ellipse rx="1.46095" ry="1.35031" transform="matrix(0.87193 0.489631 -0.695885 0.718153 231.793 251.511)" fill="white" fill-opacity="0.3"/>
<ellipse rx="1.46095" ry="1.35031" transform="matrix(0.87193 0.489631 -0.695885 0.718153 95.885 531.112)" fill="white" fill-opacity="0.3"/>
<ellipse rx="1.85347" ry="1.7131" transform="matrix(0.87193 0.489631 -0.695885 0.718153 14.5138 826.56)" fill="white" fill-opacity="0.3"/>
<ellipse rx="1.85347" ry="1.7131" transform="matrix(0.87193 0.489631 -0.695885 0.718153 372.455 884.218)" fill="white" fill-opacity="0.3"/>
<ellipse rx="1.85347" ry="1.7131" transform="matrix(0.87193 0.489631 -0.695885 0.718153 327.842 911.863)" fill="white" fill-opacity="0.3"/>
<ellipse rx="1.85347" ry="1.7131" transform="matrix(0.87193 0.489631 -0.695885 0.718153 818.602 330.158)" fill="white" fill-opacity="0.3"/>
<path d="M200.666 129.452L201.493 135.186L207.461 136.053L202.004 138.73L202.831 144.464L198.631 140.385L193.174 143.062L196.036 137.863L191.836 133.784L197.804 134.65L200.666 129.452Z" fill="url(#paint3_linear_22_2)" fill-opacity="0.8"/>
<path d="M78.6257 928.531L84.3571 929.377L86.8935 923.906L87.8994 929.9L93.6308 930.746L88.521 933.605L89.5269 939.599L85.363 935.372L80.2533 938.23L82.7896 932.759L78.6257 928.531Z" fill="url(#paint4_linear_22_2)" fill-opacity="0.8"/>
<path d="M754.626 474.531L760.357 475.378L762.893 469.906L763.899 475.901L769.631 476.747L764.521 479.605L765.527 485.6L761.363 481.372L756.253 484.231L758.79 478.759L754.626 474.531Z" fill="url(#paint5_linear_22_2)" fill-opacity="0.8"/>
<path d="M754.626 1368.53L760.357 1369.38L762.893 1363.91L763.899 1369.9L769.631 1370.75L764.521 1373.61L765.527 1379.6L761.363 1375.37L756.253 1378.23L758.79 1372.76L754.626 1368.53Z" fill="url(#paint6_linear_22_2)" fill-opacity="0.8"/>
<path d="M108.626 1406.53L114.357 1407.38L116.893 1401.91L117.899 1407.9L123.631 1408.75L118.521 1411.61L119.527 1417.6L115.363 1413.37L110.253 1416.23L112.79 1410.76L108.626 1406.53Z" fill="url(#paint7_linear_22_2)" fill-opacity="0.8"/>
<path d="M185.23 710.029L185.737 704.257L180.126 702.048L186.051 700.691L186.558 694.919L189.713 699.852L195.638 698.495L191.662 702.9L194.817 707.833L189.205 705.623L185.23 710.029Z" fill="url(#paint8_linear_22_2)" fill-opacity="0.8"/>
<path d="M270.602 13.3425L271.969 18.0239L277.441 17.7748L272.815 20.9171L274.182 25.5985L269.955 22.8591L265.329 26.0015L267.343 21.1662L263.116 18.4269L268.588 18.1778L270.602 13.3425Z" fill="url(#paint9_linear_22_2)" fill-opacity="0.8"/>
<path d="M575.064 77.0895L585.748 73.0862L585.106 62.2075L592.351 70.6119L603.034 66.6086L596.828 75.8062L604.072 84.2106L592.992 81.4906L586.786 90.6882L586.144 79.8095L575.064 77.0895Z" fill="url(#paint10_linear_22_2)"/>
<path d="M190.017 1573.83L200.701 1569.83L200.059 1558.95L207.304 1567.35L217.987 1563.35L211.781 1572.55L219.025 1580.95L207.945 1578.23L201.739 1587.43L201.097 1576.55L190.017 1573.83Z" fill="url(#paint11_linear_22_2)"/>
<path d="M276.017 782.831L286.701 778.827L286.059 767.949L293.304 776.353L303.987 772.35L297.781 781.547L305.025 789.952L293.945 787.232L287.739 796.429L287.097 785.551L276.017 782.831Z" fill="url(#paint12_linear_22_2)"/>
<circle r="1.52566" transform="matrix(-0.804743 0.593623 0.593623 0.804743 806.906 72.3937)" fill="#FBA10D" fill-opacity="0.2"/>
<circle r="1.52566" transform="matrix(-0.804743 0.593623 0.593623 0.804743 651.063 422.394)" fill="#FBA10D" fill-opacity="0.2"/>
<circle r="1.52566" transform="matrix(-0.804743 0.593623 0.593623 0.804743 722.906 88.3942)" fill="#FBA10D" fill-opacity="0.2"/>
<circle r="1.93556" transform="matrix(0.365113 0.930963 0.930963 -0.365113 254.016 662.768)" fill="#FBA10D" fill-opacity="0.2"/>
<circle r="1.93556" transform="matrix(0.365113 0.930963 0.930963 -0.365113 124.649 815.509)" fill="#FBA10D" fill-opacity="0.2"/>
<circle r="1.93556" transform="matrix(0.365113 0.930963 0.930963 -0.365113 202.016 767.768)" fill="#FBA10D" fill-opacity="0.2"/>
<circle r="1.93556" transform="matrix(0.365113 0.930963 0.930963 -0.365113 394.014 849.768)" fill="#FBA10D" fill-opacity="0.2"/>
<circle r="1.93556" transform="matrix(0.365113 0.930963 0.930963 -0.365113 431.014 720.768)" fill="#FBA10D" fill-opacity="0.2"/>
<circle r="1.93556" transform="matrix(0.365113 0.930963 0.930963 -0.365113 50.0086 738.768)" fill="#FBA10D" fill-opacity="0.2"/>
<circle r="1.93556" transform="matrix(0.365113 0.930963 0.930963 -0.365113 586.014 718.768)" fill="#FBA10D" fill-opacity="0.2"/>
<mask id="mask3_22_2" style="mask-type:alpha" maskUnits="userSpaceOnUse" x="-267" y="136" width="469" height="397">
<path d="M-266 278.76L-255.5 532.26L41.5 476.26L201 233.76L141 137.26H-3.5C-27.6667 138.093 -79.4 144.26 -93 162.26C-110 184.76 -211.5 236.76 -231.5 240.76C-247.5 243.96 -248.333 266.926 -266 278.76Z" fill="#C4C4C4" stroke="black"/>
</mask>
<g mask="url(#mask3_22_2)">
<path d="M-107.54 291.763C-47.9771 277.046 -23.0389 298.151 -49.2314 337.16C-75.4239 376.17 -144.26 420.444 -203.823 435.161C-263.385 449.878 -288.323 428.774 -262.131 389.765C-235.938 350.755 -167.102 306.481 -107.54 291.763Z" stroke="#493A54" stroke-opacity="0.1" stroke-width="7"/>
<path d="M-75.9895 242.009C20.9061 218.068 62.3075 252.248 19.0904 316.613C-24.1267 380.978 -137.029 453.285 -233.924 477.227C-330.82 501.168 -372.221 466.987 -329.004 402.623C-285.787 338.258 -172.885 265.951 -75.9895 242.009Z" stroke="#493A54" stroke-opacity="0.1" stroke-width="7"/>
<path d="M-36.8325 176.449C104.324 141.571 165.244 191.256 101.843 285.681C38.4418 380.106 -126.703 485.648 -267.859 520.525C-409.015 555.403 -469.935 505.719 -406.534 411.294C-343.133 316.869 -177.989 211.327 -36.8325 176.449Z" stroke="#493A54" stroke-opacity="0.1" stroke-width="7"/>
</g>
<path d="M681.964 975.799C743.118 963.852 783.004 904.571 771.052 843.391C759.1 782.211 699.836 742.299 638.682 754.246C577.528 766.192 537.642 825.474 549.594 886.654C561.546 947.834 620.81 987.746 681.964 975.799Z" fill="#2A3347"/>
<path d="M768.082 828.321C779.038 884.4 746.429 938.896 693.841 956.785C689.072 958.395 684.117 959.728 679.019 960.724C671.51 962.191 664.029 962.87 656.672 962.847C604.024 962.542 557.134 925.246 546.65 871.579C536.843 821.379 561.959 772.443 605.087 749.906C614.504 744.988 624.793 741.335 635.743 739.196C642.549 737.866 649.352 737.189 656.037 737.109C709.482 736.424 757.466 773.975 768.082 828.321Z" fill="#70C4CB"/>
<path d="M768.082 828.321C779.037 884.4 746.429 938.895 693.841 956.785C693.138 952.384 692.299 947.957 691.41 945.809C689.309 940.794 686.931 929.156 685.952 924.678C684.973 920.2 685.451 901.692 685.451 901.692C685.451 901.692 686.184 881.02 684.252 872.868C682.326 864.741 673.799 851.122 673.799 851.122C673.799 851.122 661.699 837.366 657.809 832.935C653.924 828.529 648.656 823.585 646.222 815.661C643.792 807.763 646.743 800.979 646.84 796.004C646.917 791.059 653.354 777.698 652.812 768.649C652.389 761.95 654.771 745.312 656.037 737.109C709.482 736.424 757.465 773.975 768.082 828.321Z" fill="#BED35A"/>
<path d="M656.671 962.847C604.022 962.542 557.132 925.246 546.648 871.579C536.841 821.379 561.958 772.443 605.086 749.906C601.412 762.466 595.311 782.882 592.846 788.815C589.159 797.569 572.124 809.4 571.076 820.586C570.053 831.767 582.245 850.801 587.429 854.248C592.584 857.676 605.655 860.391 615.476 866.089C625.293 871.762 633.546 877.974 636.496 885.067C639.416 892.139 639.378 911.031 638.5 915.741C637.596 920.457 634.738 923.18 635.859 929.586C637.005 935.988 647.882 944.818 651.746 951.784C653.275 954.537 655.058 958.728 656.671 962.847Z" fill="#BED35A"/>
<path opacity="0.4" d="M604.456 762.555C654.747 731.977 719.417 745.414 753.739 791.894L754.154 791.642C721.786 738.372 652.382 721.431 599.139 753.804C545.896 786.177 528.973 855.606 561.342 908.876L561.757 908.623C536.291 856.759 554.165 793.133 604.456 762.555Z" fill="white"/>
<path d="M287.975 1176.46L317.973 1182.55C325.731 1184.13 333.282 1179.12 334.854 1171.38L348.479 1104.33C350.054 1096.58 345.038 1089.03 337.297 1087.46L307.298 1081.36C299.541 1079.78 291.99 1084.8 290.417 1092.53L276.793 1159.58C275.221 1167.32 280.233 1174.88 287.975 1176.46Z" fill="#E6E6E6"/>
<path d="M429.829 1088.9L314.635 1081.99C284.982 1080.22 262.372 1054.74 264.15 1025.1L266.968 978.115C268.745 948.481 294.238 925.887 323.891 927.666L439.085 934.574C468.738 936.353 491.347 961.831 489.57 991.466L486.752 1038.45C484.975 1068.09 459.482 1090.68 429.829 1088.9Z" fill="#5A227C"/>
<path d="M416.525 1191.23L447.027 1188.65C454.915 1187.98 460.752 1181.05 460.086 1173.18L454.311 1105C453.644 1097.12 446.708 1091.29 438.836 1091.96L408.334 1094.54C400.446 1095.21 394.609 1102.14 395.275 1110.01L401.05 1178.18C401.716 1186.05 408.653 1191.9 416.525 1191.23Z" fill="#E6E6E6"/>
<path d="M379.306 967.486C327.136 964.357 287.378 919.554 290.505 867.417C293.632 815.279 338.46 775.55 390.63 778.679C442.8 781.807 482.557 826.61 479.43 878.748C476.303 930.885 431.476 970.615 379.306 967.486Z" fill="#CCCCCC"/>
<path d="M423.575 1122.78L320.718 1116.61C300.577 1115.41 285.242 1098.11 286.449 1078L291.599 992.131C294.442 944.716 335.206 908.588 382.651 911.433C432.28 914.41 470.118 957.031 467.142 1006.65L462.23 1088.54C461.008 1108.65 443.716 1123.99 423.575 1122.78Z" fill="#CCCCCC"/>
<circle cx="378.007" cy="1013.03" r="20" transform="rotate(3.43226 378.007 1013.03)" stroke="#B3B3B3"/>
<path d="M382.231 1002.58L387.941 1002.92L379.641 1027.63L377.954 1018.35L382.231 1002.58ZM374.095 1002.09L378.471 1027.56L373.758 1027.28L368.402 1001.75L374.095 1002.09Z" fill="#DF9E15"/>
<path d="M380.611 945.715C340.472 943.308 309.883 908.837 312.289 868.723C314.695 828.609 349.184 798.042 389.324 800.449C429.463 802.856 460.052 837.327 457.646 877.441C455.24 917.555 420.75 948.123 380.611 945.715Z" fill="#2B2A70"/>
<path d="M431.774 993.885C430.608 965.622 441.479 942.225 456.055 941.625C470.631 941.026 483.393 963.451 484.559 991.714C485.725 1019.98 474.854 1043.37 460.278 1043.97C445.702 1044.57 432.94 1022.15 431.774 993.885Z" fill="#5A227C"/>
<path d="M290.594 1033.79C276.194 1031.45 268.197 1006.92 272.733 979C277.268 951.079 292.619 930.339 307.018 932.677C321.418 935.014 329.415 959.543 324.879 987.464C320.344 1015.38 304.993 1036.12 290.594 1033.79Z" fill="#5A227C"/>
<path d="M500.713 974.75L500.275 974.345C497.711 972.016 497.521 968.034 499.851 965.471L503.575 961.378C505.905 958.815 509.89 958.626 512.455 960.954L512.892 961.36C515.456 963.688 515.646 967.671 513.316 970.233L509.592 974.327C507.262 976.889 503.277 977.079 500.713 974.75Z" fill="#CCCCCC"/>
<path d="M490.84 971.934L490.251 971.849C486.816 971.396 484.383 968.251 484.82 964.817L485.528 959.34C485.981 955.907 489.127 953.476 492.564 953.913L493.152 953.997C496.587 954.451 499.02 957.595 498.583 961.029L497.876 966.507C497.438 969.957 494.276 972.371 490.84 971.934Z" fill="#CCCCCC"/>
<path d="M497.485 1008.22L477.583 1013.48C466.827 1016.33 455.786 1009.92 452.952 999.172L451.888 995.186C449.038 984.437 455.453 973.403 466.208 970.572L486.111 965.306C496.866 962.458 507.908 968.871 510.742 979.619L511.805 983.605C514.656 994.354 508.241 1005.37 497.485 1008.22Z" fill="#E6E6E6"/>
<path d="M318.582 970.814L305.218 996.26C302.052 1002.32 294.559 1004.63 288.517 1001.47L283.929 999.07C277.87 995.905 275.549 988.417 278.714 982.379L294.481 952.331C297.647 946.276 305.14 943.957 311.182 947.121C319.782 951.624 323.086 962.236 318.582 970.814Z" fill="#CCCCCC"/>
<path d="M348.172 1017.08L295.388 1013.91C283.659 1013.21 274.7 1003.13 275.404 991.39L275.516 989.535C276.219 977.813 286.302 968.861 298.048 969.565L350.832 972.731C362.561 973.434 371.52 983.512 370.816 995.251L370.704 997.106C370.001 1008.83 359.918 1017.78 348.172 1017.08Z" fill="#E6E6E6"/>
<path d="M332.746 970.23L329.918 1017.38C329.883 1017.96 329.378 1018.4 328.803 1018.37L327.16 1018.27C326.585 1018.24 326.137 1017.73 326.172 1017.16L329 970.005C329.034 969.431 329.539 968.983 330.114 969.018L331.757 969.116C332.331 969.167 332.78 969.655 332.746 970.23Z" fill="#B3B3B3"/>
<path d="M327.933 969.94L325.105 1017.09C325.071 1017.67 324.566 1018.12 323.991 1018.08L322.348 1017.98C321.773 1017.95 321.325 1017.44 321.359 1016.87L324.187 969.716C324.222 969.141 324.727 968.694 325.302 968.728L326.945 968.827C327.519 968.877 327.968 969.366 327.933 969.94Z" fill="#B3B3B3"/>
<path d="M322.89 969.638L320.062 1016.79C320.028 1017.37 319.523 1017.81 318.948 1017.78L317.765 1017.71C317.19 1017.67 316.742 1017.17 316.776 1016.59L319.604 969.441C319.639 968.866 320.144 968.419 320.719 968.453L321.902 968.524C322.476 968.575 322.925 969.064 322.89 969.638Z" fill="#B3B3B3"/>
<path d="M281.261 1134.61L340.483 1146.64C341.048 1146.76 341.421 1147.32 341.306 1147.89L340.687 1150.93C340.572 1151.5 340.01 1151.87 339.445 1151.75L280.223 1139.72C279.658 1139.6 279.285 1139.04 279.4 1138.48L280.019 1135.43C280.137 1134.85 280.696 1134.5 281.261 1134.61Z" fill="#B3B3B3"/>
<path d="M279.929 1141.17L339.151 1153.21C339.716 1153.32 340.088 1153.88 339.974 1154.45L339.355 1157.49C339.24 1158.06 338.677 1158.43 338.113 1158.31L278.89 1146.28C278.326 1146.17 277.953 1145.6 278.068 1145.04L278.687 1141.99C278.801 1141.43 279.364 1141.06 279.929 1141.17Z" fill="#B3B3B3"/>
<path d="M278.528 1148.05L337.751 1160.09C338.315 1160.2 338.688 1160.76 338.574 1161.33L338.082 1163.75C337.968 1164.31 337.405 1164.68 336.841 1164.57L277.618 1152.53C277.054 1152.42 276.681 1151.86 276.795 1151.29L277.287 1148.88C277.405 1148.3 277.964 1147.94 278.528 1148.05Z" fill="#B3B3B3"/>
<path d="M398.319 1152.96L458.536 1147.86C459.11 1147.81 459.626 1148.25 459.675 1148.82L459.937 1151.92C459.986 1152.49 459.55 1153.01 458.976 1153.06L398.759 1158.16C398.185 1158.21 397.67 1157.77 397.621 1157.2L397.359 1154.1C397.309 1153.51 397.745 1153.01 398.319 1152.96Z" fill="#B3B3B3"/>
<path d="M398.884 1159.63L459.101 1154.53C459.675 1154.48 460.191 1154.92 460.239 1155.49L460.502 1158.59C460.55 1159.16 460.115 1159.68 459.541 1159.73L399.324 1164.83C398.75 1164.88 398.234 1164.44 398.185 1163.87L397.923 1160.77C397.874 1160.2 398.31 1159.68 398.884 1159.63Z" fill="#B3B3B3"/>
<path d="M399.477 1166.63L459.695 1161.53C460.269 1161.48 460.784 1161.92 460.833 1162.49L461.041 1164.95C461.09 1165.52 460.654 1166.04 460.081 1166.08L399.863 1171.19C399.289 1171.23 398.774 1170.8 398.725 1170.23L398.517 1167.77C398.467 1167.18 398.903 1166.68 399.477 1166.63Z" fill="#B3B3B3"/>
<path d="M367.759 821.232C399.629 809.561 399.342 815.835 396.218 812.296C393.207 810.562 378.216 804.625 354.103 817.706C336.894 827.04 331.579 837.651 329.183 847.026C328.657 850.798 329.357 855.244 329.883 858.011C331.012 863.952 335.889 832.904 367.759 821.232Z" fill="#EEEEEE" fill-opacity="0.96"/>
<path d="M327.254 865.853C327.233 866.21 321.941 879.086 320.288 878.987C318.634 878.888 320.487 868.639 320.676 866.962C320.9 864.971 325.307 848.205 327.204 858.337C328.384 863.877 327.275 865.497 327.254 865.853Z" fill="#EEEEEE" fill-opacity="0.95"/>
<mask id="mask4_22_2" style="mask-type:alpha" maskUnits="userSpaceOnUse" x="584" y="185" width="244" height="159">
<path d="M827.375 213.486L608.875 185.486L584.375 280.986L827.375 343.986L827.375 213.486Z" fill="#C4C4C4"/>
</mask>
<g mask="url(#mask4_22_2)">
<path d="M763.196 262.049C782.946 274.177 783.191 286 766.813 289.092C750.434 292.183 721.111 285.85 701.361 273.723C681.61 261.595 681.365 249.772 697.744 246.681C714.122 243.589 743.445 249.922 763.196 262.049Z" stroke="#493A54" stroke-opacity="0.1" stroke-width="7"/>
<ellipse rx="10.331" ry="13.0085" transform="matrix(0.982644 -0.185502 0.852169 0.523266 736.569 267.176)" fill="#493A54" fill-opacity="0.1"/>
<path d="M785.603 257.21C818.104 277.167 819.219 297.123 791.164 302.419C763.109 307.716 713.984 296.822 681.483 276.865C648.982 256.908 647.866 236.952 675.921 231.656C703.977 226.359 753.102 237.253 785.603 257.21Z" stroke="#493A54" stroke-opacity="0.1" stroke-width="7"/>
<path d="M814.467 250.163C862.085 279.402 864.232 309.002 822.334 316.911C780.435 324.821 707.833 308.521 660.215 279.282C612.598 250.043 610.45 220.443 652.348 212.533C694.247 204.624 766.849 220.923 814.467 250.163Z" stroke="#493A54" stroke-opacity="0.1" stroke-width="7"/>
</g>
</g>
<defs>
<filter id="filter0_d_22_2" x="-322.865" y="1.96289" width="1737" height="1565.56" filterUnits="userSpaceOnUse" color-interpolation-filters="sRGB">
<feFlood flood-opacity="0" result="BackgroundImageFix"/>
<feColorMatrix in="SourceAlpha" type="matrix" values="0 0 0 0 0 0 0 0 0 0 0 0 0 0 0 0 0 0 127 0" result="hardAlpha"/>
<feOffset dy="4"/>
<feGaussianBlur stdDeviation="12.5"/>
<feColorMatrix type="matrix" values="0 0 0 0 0.104466 0 0 0 0 0.0432952 0 0 0 0 0.154167 0 0 0 1 0"/>
<feBlend mode="normal" in2="BackgroundImageFix" result="effect1_dropShadow_22_2"/>
<feBlend mode="normal" in="SourceGraphic" in2="effect1_dropShadow_22_2" result="shape"/>
</filter>
<linearGradient id="paint0_linear_22_2" x1="-300.865" y1="-303.014" x2="1354.43" y2="1786.49" gradientUnits="userSpaceOnUse">
<stop stop-color="#0C0720"/>
<stop offset="1" stop-color="#340452"/>
</linearGradient>
<linearGradient id="paint1_linear_22_2" x1="-297.865" y1="-215.197" x2="1175.37" y2="1822.95" gradientUnits="userSpaceOnUse">
<stop stop-color="#0C0720"/>
<stop offset="1" stop-color="#340452"/>
</linearGradient>
<radialGradient id="paint2_radial_22_2" cx="0" cy="0" r="1" gradientUnits="userSpaceOnUse" gradientTransform="translate(417.827 1308.94) rotate(94.1849) scale(157.126 419.768)">
<stop offset="0.635417" stop-color="#655BA4"/>
<stop offset="1" stop-color="#BBAFFF"/>
</radialGradient>
<linearGradient id="paint3_linear_22_2" x1="194.165" y1="123.091" x2="214.368" y2="129.714" gradientUnits="userSpaceOnUse">
<stop stop-color="#FB7A0D"/>
<stop offset="1" stop-color="#FBAE0D"/>
</linearGradient>
<linearGradient id="paint4_linear_22_2" x1="70.6723" y1="932.943" x2="82.793" y2="915.475" gradientUnits="userSpaceOnUse">
<stop stop-color="#FB7A0D"/>
<stop offset="1" stop-color="#FBAE0D"/>
</linearGradient>
<linearGradient id="paint5_linear_22_2" x1="746.672" y1="478.943" x2="758.793" y2="461.476" gradientUnits="userSpaceOnUse">
<stop stop-color="#FB7A0D"/>
<stop offset="1" stop-color="#FBAE0D"/>
</linearGradient>
<linearGradient id="paint6_linear_22_2" x1="746.672" y1="1372.94" x2="758.793" y2="1355.48" gradientUnits="userSpaceOnUse">
<stop stop-color="#FB7A0D"/>
<stop offset="1" stop-color="#FBAE0D"/>
</linearGradient>
<linearGradient id="paint7_linear_22_2" x1="100.672" y1="1410.94" x2="112.793" y2="1393.48" gradientUnits="userSpaceOnUse">
<stop stop-color="#FB7A0D"/>
<stop offset="1" stop-color="#FBAE0D"/>
</linearGradient>
<linearGradient id="paint8_linear_22_2" x1="190.102" y1="717.709" x2="171.951" y2="706.637" gradientUnits="userSpaceOnUse">
<stop stop-color="#FB7A0D"/>
<stop offset="1" stop-color="#FBAE0D"/>
</linearGradient>
<linearGradient id="paint9_linear_22_2" x1="264.053" y1="9.06388" x2="282.636" y2="12.949" gradientUnits="userSpaceOnUse">
<stop stop-color="#FB7A0D"/>
<stop offset="1" stop-color="#FBAE0D"/>
</linearGradient>
<linearGradient id="paint10_linear_22_2" x1="565.37" y1="91.3476" x2="567.858" y2="52.7261" gradientUnits="userSpaceOnUse">
<stop stop-color="#FB7A0D"/>
<stop offset="1" stop-color="#FBAE0D"/>
</linearGradient>
<linearGradient id="paint11_linear_22_2" x1="180.323" y1="1588.09" x2="182.812" y2="1549.47" gradientUnits="userSpaceOnUse">
<stop stop-color="#FB7A0D"/>
<stop offset="1" stop-color="#FBAE0D"/>
</linearGradient>
<linearGradient id="paint12_linear_22_2" x1="266.323" y1="797.089" x2="268.812" y2="758.467" gradientUnits="userSpaceOnUse">
<stop stop-color="#FB7A0D"/>
<stop offset="1" stop-color="#FBAE0D"/>
</linearGradient>
<clipPath id="clip0_22_2">
<rect width="834" height="1619" fill="white"/>
</clipPath>
</defs>
</svg>
