<svg width="40" height="40" viewBox="0 0 40 40" fill="none" xmlns="http://www.w3.org/2000/svg">
<path d="M22.3828 16.4453C21.4805 16.4453 20.7812 17.1445 20.7812 18.0078C20.7812 18.8711 21.4805 19.5703 22.3828 19.5703C23.207 19.5703 23.9062 18.8711 23.9062 18.0078C23.9062 17.1445 23.207 16.4453 22.3828 16.4453ZM11.4453 16.4453C10.543 16.4453 9.84375 17.1445 9.84375 18.0078C9.84375 18.8711 10.543 19.5703 11.4453 19.5703C12.2695 19.5703 12.9688 18.8711 12.9688 18.0078C12.9688 17.1445 12.2695 16.4453 11.4453 16.4453Z" fill="#17084D"/>
<path d="M34.9218 13.4766C33.0429 10.8985 30.4179 9.17582 27.539 8.39848V8.40238C26.8711 7.6602 26.1172 6.9766 25.2734 6.36723C18.8789 1.71879 9.90231 3.13676 5.23434 9.53129C1.47262 14.7266 1.63278 21.7149 5.46872 26.6797L5.49997 31.8594C5.49997 31.9844 5.5195 32.1094 5.55856 32.2266C5.76559 32.8868 6.46872 33.25 7.12497 33.043L12.0703 31.4844C13.3789 31.9493 14.7304 32.2149 16.0742 32.2891L16.0547 32.3047C19.5351 34.8399 24.0976 35.6016 28.2812 34.2188L33.2461 35.836C33.3711 35.875 33.5 35.8985 33.6328 35.8985C34.3242 35.8985 34.8828 35.3399 34.8828 34.6485V29.4141C38.3242 24.7422 38.414 18.2852 34.9218 13.4766ZM12.6172 28.711L12.1484 28.5157L8.28122 29.7266L8.24215 25.6641L7.92965 25.3125C4.62497 21.2813 4.40622 15.4727 7.49997 11.211C11.2656 6.04691 18.4843 4.90629 23.6328 8.63285C28.7968 12.3868 29.9414 19.5938 26.2109 24.7266C23.082 29.0196 17.4804 30.6055 12.6172 28.711ZM32.3437 28.0469L32.0312 28.4375L32.0703 32.5L28.2422 31.211L27.7734 31.4063C25.5859 32.2188 23.2539 32.2852 21.0937 31.6797L21.0859 31.6758C23.9726 30.7891 26.5898 28.9922 28.4765 26.4063C31.4609 22.293 31.9453 17.125 30.2109 12.7188L30.2343 12.7344C31.1328 13.3789 31.957 14.1836 32.6562 15.1563C35.4922 19.0469 35.332 24.3438 32.3437 28.0469Z" fill="#17084D"/>
<path d="M16.9141 16.4453C16.0117 16.4453 15.3125 17.1445 15.3125 18.0078C15.3125 18.8711 16.0117 19.5703 16.9141 19.5703C17.7383 19.5703 18.4375 18.8711 18.4375 18.0078C18.4375 17.1445 17.7383 16.4453 16.9141 16.4453Z" fill="#17084D"/>
</svg>
