<svg width="35" height="35" viewBox="0 0 35 35" fill="none" xmlns="http://www.w3.org/2000/svg">
<path d="M21.6016 30.3516H13.3984C13.248 30.3516 13.125 30.4746 13.125 30.625V31.7188C13.125 32.3237 13.6138 32.8125 14.2188 32.8125H20.7812C21.3862 32.8125 21.875 32.3237 21.875 31.7188V30.625C21.875 30.4746 21.752 30.3516 21.6016 30.3516ZM17.5 2.1875C11.3101 2.1875 6.28906 7.2085 6.28906 13.3984C6.28906 17.5479 8.54492 21.1709 11.8945 23.1089V27.0703C11.8945 27.6753 12.3833 28.1641 12.9883 28.1641H22.0117C22.6167 28.1641 23.1055 27.6753 23.1055 27.0703V23.1089C26.4551 21.1709 28.7109 17.5479 28.7109 13.3984C28.7109 7.2085 23.6899 2.1875 17.5 2.1875ZM21.8716 20.9795L20.6445 21.6904V25.7031H14.3555V21.6904L13.1284 20.9795C10.4385 19.4243 8.75 16.5601 8.75 13.3984C8.75 8.56543 12.667 4.64844 17.5 4.64844C22.333 4.64844 26.25 8.56543 26.25 13.3984C26.25 16.5601 24.5615 19.4243 21.8716 20.9795Z" fill="#17084D"/>
</svg>
