<svg width="35" height="35" viewBox="0 0 35 35" fill="none" xmlns="http://www.w3.org/2000/svg">
<path d="M31.7188 7.65625H26.25V5.74219C26.25 5.5918 26.127 5.46875 25.9766 5.46875H24.0625C23.9121 5.46875 23.7891 5.5918 23.7891 5.74219V7.65625H18.7305V5.74219C18.7305 5.5918 18.6074 5.46875 18.457 5.46875H16.543C16.3926 5.46875 16.2695 5.5918 16.2695 5.74219V7.65625H11.2109V5.74219C11.2109 5.5918 11.0879 5.46875 10.9375 5.46875H9.02344C8.87305 5.46875 8.75 5.5918 8.75 5.74219V7.65625H3.28125C2.67627 7.65625 2.1875 8.14502 2.1875 8.75V28.4375C2.1875 29.0425 2.67627 29.5312 3.28125 29.5312H31.7188C32.3237 29.5312 32.8125 29.0425 32.8125 28.4375V8.75C32.8125 8.14502 32.3237 7.65625 31.7188 7.65625ZM30.3516 27.0703H4.64844V10.1172H8.75V12.0312C8.75 12.1816 8.87305 12.3047 9.02344 12.3047H10.9375C11.0879 12.3047 11.2109 12.1816 11.2109 12.0312V10.1172H16.2695V12.0312C16.2695 12.1816 16.3926 12.3047 16.543 12.3047H18.457C18.6074 12.3047 18.7305 12.1816 18.7305 12.0312V10.1172H23.7891V12.0312C23.7891 12.1816 23.9121 12.3047 24.0625 12.3047H25.9766C26.127 12.3047 26.25 12.1816 26.25 12.0312V10.1172H30.3516V27.0703ZM14.2188 16.9531H7.92969C7.7793 16.9531 7.65625 17.0762 7.65625 17.2266V18.8672C7.65625 19.0176 7.7793 19.1406 7.92969 19.1406H14.2188C14.3691 19.1406 14.4922 19.0176 14.4922 18.8672V17.2266C14.4922 17.0762 14.3691 16.9531 14.2188 16.9531ZM14.2188 21.6016H7.92969C7.7793 21.6016 7.65625 21.7246 7.65625 21.875V23.5156C7.65625 23.666 7.7793 23.7891 7.92969 23.7891H14.2188C14.3691 23.7891 14.4922 23.666 14.4922 23.5156V21.875C14.4922 21.7246 14.3691 21.6016 14.2188 21.6016ZM24.7529 15.5381L21.2119 20.4497L19.4072 17.9512C19.3047 17.8076 19.1406 17.7256 18.9663 17.7256H17.0898C16.8677 17.7256 16.7378 17.9785 16.8677 18.1597L20.7676 23.5669C20.8179 23.6368 20.8842 23.6937 20.9608 23.7329C21.0375 23.7722 21.1224 23.7926 21.2085 23.7926C21.2946 23.7926 21.3795 23.7722 21.4562 23.7329C21.5328 23.6937 21.5991 23.6368 21.6494 23.5669L27.2891 15.75C27.4189 15.5688 27.2891 15.3159 27.0669 15.3159H25.1904C25.0195 15.3125 24.8555 15.3979 24.7529 15.5381Z" fill="#17084D"/>
</svg>
