<svg width="35" height="35" viewBox="0 0 35 35" fill="none" xmlns="http://www.w3.org/2000/svg">
<path d="M17.5 2.1875L4.375 6.5625V19.6875C4.375 26.937 10.2505 32.8125 17.5 32.8125C24.7495 32.8125 30.625 26.937 30.625 19.6875V6.5625L17.5 2.1875ZM28.1641 19.6875C28.1641 25.5767 23.3892 30.3516 17.5 30.3516C11.6108 30.3516 6.83594 25.5767 6.83594 19.6875V8.4082L17.5 4.64844L28.1641 8.4082V19.6875Z" fill="#17084D"/>
<path d="M12.9337 16.2388C12.8197 16.1242 12.6841 16.0333 12.5349 15.9713C12.3856 15.9092 12.2255 15.8773 12.0639 15.8773C11.9022 15.8773 11.7422 15.9092 11.5929 15.9713C11.4436 16.0333 11.308 16.1242 11.194 16.2388C11.0794 16.3528 10.9885 16.4884 10.9265 16.6376C10.8645 16.7869 10.8325 16.947 10.8325 17.1086C10.8325 17.2703 10.8645 17.4304 10.9265 17.5796C10.9885 17.7289 11.0794 17.8645 11.194 17.9785L15.6168 22.4014L15.6886 22.4731C15.7965 22.5812 15.9246 22.667 16.0657 22.7255C16.2067 22.784 16.3579 22.8141 16.5106 22.8141C16.6633 22.8141 16.8146 22.784 16.9556 22.7255C17.0967 22.667 17.2248 22.5812 17.3327 22.4731L24.9718 14.834C25.0799 14.7261 25.1656 14.598 25.2242 14.4569C25.2827 14.3159 25.3128 14.1647 25.3128 14.012C25.3128 13.8593 25.2827 13.7081 25.2242 13.567C25.1656 13.426 25.0799 13.2978 24.9718 13.1899L24.8761 13.0942C24.7682 12.9862 24.6401 12.9004 24.4991 12.8419C24.358 12.7834 24.2068 12.7533 24.0541 12.7533C23.9014 12.7533 23.7502 12.7834 23.6091 12.8419C23.4681 12.9004 23.34 12.9862 23.2321 13.0942L16.5089 19.814L12.9337 16.2388Z" fill="#17084D"/>
</svg>
