<svg width="32" height="32" viewBox="0 0 32 32" fill="none" xmlns="http://www.w3.org/2000/svg">
<rect width="32" height="32" rx="3" fill="white" fill-opacity="0.4"/>
<path d="M25.7957 18.2231C26.4466 12.744 25.483 9.28489 23.7448 7.72034L23.7457 7.71943C20.9402 5.04761 11.4657 4.65215 8.10928 7.83943C6.602 9.39853 6.07109 11.6867 6.01291 14.5195C5.95472 17.3531 5.88563 22.6613 10.832 24.1013H10.8366L10.832 26.3004C10.832 26.3004 10.7984 27.1913 11.3675 27.3704C12.0184 27.5813 12.3129 27.1677 14.3375 24.7495C17.7229 25.0431 20.323 24.3704 20.6184 24.2722C21.302 24.0431 25.1702 23.5313 25.7957 18.2231ZM14.6711 23.2022C14.6711 23.2022 12.5284 25.874 11.862 26.5677C11.6438 26.7931 11.4047 26.7722 11.4084 26.3249C11.4084 26.0313 11.4247 22.674 11.4247 22.674C7.23109 21.4722 7.47837 16.9522 7.52382 14.5876C7.56927 12.2222 8.002 10.2849 9.27837 8.98035C12.2229 6.21943 20.5293 6.8367 22.6457 8.8258C25.233 11.1194 24.3121 17.5995 24.3175 17.8204C23.7857 22.2513 20.6511 22.5322 20.0748 22.724C19.8284 22.8058 17.542 23.394 14.6711 23.2022Z" fill="#8E24AA"/>
<path d="M15.8563 9.49951C15.5062 9.49951 15.5062 10.045 15.8563 10.0495C18.5717 10.0704 20.8081 11.9632 20.8326 15.435C20.8326 15.8014 21.369 15.7968 21.3645 15.4304H21.3635C21.3345 11.6895 18.8926 9.52042 15.8563 9.49951Z" fill="#8E24AA"/>
<path d="M19.4275 14.8592C19.4194 15.221 19.9548 15.2383 19.9594 14.872C20.0039 12.8092 18.7321 11.1101 16.3421 10.931C15.9921 10.9056 15.9557 11.4556 16.3048 11.481C18.3775 11.6383 19.4694 13.0529 19.4275 14.8592Z" fill="#8E24AA"/>
<path d="M18.8552 17.2062C18.4062 16.9462 17.9489 17.108 17.7598 17.3634L17.3643 17.8752C17.1634 18.1352 16.788 18.1007 16.788 18.1007C14.048 17.3762 13.3152 14.5089 13.3152 14.5089C13.3152 14.5089 13.2816 14.1207 13.5325 13.9125L14.0271 13.5034C14.2743 13.307 14.4307 12.8343 14.1789 12.3698C13.5061 11.1543 13.0543 10.7352 12.8243 10.4134C12.5825 10.1107 12.2189 10.0425 11.8407 10.247H11.8325C11.0461 10.707 10.1852 11.568 10.4607 12.4543C10.9307 13.3889 11.7943 16.368 14.5471 18.6189C15.8407 19.6834 17.888 20.7743 18.7571 21.0262L18.7652 21.0389C19.6216 21.3243 20.4543 20.4298 20.8989 19.6198V19.6134C21.0962 19.2216 21.0307 18.8507 20.7425 18.608C20.2316 18.1098 19.4607 17.5598 18.8552 17.2062Z" fill="#8E24AA"/>
<path d="M16.7186 12.9607C17.5922 13.0116 18.0159 13.468 18.0613 14.4053C18.0777 14.7717 18.6095 14.7462 18.5931 14.3798C18.535 13.1562 17.8968 12.4744 16.7477 12.4107C16.3977 12.3898 16.3649 12.9398 16.7186 12.9607Z" fill="#8E24AA"/>
</svg>
