<svg width="32" height="32" viewBox="0 0 32 32" fill="none" xmlns="http://www.w3.org/2000/svg">
<rect width="32" height="32" rx="3" fill="white" fill-opacity="0.4"/>
<path d="M24.0576 17.0855C23.6668 16.592 23.7786 16.3724 24.0576 15.9313C24.0627 15.9262 27.2886 11.4685 27.621 9.95677L27.623 9.95577C27.7881 9.40485 27.623 8.99997 26.8243 8.99997H24.1815C23.5087 8.99997 23.1985 9.34744 23.0323 9.7362C23.0323 9.7362 21.6868 12.9571 19.7832 15.045C19.1689 15.6482 18.8848 15.8416 18.5495 15.8416C18.3843 15.8416 18.1275 15.6482 18.1275 15.0973V9.95577C18.1275 9.29507 17.9391 8.99997 17.3822 8.99997H13.2266C12.8046 8.99997 12.5538 9.30816 12.5538 9.5952C12.5538 10.2217 13.5056 10.3657 13.6043 12.1282V15.9524C13.6043 16.7904 13.4522 16.9445 13.1148 16.9445C12.2164 16.9445 10.0359 13.7105 8.74373 10.0091C8.48288 9.29104 8.22806 9.00098 7.55024 9.00098H4.90645C4.15208 9.00098 4 9.34845 4 9.73721C4 10.4241 4.89839 13.8394 8.17771 18.3515C10.3632 21.4314 13.4411 23.1002 16.241 23.1002C17.924 23.1002 18.1295 22.7296 18.1295 22.0921C18.1295 19.1491 17.9774 18.8712 18.8204 18.8712C19.2112 18.8712 19.8839 19.0645 21.4551 20.5501C23.2509 22.3116 23.546 23.1002 24.5511 23.1002H27.1939C27.9473 23.1002 28.329 22.7296 28.1094 21.9984C27.6069 20.4605 24.2107 17.297 24.0576 17.0855Z" fill="#326CB0"/>
</svg>
