<svg width="32" height="32" viewBox="0 0 32 32" fill="none" xmlns="http://www.w3.org/2000/svg">
<rect width="32" height="32" rx="3" fill="white" fill-opacity="0.4"/>
<path d="M16.3776 5.01272C10.5675 5.28937 5.98242 10.1281 6.00005 15.9449C6.00542 17.7165 6.43312 19.3887 7.18761 20.8662L6.0292 26.4893C5.96654 26.7935 6.24087 27.0598 6.54303 26.9883L12.053 25.6828C13.4686 26.388 15.0586 26.7953 16.7414 26.8209C22.6799 26.9116 27.6316 22.1963 27.8167 16.2599C28.0151 9.89657 22.7633 4.70861 16.3776 5.01272ZM22.9522 21.9522C21.3386 23.5659 19.1931 24.4545 16.9111 24.4545C15.5749 24.4545 14.2956 24.1547 13.1087 23.5635L12.3414 23.1813L8.9632 23.9816L9.67428 20.5298L9.29625 19.7895C8.68008 18.5828 8.36765 17.2779 8.36765 15.9111C8.36765 13.629 9.25631 11.4836 10.87 9.86994C12.4692 8.27072 14.6496 7.36759 16.9113 7.36759C19.1933 7.36765 21.3386 8.25631 22.9523 9.86989C24.5659 11.4835 25.4546 13.6289 25.4546 15.9109C25.4546 18.1726 24.5514 20.3531 22.9522 21.9522Z" fill="#7AD06D"/>
<path d="M22.207 18.2775L20.0935 17.6706C19.8156 17.5909 19.5164 17.6697 19.314 17.876L18.7971 18.4026C18.5792 18.6246 18.2485 18.6959 17.9601 18.5792C16.9603 18.1746 14.8572 16.3047 14.3201 15.3694C14.1652 15.0996 14.1908 14.7623 14.381 14.5161L14.8323 13.9323C15.009 13.7036 15.0463 13.3964 14.9294 13.132L14.0402 11.121C13.8273 10.6393 13.2117 10.4991 12.8096 10.8392C12.2197 11.338 11.5198 12.0962 11.4348 12.9361C11.2848 14.4168 11.9198 16.2835 14.3213 18.5249C17.0957 21.1143 19.3174 21.4564 20.7639 21.106C21.5844 20.9073 22.2401 20.1106 22.6539 19.4583C22.936 19.0135 22.7132 18.4229 22.207 18.2775Z" fill="#7AD06D"/>
</svg>
