<svg width="678" height="582" viewBox="0 0 678 582" fill="none" xmlns="http://www.w3.org/2000/svg">
<path d="M577.622 241.713C613.661 241.713 642.876 212.498 642.876 176.46C642.876 140.422 613.661 111.207 577.622 111.207C541.584 111.207 512.369 140.422 512.369 176.46C512.369 212.498 541.584 241.713 577.622 241.713Z" fill="#2A3347"/>
<path d="M639.861 168.58C639.861 201.614 615.308 228.92 583.473 233.241C580.587 233.626 577.627 233.833 574.622 233.833C570.197 233.833 565.876 233.389 561.702 232.56C531.85 226.552 509.369 200.193 509.369 168.58C509.369 139.01 529.053 114.027 556.034 106.02C561.924 104.274 568.17 103.342 574.622 103.342C578.633 103.342 582.57 103.712 586.374 104.407C616.787 109.942 639.861 136.568 639.861 168.58Z" fill="#70C4CB"/>
<path d="M639.861 168.58C639.861 201.614 615.308 228.92 583.473 233.241C583.562 230.666 583.576 228.061 583.31 226.744C582.674 223.666 582.614 216.798 582.555 214.149C582.496 211.5 584.82 201.051 584.82 201.051C584.82 201.051 587.528 189.404 587.336 184.564C587.143 179.739 583.813 171.066 583.813 171.066C583.813 171.066 578.47 161.92 576.754 158.975C575.037 156.044 572.595 152.655 572.092 147.89C571.588 143.139 574.016 139.616 574.622 136.804C575.214 134.007 580.35 127.14 581.046 121.945C581.549 118.097 584.746 108.921 586.374 104.407C616.788 109.942 639.861 136.568 639.861 168.58Z" fill="#BED35A"/>
<path d="M561.702 232.56C531.85 226.552 509.369 200.193 509.369 168.58C509.369 139.01 529.053 114.027 556.034 106.02C552.556 112.74 546.828 123.647 544.771 126.74C541.707 131.299 530.726 136.124 528.89 142.354C527.07 148.585 531.88 160.736 534.44 163.267C536.986 165.783 544.105 168.772 549.048 173.094C553.991 177.401 557.987 181.841 558.875 186.192C559.748 190.528 557.632 201.244 556.611 203.819C555.575 206.394 553.651 207.622 553.577 211.382C553.518 215.141 558.712 221.357 560.133 225.738C560.696 227.469 561.243 230.044 561.702 232.56Z" fill="#BED35A"/>
<path opacity="0.4" d="M554.272 113.128C586.211 101.352 621.43 116.145 635.758 146.322L636.022 146.224C623.555 112.411 586.038 95.1064 552.224 107.573C518.411 120.04 501.106 157.558 513.573 191.371L513.837 191.273C505.133 159.023 522.334 124.903 554.272 113.128Z" fill="white"/>
<path d="M396 475C509.218 475 601 383.218 601 270C601 156.782 509.218 65 396 65C282.782 65 191 156.782 191 270C191 383.218 282.782 475 396 475Z" fill="url(#paint0_linear_1240_3567)"/>
<path opacity="0.4" d="M493.193 128.509C499.474 128.509 504.566 123.418 504.566 117.137C504.566 110.856 499.474 105.764 493.193 105.764C486.912 105.764 481.82 110.856 481.82 117.137C481.82 123.418 486.912 128.509 493.193 128.509Z" fill="white"/>
<path opacity="0.6" d="M493.193 123.533C496.725 123.533 499.589 120.669 499.589 117.137C499.589 113.604 496.725 110.74 493.193 110.74C489.661 110.74 486.797 113.604 486.797 117.137C486.797 120.669 489.661 123.533 493.193 123.533Z" fill="white"/>
<g clip-path="url(#clip0_1240_3567)" filter="url(#filter0_d_1240_3567)">
<path d="M213.878 380.985L325.176 413.086C353.825 421.35 383.761 404.829 392.019 376.197L405.113 330.798C413.372 302.167 396.832 272.241 368.183 263.978L256.885 231.877C228.235 223.613 198.3 240.134 190.042 268.766L176.947 314.165C168.689 342.797 185.228 372.722 213.878 380.985Z" fill="#FBAE0D"/>
<path d="M302.4 283.063C352.805 297.601 405.444 268.551 419.974 218.177C434.503 167.803 405.42 115.182 355.015 100.643C304.609 86.105 251.97 115.156 237.441 165.529C222.911 215.903 251.995 268.525 302.4 283.063Z" fill="#CCCCCC"/>
<path d="M165.134 473.472L141.551 453.776C135.453 448.682 134.648 439.621 139.728 433.539L183.754 380.828C188.844 374.733 197.906 373.934 203.992 379.017L227.574 398.714C233.673 403.807 234.477 412.869 229.397 418.951L185.372 471.662C180.292 477.744 171.22 478.555 165.134 473.472Z" fill="#E6E6E6"/>
<path d="M202.147 452.504L155.591 413.619C155.147 413.248 154.472 413.309 154.102 413.752L152.102 416.147C151.731 416.591 151.792 417.265 152.236 417.636L198.793 456.521C199.236 456.892 199.911 456.831 200.281 456.388L202.282 453.993C202.663 453.537 202.591 452.875 202.147 452.504Z" fill="#B3B3B3"/>
<path d="M197.841 457.661L151.284 418.776C150.84 418.406 150.166 418.466 149.795 418.909L147.795 421.304C147.425 421.748 147.486 422.422 147.929 422.793L194.486 461.678C194.93 462.049 195.604 461.988 195.975 461.545L197.975 459.15C198.345 458.707 198.285 458.032 197.841 457.661Z" fill="#B3B3B3"/>
<path d="M193.321 463.072L146.765 424.187C146.321 423.816 145.646 423.876 145.276 424.32L143.688 426.221C143.318 426.664 143.379 427.339 143.822 427.709L190.379 466.594C190.823 466.965 191.498 466.905 191.868 466.461L193.455 464.561C193.836 464.104 193.765 463.443 193.321 463.072Z" fill="#B3B3B3"/>
<path d="M318.348 525.816L348.797 521.704C356.672 520.64 362.178 513.399 361.118 505.546L351.926 437.486C350.863 429.616 343.619 424.114 335.761 425.175L305.311 429.288C297.437 430.351 291.931 437.592 292.991 445.445L302.183 513.505C303.243 521.359 310.49 526.877 318.348 525.816Z" fill="#E6E6E6"/>
<path d="M298.188 488.357L358.302 480.238C358.875 480.161 359.414 480.571 359.491 481.144L359.909 484.236C359.986 484.809 359.575 485.347 359.002 485.425L298.888 493.543C298.315 493.621 297.777 493.21 297.699 492.638L297.282 489.545C297.202 488.956 297.615 488.434 298.188 488.357Z" fill="#B3B3B3"/>
<path d="M299.087 495.016L359.2 486.897C359.773 486.82 360.312 487.23 360.389 487.803L360.807 490.895C360.884 491.468 360.474 492.006 359.901 492.084L299.787 500.202C299.214 500.279 298.675 499.869 298.598 499.296L298.18 496.204C298.103 495.632 298.514 495.093 299.087 495.016Z" fill="#B3B3B3"/>
<path d="M300.03 502.002L360.144 493.883C360.717 493.806 361.255 494.216 361.333 494.789L361.664 497.243C361.742 497.816 361.331 498.354 360.758 498.432L300.644 506.55C300.071 506.627 299.532 506.217 299.455 505.644L299.124 503.19C299.044 502.601 299.457 502.079 300.03 502.002Z" fill="#B3B3B3"/>
<path d="M208.429 415.135L307.807 443.799C327.266 449.411 347.576 438.19 353.18 418.758L377.109 335.797C390.322 289.986 363.875 242.134 318.035 228.913C270.085 215.083 219.993 242.714 206.166 290.651L183.345 369.773C177.756 389.209 188.97 409.523 208.429 415.135Z" fill="#CCCCCC"/>
<path d="M308.467 262.029C347.248 273.215 387.748 250.864 398.927 212.107C410.106 173.349 387.729 132.863 348.948 121.677C310.167 110.492 269.666 132.843 258.488 171.6C247.309 210.357 269.685 250.844 308.467 262.029Z" fill="#2B2A70"/>
<path d="M243.908 290.44C254.49 264.092 252.054 238.311 238.465 232.855C224.876 227.399 205.282 244.334 194.699 270.681C184.116 297.028 186.553 322.81 200.142 328.266C213.73 333.722 233.325 316.787 243.908 290.44Z" fill="#FBAE0D"/>
<path d="M364.088 375.544C378.495 378.162 394.288 357.638 399.362 329.702C404.436 301.766 396.87 276.997 382.463 274.378C368.056 271.76 352.264 292.283 347.19 320.219C342.115 348.155 349.681 372.925 364.088 375.544Z" fill="#FBAE0D"/>
<path d="M444.051 293.444L444.648 293.487C448.114 293.768 451.162 291.176 451.442 287.71L451.887 282.173C452.166 278.708 449.572 275.658 446.106 275.376L445.509 275.334C442.044 275.052 438.995 277.645 438.716 281.11L438.271 286.647C437.991 290.112 440.586 293.162 444.051 293.444Z" fill="#CCCCCC"/>
<path d="M453.618 306.287L453.696 306.88C454.119 310.331 457.274 312.794 460.724 312.369L466.237 311.688C469.688 311.262 472.151 308.106 471.728 304.655L471.65 304.062C471.226 300.611 468.072 298.148 464.622 298.573L459.109 299.254C455.658 299.679 453.194 302.836 453.618 306.287Z" fill="#CCCCCC"/>
<path d="M451.086 298.914L451.551 299.287C454.24 301.493 458.213 301.119 460.43 298.443L463.958 294.168C466.163 291.481 465.786 287.507 463.109 285.289L462.643 284.916C459.955 282.709 455.981 283.084 453.765 285.759L450.236 290.035C448.008 292.723 448.408 296.696 451.086 298.914Z" fill="#CCCCCC"/>
<path d="M449.927 316.421L449.69 316.969C448.274 320.145 449.686 323.878 452.853 325.308L457.91 327.579C461.084 328.994 464.816 327.579 466.247 324.411L466.484 323.863C467.9 320.687 466.488 316.954 463.321 315.524L458.264 313.253C455.083 311.815 451.358 313.252 449.927 316.421Z" fill="#CCCCCC"/>
<path d="M358.732 306.579L362.84 335.135C363.805 341.925 370.115 346.632 376.893 345.666L382.038 344.933C388.832 343.972 393.539 337.666 392.57 330.892L387.732 297.177C386.768 290.387 380.457 285.68 373.68 286.646C364.033 288.022 357.348 296.953 358.732 306.579Z" fill="#CCCCCC"/>
<path d="M238.494 276.29L219.809 298.272C215.377 303.506 207.529 304.129 202.307 299.702L198.342 296.342C193.104 291.91 192.478 284.066 196.906 278.848L218.956 252.889C223.388 247.655 231.236 247.032 236.458 251.459C243.89 257.761 244.792 268.88 238.494 276.29Z" fill="#CCCCCC"/>
<path d="M390.795 334.263L443.45 327.583C455.151 326.098 463.453 315.41 461.968 303.699L461.733 301.849C460.249 290.155 449.555 281.86 437.838 283.346L385.183 290.026C373.482 291.511 365.18 302.2 366.665 313.91L366.9 315.761C368.384 327.455 379.078 335.75 390.795 334.263Z" fill="#E6E6E6"/>
<path d="M403.129 286.318L409.097 333.356C409.169 333.929 409.705 334.344 410.279 334.271L411.917 334.063C412.491 333.99 412.906 333.455 412.833 332.882L406.866 285.844C406.793 285.271 406.257 284.856 405.684 284.929L404.045 285.137C403.473 285.226 403.056 285.745 403.129 286.318Z" fill="#B3B3B3"/>
<path d="M407.93 285.709L413.898 332.747C413.97 333.32 414.506 333.735 415.079 333.662L416.718 333.454C417.292 333.381 417.707 332.846 417.634 332.273L411.666 285.235C411.594 284.662 411.058 284.247 410.485 284.32L408.846 284.528C408.274 284.617 407.857 285.136 407.93 285.709Z" fill="#B3B3B3"/>
<path d="M412.961 285.071L418.929 332.108C419.001 332.682 419.537 333.096 420.111 333.024L421.291 332.874C421.864 332.801 422.279 332.266 422.206 331.693L416.239 284.655C416.166 284.082 415.631 283.667 415.057 283.74L413.877 283.89C413.305 283.979 412.888 284.498 412.961 285.071Z" fill="#B3B3B3"/>
<path d="M171.02 215.6L170.492 215.318C167.409 213.711 166.21 209.893 167.818 206.811L170.391 201.888C171.999 198.806 175.82 197.606 178.903 199.213L179.431 199.495C182.514 201.103 183.713 204.92 182.105 208.002L179.532 212.926C177.924 216.008 174.103 217.207 171.02 215.6Z" fill="#CCCCCC"/>
<path d="M156.085 221.376L155.702 221.836C153.506 224.531 149.525 224.936 146.831 222.739L142.527 219.226C139.833 217.029 139.429 213.045 141.625 210.35L142.008 209.889C144.204 207.194 148.185 206.789 150.879 208.986L155.182 212.499C157.876 214.696 158.281 218.68 156.085 221.376Z" fill="#CCCCCC"/>
<path d="M162.155 216.484L161.562 216.552C158.112 216.988 154.948 214.555 154.497 211.11L153.788 205.611C153.352 202.163 155.787 199.001 159.235 198.549L159.828 198.481C163.278 198.045 166.442 200.478 166.893 203.923L167.602 209.421C168.057 212.883 165.602 216.032 162.155 216.484Z" fill="#CCCCCC"/>
<path d="M153.812 231.919L153.72 232.509C153.228 235.951 150.045 238.359 146.603 237.882L141.113 237.112C137.672 236.619 135.267 233.434 135.743 229.99L135.835 229.4C136.327 225.957 139.511 223.55 142.952 224.027L148.442 224.797C151.901 225.275 154.288 228.475 153.812 231.919Z" fill="#CCCCCC"/>
<path d="M194.357 278.511L153.348 244.815C144.234 237.328 142.9 223.859 150.394 214.739L151.578 213.298C159.061 204.19 172.53 202.864 181.656 210.362L222.666 244.058C231.779 251.546 233.113 265.014 225.619 274.135L224.435 275.576C216.952 284.684 203.483 286.01 194.357 278.511Z" fill="#E6E6E6"/>
<path d="M209.45 231.362L179.349 267.996C178.983 268.443 178.308 268.509 177.862 268.142L176.585 267.093C176.139 266.726 176.072 266.052 176.439 265.605L206.54 228.971C206.907 228.525 207.581 228.459 208.028 228.826L209.304 229.875C209.74 230.254 209.817 230.916 209.45 231.362Z" fill="#B3B3B3"/>
<path d="M205.71 228.289L175.609 264.924C175.242 265.37 174.568 265.436 174.122 265.069L172.845 264.02C172.398 263.653 172.332 262.979 172.699 262.533L202.8 225.898C203.167 225.452 203.841 225.386 204.288 225.753L205.564 226.802C206 227.182 206.077 227.843 205.71 228.289Z" fill="#B3B3B3"/>
<path d="M201.792 225.07L171.691 261.704C171.324 262.151 170.65 262.216 170.204 261.849L169.285 261.094C168.838 260.727 168.772 260.053 169.138 259.607L199.239 222.972C199.606 222.526 200.28 222.46 200.727 222.827L201.646 223.582C202.082 223.962 202.159 224.623 201.792 225.07Z" fill="#B3B3B3"/>
<path d="M309.371 140.662C340.486 127.103 340.574 133.384 337.244 130.038C334.135 128.487 318.816 123.459 295.528 137.959C278.91 148.307 274.24 159.217 272.408 168.718C272.109 172.515 273.074 176.912 273.765 179.642C275.248 185.505 278.257 154.221 309.371 140.662Z" fill="#EEEEEE" fill-opacity="0.96"/>
<path d="M270.028 186.084C270.028 186.441 265.517 199.612 263.86 199.612C262.203 199.612 263.44 189.27 263.528 187.584C263.633 185.584 267.028 168.584 269.528 178.585C271.038 184.044 270.028 185.728 270.028 186.084Z" fill="#EEEEEE" fill-opacity="0.95"/>
</g>
<circle cx="297.001" cy="309" r="23.5" stroke="#E6E6E6"/>
<path d="M304.601 298.065L311.103 299.672L296.297 326.362L296.328 315.309L304.601 298.065ZM295.338 295.775L294.966 326.033L289.6 324.707L288.856 294.173L295.338 295.775Z" fill="#DF9E15"/>
<defs>
<filter id="filter0_d_1240_3567" x="-34.999" y="-45" width="691.009" height="671.968" filterUnits="userSpaceOnUse" color-interpolation-filters="sRGB">
<feFlood flood-opacity="0" result="BackgroundImageFix"/>
<feColorMatrix in="SourceAlpha" type="matrix" values="0 0 0 0 0 0 0 0 0 0 0 0 0 0 0 0 0 0 127 0" result="hardAlpha"/>
<feOffset dx="10"/>
<feGaussianBlur stdDeviation="22.5"/>
<feColorMatrix type="matrix" values="0 0 0 0 0 0 0 0 0 0 0 0 0 0 0 0 0 0 0.2 0"/>
<feBlend mode="normal" in2="BackgroundImageFix" result="effect1_dropShadow_1240_3567"/>
<feBlend mode="normal" in="SourceGraphic" in2="effect1_dropShadow_1240_3567" result="shape"/>
</filter>
<linearGradient id="paint0_linear_1240_3567" x1="220.025" y1="28.0736" x2="495.794" y2="475.046" gradientUnits="userSpaceOnUse">
<stop stop-color="#2D0C4E"/>
<stop offset="1" stop-color="#362042" stop-opacity="0.27"/>
</linearGradient>
<clipPath id="clip0_1240_3567">
<rect width="491.716" height="463.867" fill="white" transform="translate(128.553) rotate(16.089)"/>
</clipPath>
</defs>
</svg>
