<svg width="363" height="370" viewBox="0 0 363 370" fill="none" xmlns="http://www.w3.org/2000/svg">
<path d="M311.674 149.492C334.076 149.492 352.237 131.43 352.237 109.149C352.237 86.8688 334.076 68.8069 311.674 68.8069C289.272 68.8069 271.111 86.8688 271.111 109.149C271.111 131.43 289.272 149.492 311.674 149.492Z" fill="#2A3347"/>
<path d="M350.362 104.278C350.362 124.7 335.1 141.582 315.31 144.254C313.516 144.492 311.676 144.62 309.809 144.62C307.058 144.62 304.372 144.345 301.777 143.833C283.221 140.118 269.246 123.822 269.246 104.278C269.246 85.9958 281.482 70.5506 298.254 65.6005C301.915 64.5208 305.798 63.9443 309.809 63.9443C312.302 63.9443 314.749 64.1731 317.114 64.6031C336.02 68.0252 350.362 84.4861 350.362 104.278Z" fill="#70C4CB"/>
<path d="M350.363 104.277C350.363 124.7 335.1 141.582 315.311 144.254C315.366 142.662 315.375 141.051 315.209 140.237C314.814 138.334 314.777 134.088 314.74 132.45C314.703 130.812 316.148 124.353 316.148 124.353C316.148 124.353 317.831 117.151 317.712 114.159C317.592 111.177 315.522 105.815 315.522 105.815C315.522 105.815 312.201 100.16 311.134 98.3391C310.067 96.5274 308.549 94.432 308.236 91.4857C307.923 88.5486 309.432 86.3709 309.809 84.6324C310.177 82.903 313.369 78.6574 313.802 75.4458C314.115 73.0668 316.102 67.3938 317.114 64.603C336.02 68.0251 350.363 84.486 350.363 104.277Z" fill="#BED35A"/>
<path d="M301.777 143.833C283.221 140.118 269.246 123.822 269.246 104.277C269.246 85.9957 281.482 70.5505 298.254 65.6003C296.092 69.7544 292.531 76.498 291.253 78.4103C289.348 81.2285 282.522 84.2114 281.381 88.0636C280.249 91.9157 283.239 99.4279 284.831 100.993C286.413 102.548 290.839 104.396 293.911 107.068C296.984 109.731 299.468 112.476 300.02 115.166C300.563 117.847 299.247 124.471 298.613 126.064C297.969 127.656 296.773 128.415 296.727 130.739C296.69 133.063 299.919 136.906 300.802 139.615C301.152 140.685 301.492 142.277 301.777 143.833Z" fill="#BED35A"/>
<path opacity="0.4" d="M297.16 69.9945C317.013 62.7144 338.906 71.8599 347.813 90.5166L347.977 90.4564C340.227 69.5518 316.905 58.8531 295.887 66.5605C274.868 74.2679 264.11 97.4631 271.86 118.368L272.024 118.308C266.613 98.3689 277.306 77.2746 297.16 69.9945Z" fill="white"/>
<path d="M219.56 293C281.422 293 331.571 236.364 331.571 166.5C331.571 96.636 281.422 40 219.56 40C157.698 40 107.549 96.636 107.549 166.5C107.549 236.364 157.698 293 219.56 293Z" fill="url(#paint0_linear_1240_5200)"/>
<path opacity="0.4" d="M272.39 79.2739C275.82 79.2739 278.602 76.133 278.602 72.2584C278.602 68.3839 275.82 65.2429 272.39 65.2429C268.959 65.2429 266.178 68.3839 266.178 72.2584C266.178 76.133 268.959 79.2739 272.39 79.2739Z" fill="white"/>
<path opacity="0.6" d="M272.39 76.2039C274.32 76.2039 275.884 74.4374 275.884 72.2583C275.884 70.0792 274.32 68.3127 272.39 68.3127C270.461 68.3127 268.896 70.0792 268.896 72.2583C268.896 74.4374 270.461 76.2039 272.39 76.2039Z" fill="white"/>
<g clip-path="url(#clip0_1240_5200)" filter="url(#filter0_d_1240_5200)">
<path d="M86.9348 235.019L155.591 254.822C173.264 259.919 191.731 249.728 196.825 232.066L204.903 204.06C209.997 186.398 199.794 167.938 182.121 162.841L113.465 143.038C95.7915 137.941 77.3251 148.132 72.2309 165.794L64.1534 193.799C59.0591 211.462 69.2616 229.922 86.9348 235.019Z" fill="#FBAE0D"/>
<path d="M141.542 174.614C172.636 183.582 205.108 165.661 214.071 134.587C223.033 103.513 205.093 71.0522 173.999 62.0839C142.906 53.1157 110.434 71.0361 101.471 102.11C92.5082 133.185 110.449 165.645 141.542 174.614Z" fill="#CCCCCC"/>
<path d="M56.8656 292.072L42.3181 279.922C38.5561 276.779 38.0598 271.19 41.1934 267.438L68.3515 234.922C71.4917 231.162 77.0815 230.669 80.8357 233.805L95.3832 245.955C99.1452 249.098 99.6416 254.687 96.5079 258.439L69.3498 290.955C66.2161 294.707 60.6198 295.208 56.8656 292.072Z" fill="#E6E6E6"/>
<path d="M79.6986 279.137L50.9791 255.15C50.7053 254.921 50.2892 254.959 50.0607 255.232L48.8268 256.709C48.5983 256.983 48.6358 257.399 48.9096 257.628L77.6291 281.615C77.9028 281.844 78.319 281.806 78.5475 281.533L79.7813 280.056C80.0164 279.774 79.9723 279.366 79.6986 279.137Z" fill="#B3B3B3"/>
<path d="M77.0423 282.319L48.3228 258.331C48.0491 258.103 47.633 258.14 47.4045 258.414L46.1706 259.891C45.9421 260.164 45.9796 260.581 46.2533 260.809L74.9728 284.796C75.2466 285.025 75.6627 284.988 75.8912 284.714L77.1251 283.237C77.3536 282.963 77.3161 282.547 77.0423 282.319Z" fill="#B3B3B3"/>
<path d="M74.2552 285.656L45.5357 261.669C45.262 261.44 44.8458 261.477 44.6173 261.751L43.6381 262.923C43.4096 263.197 43.4471 263.613 43.7208 263.842L72.4403 287.829C72.7141 288.058 73.1302 288.02 73.3587 287.747L74.338 286.574C74.573 286.293 74.529 285.885 74.2552 285.656Z" fill="#B3B3B3"/>
<path d="M151.38 324.361L170.164 321.825C175.021 321.169 178.418 316.702 177.764 311.858L172.094 269.873C171.438 265.018 166.97 261.624 162.122 262.279L143.339 264.816C138.481 265.472 135.084 269.938 135.739 274.783L141.409 316.767C142.063 321.612 146.533 325.016 151.38 324.361Z" fill="#E6E6E6"/>
<path d="M138.943 301.254L176.026 296.246C176.379 296.198 176.711 296.451 176.759 296.804L177.017 298.712C177.064 299.065 176.811 299.397 176.458 299.445L139.375 304.453C139.022 304.501 138.689 304.248 138.642 303.894L138.384 301.987C138.335 301.624 138.59 301.302 138.943 301.254Z" fill="#B3B3B3"/>
<path d="M139.498 305.361L176.58 300.353C176.934 300.306 177.266 300.559 177.314 300.912L177.571 302.82C177.619 303.173 177.366 303.505 177.012 303.553L139.93 308.561C139.576 308.608 139.244 308.355 139.196 308.002L138.939 306.095C138.891 305.741 139.144 305.409 139.498 305.361Z" fill="#B3B3B3"/>
<path d="M140.08 309.671L177.162 304.663C177.516 304.615 177.848 304.868 177.896 305.222L178.1 306.735C178.148 307.089 177.895 307.421 177.541 307.469L140.459 312.477C140.105 312.524 139.773 312.271 139.725 311.918L139.521 310.404C139.472 310.041 139.726 309.719 140.08 309.671Z" fill="#B3B3B3"/>
<path d="M83.5743 256.085L144.877 273.767C156.882 277.229 169.41 270.307 172.867 258.32L187.628 207.144C195.779 178.884 179.464 149.366 151.187 141.21C121.608 132.678 90.7073 149.723 82.1782 179.294L68.1005 228.103C64.6529 240.092 71.5702 252.623 83.5743 256.085Z" fill="#CCCCCC"/>
<path d="M145.284 161.639C169.207 168.539 194.191 154.751 201.087 130.843C207.982 106.934 194.179 81.9592 170.256 75.0591C146.333 68.1591 121.349 81.9469 114.453 105.855C107.558 129.763 121.361 154.738 145.284 161.639Z" fill="#2B2A70"/>
<path d="M105.459 179.164C111.987 162.911 110.484 147.007 102.102 143.642C93.7192 140.276 81.6317 150.723 75.1035 166.976C68.5753 183.229 70.0785 199.133 78.461 202.498C86.8434 205.864 98.9309 195.417 105.459 179.164Z" fill="#FBAE0D"/>
<path d="M179.595 231.662C188.482 233.278 198.224 220.617 201.354 203.384C204.484 186.151 199.817 170.872 190.93 169.256C182.042 167.641 172.3 180.302 169.17 197.535C166.04 214.768 170.708 230.047 179.595 231.662Z" fill="#FBAE0D"/>
<path d="M228.923 181.017L229.291 181.044C231.429 181.217 233.31 179.618 233.482 177.48L233.757 174.065C233.929 171.927 232.328 170.046 230.191 169.872L229.822 169.846C227.685 169.672 225.804 171.271 225.632 173.409L225.357 176.825C225.185 178.962 226.785 180.844 228.923 181.017Z" fill="#CCCCCC"/>
<path d="M234.823 188.94L234.872 189.306C235.133 191.434 237.078 192.954 239.207 192.691L242.608 192.271C244.736 192.009 246.256 190.062 245.995 187.933L245.947 187.567C245.686 185.438 243.74 183.919 241.611 184.181L238.21 184.601C236.082 184.864 234.562 186.811 234.823 188.94Z" fill="#CCCCCC"/>
<path d="M233.261 184.392L233.548 184.622C235.207 185.983 237.658 185.752 239.025 184.102L241.202 181.464C242.562 179.806 242.329 177.355 240.678 175.987L240.39 175.757C238.732 174.396 236.281 174.627 234.913 176.277L232.737 178.915C231.362 180.573 231.609 183.023 233.261 184.392Z" fill="#CCCCCC"/>
<path d="M232.547 195.191L232.401 195.529C231.527 197.489 232.398 199.791 234.352 200.673L237.471 202.074C239.429 202.947 241.732 202.075 242.614 200.12L242.76 199.782C243.634 197.822 242.763 195.52 240.809 194.638L237.69 193.237C235.727 192.35 233.429 193.236 232.547 195.191Z" fill="#CCCCCC"/>
<path d="M176.292 189.12L178.827 206.736C179.421 210.924 183.314 213.828 187.495 213.232L190.669 212.78C194.86 212.187 197.764 208.297 197.166 204.118L194.182 183.32C193.587 179.132 189.694 176.228 185.513 176.824C179.562 177.673 175.438 183.182 176.292 189.12Z" fill="#CCCCCC"/>
<path d="M102.119 170.436L90.5927 183.996C87.8585 187.224 83.0174 187.609 79.7961 184.878L77.3501 182.805C74.119 180.071 73.7328 175.233 76.4642 172.014L90.0662 156C92.8004 152.771 97.6414 152.387 100.863 155.118C105.447 159.005 106.004 165.865 102.119 170.436Z" fill="#CCCCCC"/>
<path d="M196.069 206.198L228.55 202.077C235.769 201.161 240.89 194.567 239.973 187.344L239.828 186.202C238.913 178.988 232.317 173.871 225.088 174.788L192.607 178.909C185.389 179.825 180.268 186.419 181.184 193.642L181.329 194.784C182.244 201.997 188.841 207.115 196.069 206.198Z" fill="#E6E6E6"/>
<path d="M203.678 176.622L207.359 205.638C207.404 205.992 207.734 206.247 208.088 206.203L209.099 206.074C209.453 206.029 209.709 205.699 209.664 205.346L205.983 176.33C205.938 175.976 205.607 175.72 205.254 175.765L204.243 175.893C203.89 175.948 203.633 176.268 203.678 176.622Z" fill="#B3B3B3"/>
<path d="M206.641 176.246L210.322 205.262C210.367 205.616 210.697 205.872 211.051 205.827L212.062 205.699C212.416 205.654 212.672 205.324 212.627 204.97L208.946 175.954C208.901 175.6 208.57 175.344 208.217 175.389L207.206 175.518C206.853 175.573 206.596 175.893 206.641 176.246Z" fill="#B3B3B3"/>
<path d="M209.744 175.852L213.425 204.869C213.47 205.222 213.801 205.478 214.154 205.433L214.882 205.341C215.236 205.296 215.492 204.966 215.447 204.612L211.766 175.596C211.721 175.242 211.391 174.986 211.037 175.031L210.309 175.124C209.957 175.179 209.699 175.499 209.744 175.852Z" fill="#B3B3B3"/>
<path d="M60.4985 132.998L60.1728 132.824C58.2709 131.832 57.531 129.477 58.5234 127.576L60.1101 124.539C61.1026 122.638 63.4592 121.898 65.3611 122.889L65.6868 123.063C67.5887 124.055 68.3286 126.41 67.3362 128.311L65.7495 131.348C64.757 133.249 62.4004 133.989 60.4985 132.998Z" fill="#CCCCCC"/>
<path d="M51.2845 136.56L51.0485 136.844C49.6938 138.507 47.2378 138.757 45.576 137.401L42.9212 135.234C41.2594 133.879 41.0099 131.421 42.3646 129.759L42.6006 129.475C43.9552 127.812 46.4112 127.562 48.073 128.918L50.7278 131.084C52.3896 132.44 52.6391 134.897 51.2845 136.56Z" fill="#CCCCCC"/>
<path d="M55.0298 133.543L54.6641 133.585C52.5355 133.854 50.584 132.353 50.3056 130.228L49.8681 126.836C49.5996 124.709 51.1017 122.758 53.2282 122.479L53.594 122.437C55.7225 122.169 57.674 123.669 57.9525 125.795L58.39 129.186C58.6704 131.321 57.1563 133.264 55.0298 133.543Z" fill="#CCCCCC"/>
<path d="M49.8838 143.064L49.8273 143.428C49.5234 145.552 47.5598 147.037 45.4366 146.743L42.0501 146.268C39.9276 145.964 38.4438 143.999 38.7376 141.874L38.7941 141.511C39.098 139.387 41.0616 137.902 43.1848 138.196L46.5713 138.671C48.7047 138.966 50.1776 140.94 49.8838 143.064Z" fill="#CCCCCC"/>
<path d="M74.8869 171.806L49.5894 151.02C43.9677 146.401 43.1445 138.093 47.7672 132.467L48.4978 131.578C53.114 125.959 61.4227 125.141 67.0522 129.767L92.3498 150.553C97.9715 155.172 98.7947 163.48 94.172 169.106L93.4414 169.995C88.8251 175.614 80.5165 176.432 74.8869 171.806Z" fill="#E6E6E6"/>
<path d="M84.1985 142.721L65.6301 165.32C65.4038 165.595 64.988 165.636 64.7124 165.409L63.9251 164.762C63.6495 164.536 63.6087 164.12 63.8349 163.845L82.4034 141.246C82.6297 140.971 83.0455 140.93 83.3211 141.157L84.1084 141.803C84.3775 142.038 84.4248 142.446 84.1985 142.721Z" fill="#B3B3B3"/>
<path d="M81.8919 140.826L63.3235 163.424C63.0972 163.7 62.6813 163.74 62.4058 163.514L61.6184 162.867C61.3428 162.64 61.302 162.225 61.5283 161.949L80.0967 139.351C80.323 139.075 80.7388 139.035 81.0144 139.261L81.8017 139.908C82.0709 140.142 82.1182 140.55 81.8919 140.826Z" fill="#B3B3B3"/>
<path d="M79.4739 138.839L60.9055 161.438C60.6792 161.714 60.2634 161.754 59.9878 161.528L59.4209 161.062C59.1453 160.835 59.1045 160.42 59.3308 160.144L77.8992 137.546C78.1255 137.27 78.5413 137.23 78.8169 137.456L79.3838 137.922C79.6529 138.156 79.7002 138.564 79.4739 138.839Z" fill="#B3B3B3"/>
<path d="M145.841 86.7704C165.035 78.4065 165.089 82.2806 163.035 80.2168C161.117 79.2599 151.667 76.1582 137.302 85.103C127.05 91.4862 124.169 98.2165 123.04 104.078C122.855 106.42 123.451 109.132 123.877 110.816C124.791 114.433 126.648 95.1343 145.841 86.7704Z" fill="#EEEEEE" fill-opacity="0.96"/>
<path d="M122.491 116.286C122.532 116.608 119.798 129.052 118.234 129.252C116.67 129.452 116.641 119.96 116.53 118.426C116.397 116.607 117.636 100.839 121.152 109.571C123.208 114.32 122.45 115.963 122.491 116.286Z" fill="#EEEEEE" fill-opacity="0.95"/>
<circle cx="131.5" cy="200.5" r="16.1562" stroke="#E6E6E6" stroke-width="0.6875"/>
<path d="M136.725 192.982L141.195 194.087L131.016 212.437L131.037 204.837L136.725 192.982ZM130.357 191.408L130.101 212.21L126.412 211.298L125.9 190.306L130.357 191.408Z" fill="#DF9E15"/>
</g>
<defs>
<filter id="filter0_d_1240_5200" x="-34.0898" y="-45" width="420.37" height="457.182" filterUnits="userSpaceOnUse" color-interpolation-filters="sRGB">
<feFlood flood-opacity="0" result="BackgroundImageFix"/>
<feColorMatrix in="SourceAlpha" type="matrix" values="0 0 0 0 0 0 0 0 0 0 0 0 0 0 0 0 0 0 127 0" result="hardAlpha"/>
<feOffset dx="10"/>
<feGaussianBlur stdDeviation="22.5"/>
<feColorMatrix type="matrix" values="0 0 0 0 0 0 0 0 0 0 0 0 0 0 0 0 0 0 0.2 0"/>
<feBlend mode="normal" in2="BackgroundImageFix" result="effect1_dropShadow_1240_5200"/>
<feBlend mode="normal" in="SourceGraphic" in2="effect1_dropShadow_1240_5200" result="shape"/>
</filter>
<linearGradient id="paint0_linear_1240_5200" x1="123.408" y1="17.2137" x2="302.026" y2="273.561" gradientUnits="userSpaceOnUse">
<stop stop-color="#231E33"/>
<stop offset="1" stop-color="#362042" stop-opacity="0.27"/>
</linearGradient>
<clipPath id="clip0_1240_5200">
<rect width="271.41" height="292.208" fill="white" transform="matrix(0.950828 0.30972 -0.247449 0.968901 73.2168 0)"/>
</clipPath>
</defs>
</svg>
