<svg width="261" height="488" viewBox="0 0 261 488" fill="none" xmlns="http://www.w3.org/2000/svg">
<ellipse cx="126.999" cy="453" rx="126" ry="30" transform="rotate(2 126.999 453)" fill="url(#paint0_linear_8_2)"/>
<path d="M197.442 456.885H162.137C153.007 456.885 145.623 449.487 145.623 440.381V361.468C145.623 352.343 153.026 344.964 162.137 344.964H197.442C206.573 344.964 213.956 352.362 213.956 361.468V440.381C213.956 449.487 206.554 456.885 197.442 456.885Z" fill="#CCCCCC"/>
<path d="M65.5209 354.449H198.619C232.881 354.449 260.669 326.677 260.669 292.437V238.145C260.669 203.905 232.881 176.134 198.619 176.134H65.5209C31.2593 176.134 3.47046 203.905 3.47046 238.145L3.47046 292.437C3.47046 326.677 31.2593 354.449 65.5209 354.449Z" fill="#2A541D"/>
<path d="M93.0441 456.885H57.7385C48.6084 456.885 41.2246 449.487 41.2246 440.381V361.468C41.2246 352.343 48.6274 344.964 57.7385 344.964H93.0441C102.174 344.964 109.558 352.362 109.558 361.468V440.381C109.558 449.487 102.155 456.885 93.0441 456.885Z" fill="#CCCCCC"/>
<path d="M132.069 218.151C192.348 218.151 241.213 169.317 241.213 109.076C241.213 48.8349 192.348 0 132.069 0C71.791 0 22.9258 48.8349 22.9258 109.076C22.9258 169.317 71.791 218.151 132.069 218.151Z" fill="#CCCCCC"/>
<path d="M70.3811 393.887H189.224C212.495 393.887 231.344 375.031 231.344 351.793V252.581C231.344 197.797 186.908 153.389 132.09 153.389C74.7468 153.389 28.2422 199.846 28.2422 257.172L28.2422 351.793C28.2612 375.031 47.1098 393.887 70.3811 393.887Z" fill="#D0D0D0"/>
<path d="M132.07 192.998C178.447 192.998 216.044 155.425 216.044 109.076C216.044 62.7269 178.447 25.1538 132.07 25.1538C85.6922 25.1538 48.0957 62.7269 48.0957 109.076C48.0957 155.425 85.6922 192.998 132.07 192.998Z" fill="#2B2A70"/>
<path d="M160.821 51.2162C130.635 35.7013 130.146 41.9631 133.683 38.8367C136.885 37.4869 152.493 33.4458 174.809 49.4014C190.734 60.7877 194.699 71.9736 195.92 81.5723C195.977 85.3804 194.733 89.7066 193.87 92.3873C192.016 98.1441 191.008 66.731 160.821 51.2162Z" fill="#EEEEEE" fill-opacity="0.96"/>
<path d="M195.514 100.494C195.491 100.851 199.153 114.282 200.806 114.387C202.46 114.493 201.886 104.094 201.905 102.406C201.928 100.403 199.624 83.2212 196.491 93.0416C194.636 98.3934 195.537 100.138 195.514 100.494Z" fill="#EEEEEE" fill-opacity="0.95"/>
<path d="M69.8417 244.922C73.1355 212.464 62.2355 184.776 45.4958 183.079C28.7561 181.383 12.5157 206.32 9.22184 238.777C5.928 271.235 16.828 298.923 33.5677 300.62C50.3074 302.317 66.5478 277.38 69.8417 244.922Z" fill="#2A541D"/>
<path d="M229.625 300.609C246.364 298.913 257.264 271.225 253.971 238.767C250.677 206.309 234.436 181.372 217.697 183.069C200.957 184.765 190.057 212.453 193.351 244.911C196.645 277.369 212.885 302.306 229.625 300.609Z" fill="#2A541D"/>
<path d="M201.752 226.176L215.38 256.394C218.607 263.584 227.073 266.771 234.248 263.546L239.696 261.099C246.89 257.874 250.078 249.414 246.852 242.243L230.774 206.561C227.547 199.371 219.082 196.185 211.907 199.409C201.695 204 197.158 215.989 201.752 226.176Z" fill="#CCCCCC"/>
<path d="M55.2894 227.024L41.6607 257.243C38.4338 264.432 29.9681 267.619 22.7931 264.394L17.3454 261.947C10.1514 258.722 6.96254 250.262 10.1894 243.091L26.2667 207.409C29.4936 200.22 37.9593 197.033 45.1343 200.258C55.3463 204.848 59.8829 216.837 55.2894 227.024Z" fill="#CCCCCC"/>
<circle cx="129" cy="263" r="23.5" stroke="#B3B3B3"/>
<path d="M164.492 277.394H225.479C239.032 277.394 250.041 266.41 250.041 252.847V250.704C250.041 237.159 239.051 226.157 225.479 226.157H164.492C150.939 226.157 139.93 237.14 139.93 250.704V252.847C139.93 266.391 150.92 277.394 164.492 277.394Z" fill="#E6E6E6"/>
<path d="M92.5493 278.242H31.5618C18.009 278.242 6.99979 267.259 6.99979 253.695V251.552C6.99979 238.008 17.99 227.005 31.5618 227.005H92.5493C106.102 227.005 117.111 237.989 117.111 251.552V253.695C117.111 267.24 106.121 278.242 92.5493 278.242Z" fill="#E6E6E6"/>
<path d="M185.484 224.525V279.006C185.484 279.67 186.035 280.22 186.699 280.22H188.597C189.262 280.22 189.812 279.67 189.812 279.006V224.525C189.812 223.861 189.262 223.311 188.597 223.311H186.699C186.035 223.33 185.484 223.861 185.484 224.525Z" fill="#B3B3B3"/>
<path d="M71.5547 225.374V279.855C71.5547 280.519 71.0042 281.069 70.3399 281.069H68.4417C67.7774 281.069 67.2269 280.519 67.2269 279.855V225.374C67.2269 224.71 67.7774 224.16 68.4417 224.16H70.3399C71.0042 224.179 71.5547 224.71 71.5547 225.374Z" fill="#B3B3B3"/>
<path d="M191.047 224.525V279.006C191.047 279.67 191.597 280.22 192.262 280.22H194.16C194.824 280.22 195.375 279.67 195.375 279.006V224.525C195.375 223.861 194.824 223.311 194.16 223.311H192.262C191.597 223.33 191.047 223.861 191.047 224.525Z" fill="#B3B3B3"/>
<path d="M65.9941 225.374V279.855C65.9941 280.519 65.4436 281.069 64.7793 281.069H62.8811C62.2168 281.069 61.6663 280.519 61.6663 279.855V225.374C61.6663 224.71 62.2168 224.16 62.8811 224.16H64.7793C65.4436 224.179 65.9941 224.71 65.9941 225.374Z" fill="#B3B3B3"/>
<path d="M196.873 224.525V279.006C196.873 279.67 197.424 280.22 198.088 280.22H199.455C200.119 280.22 200.669 279.67 200.669 279.006V224.525C200.669 223.861 200.119 223.311 199.455 223.311H198.088C197.424 223.33 196.873 223.861 196.873 224.525Z" fill="#B3B3B3"/>
<path d="M60.168 225.374V279.855C60.168 280.519 59.6175 281.069 58.9531 281.069H57.5865C56.9221 281.069 56.3716 280.519 56.3716 279.855V225.374C56.3716 224.71 56.9221 224.16 57.5865 224.16H58.9531C59.6175 224.179 60.168 224.71 60.168 225.374Z" fill="#B3B3B3"/>
<path d="M214.64 411.13H144.94C144.275 411.13 143.725 411.68 143.725 412.344V415.929C143.725 416.593 144.275 417.143 144.94 417.143H214.64C215.304 417.143 215.854 416.593 215.854 415.929V412.344C215.854 411.661 215.304 411.13 214.64 411.13Z" fill="#B3B3B3"/>
<path d="M214.64 418.851H144.94C144.275 418.851 143.725 419.401 143.725 420.065V423.65C143.725 424.314 144.275 424.864 144.94 424.864H214.64C215.304 424.864 215.854 424.314 215.854 423.65V420.065C215.854 419.401 215.304 418.851 214.64 418.851Z" fill="#B3B3B3"/>
<path d="M214.64 426.951H144.94C144.275 426.951 143.725 427.501 143.725 428.165V431.01C143.725 431.674 144.275 432.225 144.94 432.225H214.64C215.304 432.225 215.854 431.674 215.854 431.01V428.165C215.854 427.482 215.304 426.951 214.64 426.951Z" fill="#B3B3B3"/>
<path d="M110.241 411.13H40.541C39.8766 411.13 39.3262 411.68 39.3262 412.344V415.929C39.3262 416.593 39.8766 417.143 40.541 417.143H110.241C110.905 417.143 111.456 416.593 111.456 415.929V412.344C111.456 411.661 110.905 411.13 110.241 411.13Z" fill="#B3B3B3"/>
<path d="M110.241 418.851H40.541C39.8766 418.851 39.3262 419.401 39.3262 420.065V423.65C39.3262 424.314 39.8766 424.864 40.541 424.864H110.241C110.905 424.864 111.456 424.314 111.456 423.65V420.065C111.456 419.401 110.905 418.851 110.241 418.851Z" fill="#B3B3B3"/>
<path d="M110.241 426.951H40.541C39.8766 426.951 39.3262 427.501 39.3262 428.165V431.01C39.3262 431.674 39.8766 432.225 40.541 432.225H110.241C110.905 432.225 111.456 431.674 111.456 431.01V428.165C111.456 427.482 110.905 426.951 110.241 426.951Z" fill="#B3B3B3"/>
<path d="M133.219 250H139.916L131.948 279.463L129.325 268.725L133.219 250ZM123.677 250L130.576 279.463H125.049L117 250H123.677Z" fill="#DF9E15"/>
<defs>
<linearGradient id="paint0_linear_8_2" x1="0.999308" y1="413.571" x2="23.7002" y2="532.07" gradientUnits="userSpaceOnUse">
<stop stop-color="#30045C"/>
<stop offset="1" stop-color="#58048B"/>
</linearGradient>
</defs>
</svg>
