<svg width="321" height="488" viewBox="0 0 321 488" fill="none" xmlns="http://www.w3.org/2000/svg">
<ellipse cx="126.999" cy="453" rx="126" ry="30" transform="rotate(2 126.999 453)" fill="url(#paint0_linear_10_37)"/>
<path d="M199.442 456.885H164.137C155.007 456.885 147.623 449.487 147.623 440.381V361.468C147.623 352.343 155.026 344.964 164.137 344.964H199.442C208.573 344.964 215.956 352.362 215.956 361.468V440.381C215.956 449.487 208.554 456.885 199.442 456.885Z" fill="#CCCCCC"/>
<path d="M67.5212 354.449H200.619C234.881 354.449 262.67 326.677 262.67 292.437V238.146C262.67 203.905 234.881 176.134 200.619 176.134H67.5212C33.2596 176.134 5.4707 203.905 5.4707 238.146L5.4707 292.437C5.4707 326.677 33.2596 354.449 67.5212 354.449Z" fill="#FB7A0D"/>
<path d="M95.0441 456.885H59.7385C50.6084 456.885 43.2246 449.487 43.2246 440.381V361.468C43.2246 352.343 50.6274 344.964 59.7385 344.964H95.0441C104.174 344.964 111.558 352.362 111.558 361.468V440.381C111.558 449.487 104.155 456.885 95.0441 456.885Z" fill="#CCCCCC"/>
<path d="M134.069 218.151C194.348 218.151 243.213 169.317 243.213 109.076C243.213 48.8349 194.348 0 134.069 0C73.791 0 24.9258 48.8349 24.9258 109.076C24.9258 169.317 73.791 218.151 134.069 218.151Z" fill="#CCCCCC"/>
<path d="M72.3811 393.886H191.224C214.495 393.886 233.344 375.031 233.344 351.793V252.581C233.344 197.797 188.908 153.389 134.09 153.389C76.7468 153.389 30.2422 199.845 30.2422 257.172L30.2422 351.793C30.2612 375.031 49.1098 393.886 72.3811 393.886Z" fill="#D0D0D0"/>
<path d="M134.07 192.998C180.447 192.998 218.044 155.425 218.044 109.076C218.044 62.7269 180.447 25.1538 134.07 25.1538C87.6922 25.1538 50.0957 62.7269 50.0957 109.076C50.0957 155.425 87.6922 192.998 134.07 192.998Z" fill="#2B2A70"/>
<path d="M162.821 51.2162C132.635 35.7013 132.146 41.9631 135.683 38.8367C138.885 37.4869 154.493 33.4458 176.809 49.4014C192.734 60.7877 196.699 71.9736 197.92 81.5723C197.977 85.3804 196.733 89.7066 195.87 92.3873C194.016 98.1441 193.008 66.731 162.821 51.2162Z" fill="#EEEEEE" fill-opacity="0.96"/>
<path d="M197.514 100.494C197.491 100.85 201.153 114.282 202.806 114.387C204.46 114.493 203.886 104.093 203.905 102.406C203.928 100.403 201.624 83.221 198.491 93.0413C196.636 98.3932 197.537 100.138 197.514 100.494Z" fill="#EEEEEE" fill-opacity="0.95"/>
<path d="M71.8417 244.922C75.1355 212.464 64.2355 184.776 47.4958 183.079C30.7561 181.383 14.5157 206.32 11.2218 238.777C7.928 271.235 18.828 298.923 35.5677 300.62C52.3074 302.317 68.5478 277.38 71.8417 244.922Z" fill="#FB7A0D"/>
<path d="M231.625 300.609C248.364 298.913 259.264 271.225 255.971 238.767C252.677 206.309 236.436 181.372 219.697 183.069C202.957 184.765 192.057 212.453 195.351 244.911C198.645 277.369 214.885 302.306 231.625 300.609Z" fill="#FB7A0D"/>
<path d="M57.2894 227.024L43.6607 257.243C40.4338 264.432 31.9681 267.619 24.7931 264.394L19.3454 261.947C12.1514 258.722 8.96254 250.262 12.1894 243.091L28.2667 207.409C31.4936 200.22 39.9593 197.033 47.1343 200.258C57.3463 204.848 61.8829 216.837 57.2894 227.024Z" fill="#CCCCCC"/>
<circle cx="131" cy="263" r="23.5" stroke="#B3B3B3"/>
<path d="M94.5493 278.242H33.5618C20.009 278.242 8.99978 267.259 8.99978 253.695V251.552C8.99978 238.007 19.99 227.005 33.5618 227.005H94.5493C108.102 227.005 119.111 237.988 119.111 251.552V253.695C119.111 267.24 108.121 278.242 94.5493 278.242Z" fill="#E6E6E6"/>
<path d="M73.5547 225.374V279.855C73.5547 280.519 73.0042 281.069 72.3399 281.069H70.4417C69.7774 281.069 69.2269 280.519 69.2269 279.855V225.374C69.2269 224.71 69.7774 224.16 70.4417 224.16H72.3399C73.0042 224.179 73.5547 224.71 73.5547 225.374Z" fill="#B3B3B3"/>
<path d="M67.9941 225.374V279.855C67.9941 280.519 67.4436 281.069 66.7793 281.069H64.8811C64.2168 281.069 63.6663 280.519 63.6663 279.855V225.374C63.6663 224.71 64.2168 224.16 64.8811 224.16H66.7793C67.4436 224.179 67.9941 224.71 67.9941 225.374Z" fill="#B3B3B3"/>
<path d="M62.168 225.374V279.855C62.168 280.519 61.6175 281.069 60.9531 281.069H59.5865C58.9221 281.069 58.3716 280.519 58.3716 279.855V225.374C58.3716 224.71 58.9221 224.16 59.5865 224.16H60.9531C61.6175 224.179 62.168 224.71 62.168 225.374Z" fill="#B3B3B3"/>
<path d="M216.639 411.13H146.939C146.275 411.13 145.725 411.68 145.725 412.344V415.929C145.725 416.593 146.275 417.143 146.939 417.143H216.639C217.304 417.143 217.854 416.593 217.854 415.929V412.344C217.854 411.661 217.304 411.13 216.639 411.13Z" fill="#B3B3B3"/>
<path d="M216.639 418.851H146.939C146.275 418.851 145.725 419.401 145.725 420.065V423.65C145.725 424.314 146.275 424.864 146.939 424.864H216.639C217.304 424.864 217.854 424.314 217.854 423.65V420.065C217.854 419.401 217.304 418.851 216.639 418.851Z" fill="#B3B3B3"/>
<path d="M216.639 426.951H146.939C146.275 426.951 145.725 427.501 145.725 428.165V431.011C145.725 431.675 146.275 432.225 146.939 432.225H216.639C217.304 432.225 217.854 431.675 217.854 431.011V428.165C217.854 427.482 217.304 426.951 216.639 426.951Z" fill="#B3B3B3"/>
<path d="M112.241 411.13H42.541C41.8766 411.13 41.3262 411.68 41.3262 412.344V415.929C41.3262 416.593 41.8766 417.143 42.541 417.143H112.241C112.905 417.143 113.456 416.593 113.456 415.929V412.344C113.456 411.661 112.905 411.13 112.241 411.13Z" fill="#B3B3B3"/>
<path d="M112.241 418.851H42.541C41.8766 418.851 41.3262 419.401 41.3262 420.065V423.65C41.3262 424.314 41.8766 424.864 42.541 424.864H112.241C112.905 424.864 113.456 424.314 113.456 423.65V420.065C113.456 419.401 112.905 418.851 112.241 418.851Z" fill="#B3B3B3"/>
<path d="M112.241 426.951H42.541C41.8766 426.951 41.3262 427.501 41.3262 428.165V431.011C41.3262 431.675 41.8766 432.225 42.541 432.225H112.241C112.905 432.225 113.456 431.675 113.456 431.011V428.165C113.456 427.482 112.905 426.951 112.241 426.951Z" fill="#B3B3B3"/>
<path d="M135.219 250H141.916L133.948 279.463L131.325 268.725L135.219 250ZM125.677 250L132.576 279.463H127.049L119 250H125.677Z" fill="#DF9E15"/>
<path d="M287.156 181.087L287.732 180.924C291.086 180.01 293.071 176.534 292.154 173.181L290.688 167.823C289.772 164.469 286.294 162.484 282.94 163.399L282.364 163.562C279.009 164.476 277.025 167.952 277.942 171.305L279.408 176.663C280.324 180.017 283.802 182.002 287.156 181.087Z" fill="#CCCCCC"/>
<path d="M300.523 189.908L300.799 190.439C302.372 193.54 306.176 194.783 309.275 193.209L314.228 190.692C317.327 189.118 318.57 185.312 316.998 182.211L316.722 181.68C315.15 178.579 311.345 177.336 308.246 178.91L303.293 181.427C300.194 183.001 298.951 186.807 300.523 189.908Z" fill="#CCCCCC"/>
<path d="M295.634 183.837L296.199 184.029C299.478 185.189 303.086 183.485 304.26 180.214L306.123 174.993C307.282 171.716 305.575 168.108 302.303 166.933L301.738 166.741C298.459 165.581 294.85 167.285 293.677 170.556L291.814 175.777C290.633 179.062 292.362 182.662 295.634 183.837Z" fill="#CCCCCC"/>
<path d="M300.503 200.693L300.467 201.289C300.216 204.758 302.814 207.787 306.278 208.054L311.806 208.469C315.273 208.719 318.301 206.119 318.568 202.652L318.604 202.057C318.855 198.588 316.257 195.559 312.793 195.292L307.264 194.877C303.784 194.608 300.77 197.227 300.503 200.693Z" fill="#CCCCCC"/>
<path d="M258.156 257.147L302.249 215.013C312.048 205.65 312.419 190.103 303.049 180.297L301.568 178.747C292.211 168.955 276.664 168.593 266.852 177.969L222.758 220.102C212.96 229.465 212.588 245.012 221.958 254.818L223.439 256.368C232.796 266.161 248.343 266.523 258.156 257.147Z" fill="#E6E6E6"/>
<path d="M236.809 204.42L274.448 243.809C274.907 244.289 275.685 244.307 276.165 243.848L277.537 242.536C278.018 242.077 278.036 241.299 277.577 240.819L239.938 201.43C239.48 200.95 238.702 200.932 238.221 201.391L236.849 202.703C236.382 203.175 236.351 203.94 236.809 204.42Z" fill="#B3B3B3"/>
<path d="M240.831 200.577L278.469 239.967C278.928 240.447 279.706 240.464 280.186 240.005L281.559 238.694C282.039 238.235 282.057 237.457 281.598 236.977L243.96 197.588C243.501 197.108 242.723 197.09 242.243 197.549L240.871 198.86C240.403 199.333 240.372 200.097 240.831 200.577Z" fill="#B3B3B3"/>
<path d="M245.044 196.552L282.682 235.941C283.141 236.421 283.919 236.438 284.399 235.979L285.387 235.035C285.868 234.576 285.886 233.798 285.427 233.318L247.789 193.929C247.33 193.449 246.552 193.431 246.071 193.89L245.083 194.835C244.616 195.307 244.585 196.072 245.044 196.552Z" fill="#B3B3B3"/>
<defs>
<linearGradient id="paint0_linear_10_37" x1="0.999308" y1="413.572" x2="23.7002" y2="532.07" gradientUnits="userSpaceOnUse">
<stop stop-color="#30045C"/>
<stop offset="1" stop-color="#58048B"/>
</linearGradient>
</defs>
</svg>
