<svg width="78" height="80" viewBox="0 0 78 80" fill="none" xmlns="http://www.w3.org/2000/svg">
<path d="M60.5352 17.4636L70.9987 7L70.9987 66.7682C70.9987 69.6576 68.6564 71.9999 65.767 71.9999C62.8775 71.9999 60.5352 69.6576 60.5352 66.7682L60.5352 17.4636Z" fill="#FDCA4A"/>
<path d="M46.9023 31.0977L57.3659 20.6341L57.3659 67C57.3659 69.7614 55.1274 72 52.3659 72H51.9023C49.1409 72 46.9023 69.7614 46.9023 67L46.9023 31.0977Z" fill="#FFA926"/>
<path d="M33.2695 44.7318L43.7331 34.2682L43.7331 67C43.7331 69.7614 41.4945 72 38.7331 72H38.2695C35.5081 72 33.2695 69.7614 33.2695 67V44.7318Z" fill="#F9872E"/>
<path d="M19.6328 58.3659L30.0964 47.9023L30.0964 67C30.0964 69.7614 27.8578 72 25.0964 72H24.6328C21.8714 72 19.6328 69.7615 19.6328 67L19.6328 58.3659Z" fill="#FB6B0A"/>
<path d="M6 72L16.3815 61.6185L16.3803 67.0011C16.3797 69.7621 14.1413 72 11.3803 72L6 72Z" fill="#FB580B"/>
<path d="M6 12.0001C6 9.23864 8.23858 7.00007 11 7.00007L71 7.00006L60.5364 17.4637L11 17.4637C8.23857 17.4637 6 15.2251 6 12.4637L6 12.0001Z" fill="#E4B643"/>
<path d="M6 25.6341C6 22.8727 8.23858 20.6341 11 20.6341L57.3659 20.6341L46.9023 31.0977L11 31.0977C8.23858 31.0977 6 28.8591 6 26.0977L6 25.6341Z" fill="#E69822"/>
<path d="M6 39.2681C6 36.5067 8.23858 34.2682 11 34.2682L43.7318 34.2682L33.2682 44.7317H11C8.23857 44.7317 6 42.4932 6 39.7317L6 39.2681Z" fill="#E17A29"/>
<path d="M6 52.9023C6 50.1408 8.23858 47.9023 11 47.9023L30.0977 47.9023L19.6341 58.3658L11 58.3658C8.23857 58.3658 6 56.1273 6 53.3658L6 52.9023Z" fill="#E26109"/>
<path d="M6 66.6195C6 63.8586 8.23789 61.6202 10.9989 61.6195L16.3815 61.6183L6 71.9998L6 66.6195Z" fill="#E24F0A"/>
</svg>
