<svg width="44" height="80" viewBox="0 0 44 80" fill="none" xmlns="http://www.w3.org/2000/svg">
<path fill-rule="evenodd" clip-rule="evenodd" d="M24 0H20V14C8.9543 14 0 22.9543 0 34V60C0 71.0457 8.9543 80 20 80H24C35.0457 80 44 71.0457 44 60V34C44 22.9543 35.0457 14 24 14V0ZM24 19H20C11.7157 19 5 25.7157 5 34V60C5 68.2843 11.7157 75 20 75H24C32.2843 75 39 68.2843 39 60V34C39 25.7157 32.2843 19 24 19ZM15.5 36C15.5 32.4101 18.4101 29.5 22 29.5C25.5899 29.5 28.5 32.4101 28.5 36V37C28.5 40.5899 25.5899 43.5 22 43.5C18.4101 43.5 15.5 40.5899 15.5 37V36ZM22 32.5C20.067 32.5 18.5 34.067 18.5 36V37C18.5 38.933 20.067 40.5 22 40.5C23.933 40.5 25.5 38.933 25.5 37V36C25.5 34.067 23.933 32.5 22 32.5Z" fill="white"/>
</svg>
