<svg width="330" height="236" viewBox="0 0 330 236" fill="none" xmlns="http://www.w3.org/2000/svg">
<path d="M306.571 151.233C302.543 148.151 296.94 143.071 292.669 136.143C285.162 123.979 281.542 112.586 284.576 110.712C287.624 108.833 296.171 117.174 303.678 129.338C307.977 136.318 310.002 143.637 310.958 148.62C310.007 149.135 309.039 149.699 308.065 150.294C307.552 150.606 307.056 150.929 306.571 151.233Z" fill="#006837"/>
<path d="M306.572 151.233C307.053 150.915 307.553 150.606 308.066 150.294C309.04 149.699 309.998 149.152 310.959 148.62C318.634 144.422 325.353 142.717 326.647 144.832C328.097 147.204 322.127 153.499 313.319 158.884C304.511 164.268 296.188 166.718 294.738 164.346C293.37 162.116 298.585 156.404 306.572 151.233Z" fill="#75BF52"/>
<path d="M46.8061 218.872C48.8188 214.217 51.2326 207.049 51.5824 198.918C52.2036 184.638 49.8081 172.926 46.245 172.769C42.668 172.616 39.2739 184.066 38.6526 198.346C38.3034 206.537 40.1056 213.914 41.7013 218.73C42.7825 218.716 43.9025 218.737 45.0436 218.781C45.6438 218.803 46.2337 218.843 46.8061 218.872Z" fill="#006837"/>
<path d="M46.8054 218.872C46.2294 218.828 45.6431 218.803 45.0429 218.781C43.9018 218.736 42.7994 218.726 41.7006 218.73C32.9528 218.808 26.2552 220.596 26.1573 223.074C26.0483 225.852 34.3303 228.436 44.6457 228.841C54.961 229.247 63.4223 227.326 63.5313 224.548C63.6384 221.934 56.2996 219.491 46.8054 218.872Z" fill="#75BF52"/>
<path d="M19.4724 171.253C26.079 196.626 96.5955 201.701 176.54 180.885C256.484 160.069 315.57 121.247 308.964 95.8746C308.449 93.8982 306.277 83.615 306.228 90.1072C306.18 96.5994 222.358 54.5211 148.635 73.7173C76.8466 92.4098 41.3631 198.249 19.365 162.736C17.0935 159.092 18.7984 168.665 19.4724 171.253Z" fill="#75BF52"/>
<path d="M17.3673 161.399C23.9739 186.771 94.1279 190.455 174.072 169.638C254.016 148.822 313.465 111.392 306.858 86.0201C306.344 84.0438 304.171 73.7605 304.123 80.2527C304.075 86.7449 220.239 44.6702 146.53 63.8628C74.7415 82.5553 39.258 188.394 17.2599 152.882C14.9884 149.238 16.6933 158.81 17.3673 161.399Z" fill="#66A047"/>
<path d="M15.5834 154.432C22.1899 179.804 91.2568 179.312 171.201 158.496C251.145 137.68 311.681 104.425 305.074 79.0533C298.468 53.681 224.69 36.0798 144.746 56.896C64.8017 77.7121 8.97685 129.06 15.5834 154.432Z" fill="#75BF52"/>
<path d="M100.841 69.3839C96.0958 88.2599 94.8516 105.912 95.8518 109.754C98.0552 118.216 126.24 118.189 158.822 109.705C191.404 101.221 216.023 87.4988 213.819 79.0368C212.884 75.446 204.395 62.3639 192.448 49.1272" fill="#006837"/>
<path d="M89.981 79.6723C86.7591 50.4613 105.348 22.5412 134.631 14.9163C164.109 7.24072 194.163 23.1787 204.804 50.9778C205.291 51.8766 205.674 52.8321 205.942 53.862L206.833 57.2858L207.138 58.4549L207.649 60.4173C209.617 67.9747 207.727 75.6151 203.22 81.3065L203.21 81.3241C201.083 84.0029 198.398 86.2476 195.233 87.8447C186.657 93.0945 172.918 98.6039 156.996 102.75C141.102 106.888 126.466 108.782 116.406 108.385C105.339 108.918 95.0371 101.659 92.1343 90.5103L91.5581 88.2974L90.3622 83.7045C90.0143 82.3684 89.8963 81.0021 89.981 79.6723Z" fill="#EFDE3F"/>
<path d="M176.98 34.542C171.284 30.4088 167.435 26.0003 168.382 24.6954C169.329 23.3904 174.714 25.6832 180.409 29.8164C186.105 33.9497 189.954 38.3582 189.007 39.6631C188.06 40.968 182.675 38.6753 176.98 34.542Z" fill="white"/>
<path d="M256.229 101.023C252.56 98.2366 253.227 91.1835 257.718 85.269C262.209 79.3546 268.824 76.8185 272.493 79.6045C276.162 82.3904 275.495 89.4435 271.004 95.358C266.513 101.272 259.898 103.809 256.229 101.023Z" fill="#CCCCCC"/>
<path d="M189.998 131.842C188.405 127.519 192.764 121.933 199.732 119.365C206.701 116.798 213.642 118.221 215.234 122.544C216.827 126.867 212.469 132.453 205.5 135.02C198.531 137.588 191.59 136.165 189.998 131.842Z" fill="#CCCCCC"/>
<path d="M130.858 152.922C123.481 153.782 117.069 150.771 116.535 146.195C116.001 141.619 121.548 137.212 128.924 136.351C136.3 135.49 142.713 138.502 143.247 143.078C143.781 147.653 138.234 152.061 130.858 152.922Z" fill="#CCCCCC"/>
<path d="M52.9073 147.898C45.9742 145.237 41.6925 139.592 43.3437 135.292C44.995 130.991 51.9539 129.662 58.887 132.324C65.8201 134.986 70.1018 140.63 68.4506 144.931C66.7993 149.232 59.8404 150.56 52.9073 147.898Z" fill="#CCCCCC"/>
</svg>
