<svg width="480" height="791" viewBox="0 0 480 791" fill="none" xmlns="http://www.w3.org/2000/svg">
<ellipse cx="465.393" cy="461.473" rx="16.4753" ry="89.2415" transform="rotate(-30 465.393 461.473)" fill="#2B2A70"/>
<ellipse cx="332.223" cy="538.357" rx="16.4753" ry="89.2415" transform="rotate(-30 332.223 538.357)" fill="#2B2A70"/>
<path d="M368.082 567.837C354.696 583.403 360.872 551.507 365.633 533.613L448.09 492.526C494.367 516.171 482.747 518.347 471.153 516.479C503.818 557.47 497.34 558.798 490.018 554.338C511.063 620.023 500.958 614.911 493.276 604.144C505.02 638.88 496.594 673.148 490.914 685.94C459.529 678.783 434.097 651.006 425.305 638.013C434.378 671.855 402.588 628.714 385.559 602.913C383.967 623.166 373.244 587.968 368.082 567.837Z" fill="#FB930D"/>
<path d="M375.555 539.435C366.207 538.53 370.742 530.706 374.179 526.908C390.239 514.964 425.754 491.75 439.33 494.444C452.906 497.138 448.503 502.623 444.605 505.03C476.402 535.364 468.403 538.84 460.428 536.786C468.195 557.953 466.843 613.568 457.829 618.059C448.815 622.55 406.015 588.008 391.379 571.192C383.79 588.326 377.668 557.16 375.555 539.435Z" fill="#F3F823"/>
<path d="M223.863 155.438L195.327 171.913C141.747 326.763 289.892 520.36 356.355 538.692C431.491 523.849 456.228 492.921 459.204 479.312C438.567 250.256 293.711 167.956 223.863 155.438Z" fill="#EDF7FF"/>
<rect x="186.284" y="156.526" width="32.9507" height="19.2212" transform="rotate(-30 186.284 156.526)" fill="#2B2A70"/>
<ellipse cx="191.627" cy="132.831" rx="30.2048" ry="26.086" transform="rotate(-30 191.627 132.831)" fill="#2B2A70"/>
<path opacity="0.2" d="M207.927 255.796C208.934 303.304 244.34 424.856 377.915 531.002" stroke="#2B2A70" stroke-width="1.37295"/>
<path opacity="0.2" d="M186.501 269.5C187.507 317.008 216.001 427.5 330.502 526.5" stroke="#2B2A70" stroke-width="1.37295"/>
<path opacity="0.2" d="M288.186 209.459C328.826 234.084 416.39 325.523 441.528 494.275" stroke="#2B2A70" stroke-width="1.37295"/>
<path opacity="0.2" d="M303.62 191.016C344.571 215.121 433.468 282.022 460.578 473.855" stroke="#2B2A70" stroke-width="1.37295"/>
<path opacity="0.2" d="M250.824 232.615L416.607 519.76" stroke="#2B2A70" stroke-width="1.37295"/>
<path opacity="0.2" d="M227.391 400.715C260.597 392.311 342.756 359.95 405.741 297.744" stroke="#2B2A70" stroke-width="1.37295"/>
<path fill-rule="evenodd" clip-rule="evenodd" d="M452.618 432.05C429.511 455.552 383.711 487.513 308.59 508.407C326.192 524.44 342.795 535.155 356.117 538.83C431.253 523.986 455.989 493.058 458.966 479.45C457.474 462.893 455.333 447.102 452.618 432.05Z" fill="#D51511"/>
<ellipse cx="418.717" cy="534.396" rx="16.4753" ry="60.4096" transform="rotate(-30 418.717 534.396)" fill="#2B2A70"/>
<circle cx="319.314" cy="353.986" r="64.5284" transform="rotate(-30 319.314 353.986)" fill="#2B2A70"/>
<circle cx="319.313" cy="353.986" r="50.799" transform="rotate(-30 319.313 353.986)" fill="#C6DBF2"/>
<path fill-rule="evenodd" clip-rule="evenodd" d="M188.804 292.698C181.254 252.233 181.963 210.812 195.446 171.844L223.982 155.368C252.285 160.441 292.904 176.971 332.584 210.08C320.057 232.027 298.835 253.248 271.285 269.154C243.49 285.201 214.231 292.965 188.804 292.698Z" fill="#2B2A70"/>
<path d="M314.83 316.704C289.389 317.948 291.421 322.201 292.547 318.842C294.121 316.763 302.75 308.279 323.24 310.276C337.863 311.701 344.638 317.483 349.034 323.263C350.499 325.717 351.314 328.995 351.759 331.062C352.715 335.499 340.272 315.461 314.83 316.704Z" fill="#EEEEEE" fill-opacity="0.96"/>
<circle opacity="0.8" cx="315.472" cy="218.278" r="2.74589" transform="rotate(-30 315.472 218.278)" fill="#F7FBFE"/>
<circle opacity="0.8" cx="204.895" cy="282.12" r="2.74589" transform="rotate(-30 204.895 282.12)" fill="#F7FBFE"/>
<circle opacity="0.8" cx="240.614" cy="272.595" r="2.74589" transform="rotate(-30 240.614 272.595)" fill="#F7FBFE"/>
<circle opacity="0.8" cx="288.175" cy="245.136" r="2.74589" transform="rotate(-30 288.175 245.136)" fill="#F7FBFE"/>
<path d="M354.582 333.598C354.704 333.845 362.348 341.422 363.496 340.854C364.644 340.286 360.239 333.545 359.6 332.407C358.841 331.058 350.656 320.445 352.355 328.23C353.182 332.531 354.459 333.351 354.582 333.598Z" fill="#EEEEEE" fill-opacity="0.95"/>
</svg>
