<svg width="375" height="537" viewBox="0 0 375 537" fill="none" xmlns="http://www.w3.org/2000/svg">
<ellipse cx="292.118" cy="320.999" rx="13.1025" ry="70.9718" transform="rotate(-30 292.118 320.999)" fill="#2B2A70"/>
<ellipse cx="186.21" cy="382.144" rx="13.1025" ry="70.9718" transform="rotate(-30 186.21 382.144)" fill="#2B2A70"/>
<path d="M214.73 405.588C204.084 417.967 208.996 392.601 212.783 378.37L278.359 345.695C315.162 364.499 305.921 366.229 296.7 364.744C322.678 397.343 317.526 398.4 311.703 394.853C328.44 447.09 320.404 443.025 314.294 434.463C323.634 462.087 316.933 489.34 312.416 499.513C287.456 493.821 267.231 471.731 260.238 461.397C267.454 488.311 242.172 454.002 228.629 433.483C227.363 449.59 218.835 421.598 214.73 405.588Z" fill="#FB930D"/>
<path d="M220.672 383.001C213.237 382.281 216.844 376.059 219.577 373.038C232.35 363.539 260.594 345.078 271.391 347.22C282.187 349.363 278.686 353.725 275.585 355.639C300.873 379.763 294.511 382.528 288.169 380.894C294.346 397.727 293.271 441.957 286.102 445.529C278.934 449.101 244.896 421.63 233.256 408.256C227.221 421.883 222.352 397.097 220.672 383.001Z" fill="#F3F823"/>
<path d="M100.035 77.6164L77.3404 90.7189C34.7299 213.867 152.546 367.831 205.403 382.41C265.157 370.605 284.83 346.009 287.197 335.186C270.784 153.023 155.583 87.5716 100.035 77.6164Z" fill="#EDF7FF"/>
<rect x="70.1494" y="78.4814" width="26.205" height="15.2862" transform="rotate(-30 70.1494 78.4814)" fill="#2B2A70"/>
<ellipse cx="74.3994" cy="59.6375" rx="24.0212" ry="20.7456" transform="rotate(-30 74.3994 59.6375)" fill="#2B2A70"/>
<path opacity="0.2" d="M87.363 157.429C88.1633 195.211 116.321 291.878 222.55 376.294" stroke="#2B2A70" stroke-width="1.09187"/>
<path opacity="0.2" d="M70.3235 168.327C71.1237 206.109 93.7842 293.981 184.844 372.714" stroke="#2B2A70" stroke-width="1.09187"/>
<path opacity="0.2" d="M151.192 120.578C183.512 140.162 253.149 212.881 273.141 347.086" stroke="#2B2A70" stroke-width="1.09187"/>
<path opacity="0.2" d="M163.463 105.91C196.03 125.081 266.728 178.285 288.288 330.846" stroke="#2B2A70" stroke-width="1.09187"/>
<path opacity="0.2" d="M121.477 138.994L253.32 367.354" stroke="#2B2A70" stroke-width="1.09187"/>
<path opacity="0.2" d="M102.842 272.68C129.25 265.996 194.589 240.26 244.68 190.789" stroke="#2B2A70" stroke-width="1.09187"/>
<path fill-rule="evenodd" clip-rule="evenodd" d="M281.956 297.599C263.58 316.289 227.156 341.708 167.413 358.324C181.412 371.075 194.616 379.597 205.21 382.519C264.964 370.714 284.637 346.118 287.004 335.296C285.818 322.128 284.115 309.57 281.956 297.599Z" fill="#D51511"/>
<ellipse cx="254.999" cy="378.993" rx="13.1025" ry="48.0424" transform="rotate(-30 254.999 378.993)" fill="#2B2A70"/>
<circle cx="175.945" cy="235.517" r="51.318" transform="rotate(-30 175.945 235.517)" fill="#2B2A70"/>
<circle cx="175.946" cy="235.517" r="40.3993" transform="rotate(-30 175.946 235.517)" fill="#C6DBF2"/>
<path fill-rule="evenodd" clip-rule="evenodd" d="M72.1549 186.776C66.1508 154.596 66.7143 121.654 77.4372 90.6635L100.131 77.561C122.64 81.595 154.944 94.7412 186.5 121.073C176.538 138.526 159.661 155.402 137.751 168.052C115.646 180.814 92.3768 186.989 72.1549 186.776Z" fill="#2B2A70"/>
<path d="M172.382 205.868C152.149 206.857 153.765 210.239 154.66 207.568C155.912 205.915 162.774 199.168 179.07 200.756C190.699 201.889 196.087 206.487 199.583 211.084C200.748 213.035 201.396 215.643 201.75 217.286C202.51 220.815 192.614 204.879 172.382 205.868Z" fill="#EEEEEE" fill-opacity="0.96"/>
<circle opacity="0.8" cx="172.889" cy="127.592" r="2.18375" transform="rotate(-30 172.889 127.592)" fill="#F7FBFE"/>
<circle opacity="0.8" cx="84.9518" cy="178.364" r="2.18375" transform="rotate(-30 84.9518 178.364)" fill="#F7FBFE"/>
<circle opacity="0.8" cx="113.356" cy="170.789" r="2.18375" transform="rotate(-30 113.356 170.789)" fill="#F7FBFE"/>
<circle opacity="0.8" cx="151.182" cy="148.951" r="2.18375" transform="rotate(-30 151.182 148.951)" fill="#F7FBFE"/>
<path d="M203.991 219.303C204.089 219.5 210.168 225.526 211.081 225.074C211.993 224.622 208.491 219.261 207.982 218.356C207.379 217.283 200.87 208.842 202.221 215.034C202.878 218.454 203.894 219.106 203.991 219.303Z" fill="#EEEEEE" fill-opacity="0.95"/>
</svg>
